<svg xmlns="http://www.w3.org/2000/svg" xmlns:xlink="http://www.w3.org/1999/xlink" width="300" zoomAndPan="magnify" viewBox="0 0 224.87999 337.499995" height="450" preserveAspectRatio="xMidYMid meet" version="1.0"><defs><g/><clipPath id="50fef2e751"><path d="M 9.960938 8.050781 L 214.917969 8.050781 L 214.917969 329 L 9.960938 329 Z M 9.960938 8.050781 " clip-rule="nonzero"/></clipPath><clipPath id="5998e1dc14"><path d="M 20.445312 8.050781 L 204.433594 8.050781 C 210.226562 8.050781 214.917969 12.746094 214.917969 18.535156 L 214.917969 318.464844 C 214.917969 324.253906 210.226562 328.949219 204.433594 328.949219 L 20.445312 328.949219 C 14.65625 328.949219 9.960938 324.253906 9.960938 318.464844 L 9.960938 18.535156 C 9.960938 12.746094 14.65625 8.050781 20.445312 8.050781 Z M 20.445312 8.050781 " clip-rule="nonzero"/></clipPath><clipPath id="e8dddde530"><path d="M 9.960938 8.050781 L 215 8.050781 L 215 328.574219 L 9.960938 328.574219 Z M 9.960938 8.050781 " clip-rule="nonzero"/></clipPath><clipPath id="a4e3a027ad"><path d="M 20.445312 8.050781 L 204.425781 8.050781 C 210.21875 8.050781 214.910156 12.746094 214.910156 18.535156 L 214.910156 318.453125 C 214.910156 324.246094 210.21875 328.9375 204.425781 328.9375 L 20.445312 328.9375 C 14.65625 328.9375 9.960938 324.246094 9.960938 318.453125 L 9.960938 18.535156 C 9.960938 12.746094 14.65625 8.050781 20.445312 8.050781 Z M 20.445312 8.050781 " clip-rule="nonzero"/></clipPath><clipPath id="e34bb2f6fc"><path d="M 16.296875 36.941406 L 38.238281 36.941406 L 38.238281 58.882812 L 16.296875 58.882812 Z M 16.296875 36.941406 " clip-rule="nonzero"/></clipPath><clipPath id="6ecd0c6a8e"><path d="M 27.269531 58.882812 L 16.296875 47.914062 L 27.269531 36.941406 L 38.238281 47.914062 Z M 27.269531 58.882812 " clip-rule="nonzero"/></clipPath><clipPath id="b30b5693c3"><path d="M 49.660156 43.703125 L 90.171875 43.703125 L 90.171875 84.210938 L 49.660156 84.210938 Z M 49.660156 43.703125 " clip-rule="nonzero"/></clipPath><clipPath id="a35d4da203"><path d="M 69.917969 84.210938 L 49.660156 63.957031 L 69.917969 43.703125 L 90.171875 63.957031 Z M 69.917969 84.210938 " clip-rule="nonzero"/></clipPath><clipPath id="69bc77d1d5"><path d="M 134.683594 43.703125 L 175.195312 43.703125 L 175.195312 84.210938 L 134.683594 84.210938 Z M 134.683594 43.703125 " clip-rule="nonzero"/></clipPath><clipPath id="c0f36b26ce"><path d="M 154.941406 84.210938 L 134.683594 63.957031 L 154.941406 43.703125 L 175.195312 63.957031 Z M 154.941406 84.210938 " clip-rule="nonzero"/></clipPath><clipPath id="bcec557b9b"><path d="M 90.171875 77.402344 L 130.683594 77.402344 L 130.683594 117.910156 L 90.171875 117.910156 Z M 90.171875 77.402344 " clip-rule="nonzero"/></clipPath><clipPath id="75cb090eae"><path d="M 110.425781 117.910156 L 90.171875 97.65625 L 110.425781 77.402344 L 130.683594 97.65625 Z M 110.425781 117.910156 " clip-rule="nonzero"/></clipPath><clipPath id="a39988a96f"><path d="M 49.660156 115.300781 L 90.171875 115.300781 L 90.171875 155.8125 L 49.660156 155.8125 Z M 49.660156 115.300781 " clip-rule="nonzero"/></clipPath><clipPath id="692bab68fc"><path d="M 69.917969 155.8125 L 49.660156 135.554688 L 69.917969 115.300781 L 90.171875 135.554688 Z M 69.917969 155.8125 " clip-rule="nonzero"/></clipPath><clipPath id="1a4e7a4b2b"><path d="M 134.683594 115.300781 L 175.195312 115.300781 L 175.195312 155.8125 L 134.683594 155.8125 Z M 134.683594 115.300781 " clip-rule="nonzero"/></clipPath><clipPath id="bf07fb8fbd"><path d="M 154.941406 155.8125 L 134.683594 135.554688 L 154.941406 115.300781 L 175.195312 135.554688 Z M 154.941406 155.8125 " clip-rule="nonzero"/></clipPath><clipPath id="7140c9c52b"><path d="M 47.660156 179.164062 L 88.171875 179.164062 L 88.171875 219.671875 L 47.660156 219.671875 Z M 47.660156 179.164062 " clip-rule="nonzero"/></clipPath><clipPath id="96e765e716"><path d="M 67.914062 219.671875 L 47.660156 199.417969 L 67.914062 179.164062 L 88.171875 199.417969 Z M 67.914062 219.671875 " clip-rule="nonzero"/></clipPath><clipPath id="01d5de1426"><path d="M 132.683594 179.164062 L 173.195312 179.164062 L 173.195312 219.671875 L 132.683594 219.671875 Z M 132.683594 179.164062 " clip-rule="nonzero"/></clipPath><clipPath id="966f1da458"><path d="M 152.9375 219.671875 L 132.683594 199.417969 L 152.9375 179.164062 L 173.195312 199.417969 Z M 152.9375 219.671875 " clip-rule="nonzero"/></clipPath><clipPath id="1aae47e263"><path d="M 88.171875 212.863281 L 128.679688 212.863281 L 128.679688 253.375 L 88.171875 253.375 Z M 88.171875 212.863281 " clip-rule="nonzero"/></clipPath><clipPath id="4ebbec2921"><path d="M 108.425781 253.375 L 88.171875 233.117188 L 108.425781 212.863281 L 128.679688 233.117188 Z M 108.425781 253.375 " clip-rule="nonzero"/></clipPath><clipPath id="45c21ee451"><path d="M 47.660156 250.761719 L 88.171875 250.761719 L 88.171875 291.273438 L 47.660156 291.273438 Z M 47.660156 250.761719 " clip-rule="nonzero"/></clipPath><clipPath id="de58cd33d5"><path d="M 67.914062 291.273438 L 47.660156 271.019531 L 67.914062 250.761719 L 88.171875 271.019531 Z M 67.914062 291.273438 " clip-rule="nonzero"/></clipPath><clipPath id="5d97bc4d27"><path d="M 132.683594 250.761719 L 173.195312 250.761719 L 173.195312 291.273438 L 132.683594 291.273438 Z M 132.683594 250.761719 " clip-rule="nonzero"/></clipPath><clipPath id="10a506797f"><path d="M 152.9375 291.273438 L 132.683594 271.019531 L 152.9375 250.761719 L 173.195312 271.019531 Z M 152.9375 291.273438 " clip-rule="nonzero"/></clipPath><clipPath id="0f832dcafe"><path d="M 186.820312 279.847656 L 208.761719 279.847656 L 208.761719 301.789062 L 186.820312 301.789062 Z M 186.820312 279.847656 " clip-rule="nonzero"/></clipPath><clipPath id="d9f9aed751"><path d="M 197.789062 279.847656 L 208.761719 290.820312 L 197.789062 301.789062 L 186.820312 290.820312 Z M 197.789062 279.847656 " clip-rule="nonzero"/></clipPath></defs><g clip-path="url(#50fef2e751)"><g clip-path="url(#5998e1dc14)"><path fill="#ffffff" d="M 9.960938 8.050781 L 214.917969 8.050781 L 214.917969 329.097656 L 9.960938 329.097656 Z M 9.960938 8.050781 " fill-opacity="1" fill-rule="nonzero"/></g></g><g clip-path="url(#e8dddde530)"><g clip-path="url(#a4e3a027ad)"><path stroke-linecap="butt" transform="matrix(0.748891, 0, 0, 0.748891, 9.961128, 8.051028)" fill="none" stroke-linejoin="miter" d="M 13.999622 -0.000329615 L 259.67033 -0.000329615 C 267.405731 -0.000329615 273.670206 6.269362 273.670206 13.999547 L 273.670206 414.482599 C 273.670206 422.218001 267.405731 428.482476 259.67033 428.482476 L 13.999622 428.482476 C 6.269437 428.482476 -0.0002545 422.218001 -0.0002545 414.482599 L -0.0002545 13.999547 C -0.0002545 6.269362 6.269437 -0.000329615 13.999622 -0.000329615 Z M 13.999622 -0.000329615 " stroke="#000000" stroke-width="4" stroke-opacity="1" stroke-miterlimit="4"/></g></g><g fill="#ff0000" fill-opacity="1"><g transform="translate(16.46575, 32.643154)"><g><path d="M 0.65625 0 L 0.65625 -2.0625 L 3.703125 -2.0625 L 3.703125 -9.890625 L 3.5 -9.953125 C 3.070312 -9.742188 2.648438 -9.578125 2.234375 -9.453125 C 1.816406 -9.335938 1.34375 -9.242188 0.8125 -9.171875 L 0.8125 -11.296875 C 2.207031 -11.585938 3.332031 -12.019531 4.1875 -12.59375 L 6.171875 -12.59375 L 6.171875 -2.0625 L 8.875 -2.0625 L 8.875 0 Z M 0.65625 0 "/></g></g><g transform="translate(25.760181, 32.643154)"><g><path d="M 6.15625 0.1875 C 5.125 0.1875 4.226562 -0.0390625 3.46875 -0.5 C 2.707031 -0.957031 2.113281 -1.664062 1.6875 -2.625 C 1.269531 -3.59375 1.0625 -4.816406 1.0625 -6.296875 C 1.0625 -7.773438 1.269531 -8.992188 1.6875 -9.953125 C 2.113281 -10.921875 2.707031 -11.632812 3.46875 -12.09375 C 4.226562 -12.550781 5.125 -12.78125 6.15625 -12.78125 C 7.1875 -12.78125 8.082031 -12.550781 8.84375 -12.09375 C 9.601562 -11.632812 10.191406 -10.921875 10.609375 -9.953125 C 11.035156 -8.992188 11.25 -7.773438 11.25 -6.296875 C 11.25 -4.816406 11.035156 -3.59375 10.609375 -2.625 C 10.191406 -1.664062 9.601562 -0.957031 8.84375 -0.5 C 8.082031 -0.0390625 7.1875 0.1875 6.15625 0.1875 Z M 6.15625 -1.921875 C 6.71875 -1.921875 7.1875 -2.054688 7.5625 -2.328125 C 7.9375 -2.609375 8.226562 -3.066406 8.4375 -3.703125 C 8.644531 -4.347656 8.75 -5.210938 8.75 -6.296875 C 8.75 -7.378906 8.644531 -8.238281 8.4375 -8.875 C 8.226562 -9.519531 7.9375 -9.976562 7.5625 -10.25 C 7.1875 -10.519531 6.71875 -10.65625 6.15625 -10.65625 C 5.59375 -10.65625 5.117188 -10.519531 4.734375 -10.25 C 4.359375 -9.976562 4.066406 -9.519531 3.859375 -8.875 C 3.660156 -8.238281 3.5625 -7.378906 3.5625 -6.296875 C 3.5625 -5.210938 3.660156 -4.347656 3.859375 -3.703125 C 4.066406 -3.066406 4.359375 -2.609375 4.734375 -2.328125 C 5.117188 -2.054688 5.59375 -1.921875 6.15625 -1.921875 Z M 6.15625 -1.921875 "/></g></g></g><g clip-path="url(#e34bb2f6fc)"><g clip-path="url(#6ecd0c6a8e)"><path fill="#ff0000" d="M 38.238281 58.882812 L 16.296875 58.882812 L 16.296875 36.941406 L 38.238281 36.941406 Z M 38.238281 58.882812 " fill-opacity="1" fill-rule="nonzero"/></g></g><g clip-path="url(#b30b5693c3)"><g clip-path="url(#a35d4da203)"><path fill="#ff0000" d="M 90.171875 84.210938 L 49.660156 84.210938 L 49.660156 43.703125 L 90.171875 43.703125 Z M 90.171875 84.210938 " fill-opacity="1" fill-rule="nonzero"/></g></g><g clip-path="url(#69bc77d1d5)"><g clip-path="url(#c0f36b26ce)"><path fill="#ff0000" d="M 175.195312 84.210938 L 134.683594 84.210938 L 134.683594 43.703125 L 175.195312 43.703125 Z M 175.195312 84.210938 " fill-opacity="1" fill-rule="nonzero"/></g></g><g clip-path="url(#bcec557b9b)"><g clip-path="url(#75cb090eae)"><path fill="#ff0000" d="M 130.683594 117.910156 L 90.171875 117.910156 L 90.171875 77.402344 L 130.683594 77.402344 Z M 130.683594 117.910156 " fill-opacity="1" fill-rule="nonzero"/></g></g><g clip-path="url(#a39988a96f)"><g clip-path="url(#692bab68fc)"><path fill="#ff0000" d="M 90.171875 155.8125 L 49.660156 155.8125 L 49.660156 115.300781 L 90.171875 115.300781 Z M 90.171875 155.8125 " fill-opacity="1" fill-rule="nonzero"/></g></g><g clip-path="url(#1a4e7a4b2b)"><g clip-path="url(#bf07fb8fbd)"><path fill="#ff0000" d="M 175.195312 155.8125 L 134.683594 155.8125 L 134.683594 115.300781 L 175.195312 115.300781 Z M 175.195312 155.8125 " fill-opacity="1" fill-rule="nonzero"/></g></g><g clip-path="url(#7140c9c52b)"><g clip-path="url(#96e765e716)"><path fill="#ff0000" d="M 88.171875 219.671875 L 47.660156 219.671875 L 47.660156 179.164062 L 88.171875 179.164062 Z M 88.171875 219.671875 " fill-opacity="1" fill-rule="nonzero"/></g></g><g clip-path="url(#01d5de1426)"><g clip-path="url(#966f1da458)"><path fill="#ff0000" d="M 173.195312 219.671875 L 132.683594 219.671875 L 132.683594 179.164062 L 173.195312 179.164062 Z M 173.195312 219.671875 " fill-opacity="1" fill-rule="nonzero"/></g></g><g clip-path="url(#1aae47e263)"><g clip-path="url(#4ebbec2921)"><path fill="#ff0000" d="M 128.679688 253.375 L 88.171875 253.375 L 88.171875 212.863281 L 128.679688 212.863281 Z M 128.679688 253.375 " fill-opacity="1" fill-rule="nonzero"/></g></g><g clip-path="url(#45c21ee451)"><g clip-path="url(#de58cd33d5)"><path fill="#ff0000" d="M 88.171875 291.273438 L 47.660156 291.273438 L 47.660156 250.761719 L 88.171875 250.761719 Z M 88.171875 291.273438 " fill-opacity="1" fill-rule="nonzero"/></g></g><g clip-path="url(#5d97bc4d27)"><g clip-path="url(#10a506797f)"><path fill="#ff0000" d="M 173.195312 291.273438 L 132.683594 291.273438 L 132.683594 250.761719 L 173.195312 250.761719 Z M 173.195312 291.273438 " fill-opacity="1" fill-rule="nonzero"/></g></g><g fill="#ff0000" fill-opacity="1"><g transform="translate(208.592634, 306.088047)"><g><path d="M -0.65625 0 L -0.65625 2.0625 L -3.703125 2.0625 L -3.703125 9.890625 L -3.5 9.953125 C -3.070312 9.742188 -2.648438 9.578125 -2.234375 9.453125 C -1.816406 9.335938 -1.34375 9.242188 -0.8125 9.171875 L -0.8125 11.296875 C -2.207031 11.585938 -3.332031 12.019531 -4.1875 12.59375 L -6.171875 12.59375 L -6.171875 2.0625 L -8.875 2.0625 L -8.875 0 Z M -0.65625 0 "/></g></g><g transform="translate(199.298203, 306.088047)"><g><path d="M -6.15625 -0.1875 C -5.125 -0.1875 -4.226562 0.0390625 -3.46875 0.5 C -2.707031 0.957031 -2.113281 1.664062 -1.6875 2.625 C -1.269531 3.59375 -1.0625 4.816406 -1.0625 6.296875 C -1.0625 7.773438 -1.269531 8.992188 -1.6875 9.953125 C -2.113281 10.921875 -2.707031 11.632812 -3.46875 12.09375 C -4.226562 12.550781 -5.125 12.78125 -6.15625 12.78125 C -7.1875 12.78125 -8.082031 12.550781 -8.84375 12.09375 C -9.601562 11.632812 -10.191406 10.921875 -10.609375 9.953125 C -11.035156 8.992188 -11.25 7.773438 -11.25 6.296875 C -11.25 4.816406 -11.035156 3.59375 -10.609375 2.625 C -10.191406 1.664062 -9.601562 0.957031 -8.84375 0.5 C -8.082031 0.0390625 -7.1875 -0.1875 -6.15625 -0.1875 Z M -6.15625 1.921875 C -6.71875 1.921875 -7.1875 2.054688 -7.5625 2.328125 C -7.9375 2.609375 -8.226562 3.066406 -8.4375 3.703125 C -8.644531 4.347656 -8.75 5.210938 -8.75 6.296875 C -8.75 7.378906 -8.644531 8.238281 -8.4375 8.875 C -8.226562 9.519531 -7.9375 9.976562 -7.5625 10.25 C -7.1875 10.519531 -6.71875 10.65625 -6.15625 10.65625 C -5.59375 10.65625 -5.117188 10.519531 -4.734375 10.25 C -4.359375 9.976562 -4.066406 9.519531 -3.859375 8.875 C -3.660156 8.238281 -3.5625 7.378906 -3.5625 6.296875 C -3.5625 5.210938 -3.660156 4.347656 -3.859375 3.703125 C -4.066406 3.066406 -4.359375 2.609375 -4.734375 2.328125 C -5.117188 2.054688 -5.59375 1.921875 -6.15625 1.921875 Z M -6.15625 1.921875 "/></g></g></g><g clip-path="url(#0f832dcafe)"><g clip-path="url(#d9f9aed751)"><path fill="#ff0000" d="M 186.820312 279.847656 L 208.761719 279.847656 L 208.761719 301.789062 L 186.820312 301.789062 Z M 186.820312 279.847656 " fill-opacity="1" fill-rule="nonzero"/></g></g></svg>