<svg xmlns="http://www.w3.org/2000/svg" xmlns:xlink="http://www.w3.org/1999/xlink" width="300" zoomAndPan="magnify" viewBox="0 0 224.87999 337.499995" height="450" preserveAspectRatio="xMidYMid meet" version="1.0"><defs><g/><clipPath id="5f16ea96a4"><path d="M 9.960938 8.050781 L 214.917969 8.050781 L 214.917969 329 L 9.960938 329 Z M 9.960938 8.050781 " clip-rule="nonzero"/></clipPath><clipPath id="f10ffad8a1"><path d="M 20.445312 8.050781 L 204.433594 8.050781 C 210.226562 8.050781 214.917969 12.746094 214.917969 18.535156 L 214.917969 318.464844 C 214.917969 324.253906 210.226562 328.949219 204.433594 328.949219 L 20.445312 328.949219 C 14.65625 328.949219 9.960938 324.253906 9.960938 318.464844 L 9.960938 18.535156 C 9.960938 12.746094 14.65625 8.050781 20.445312 8.050781 Z M 20.445312 8.050781 " clip-rule="nonzero"/></clipPath><clipPath id="23da20a05e"><path d="M 9.960938 8.050781 L 215 8.050781 L 215 328.574219 L 9.960938 328.574219 Z M 9.960938 8.050781 " clip-rule="nonzero"/></clipPath><clipPath id="7847631ae0"><path d="M 20.445312 8.050781 L 204.425781 8.050781 C 210.21875 8.050781 214.910156 12.746094 214.910156 18.535156 L 214.910156 318.453125 C 214.910156 324.246094 210.21875 328.9375 204.425781 328.9375 L 20.445312 328.9375 C 14.65625 328.9375 9.960938 324.246094 9.960938 318.453125 L 9.960938 18.535156 C 9.960938 12.746094 14.65625 8.050781 20.445312 8.050781 Z M 20.445312 8.050781 " clip-rule="nonzero"/></clipPath><clipPath id="ceff512680"><path d="M 49.496094 36.804688 L 90.242188 36.804688 L 90.242188 72.546875 L 49.496094 72.546875 Z M 49.496094 36.804688 " clip-rule="nonzero"/></clipPath><clipPath id="e0a87257bf"><path d="M 51.109375 42.628906 C 47.808594 48.0625 50.132812 53.351562 53.054688 56.160156 L 70.132812 72.546875 L 86.847656 56.21875 C 89.566406 53.199219 90.605469 49.996094 90.027344 46.425781 C 89.230469 41.492188 85.164062 37.664062 80.140625 37.117188 C 77.058594 36.785156 74.082031 37.65625 71.757812 39.585938 C 71.132812 40.105469 70.574219 40.6875 70.089844 41.320312 C 69.511719 40.601562 68.832031 39.941406 68.066406 39.359375 C 65.394531 37.332031 61.996094 36.523438 58.726562 37.152344 C 55.632812 37.75 52.859375 39.746094 51.109375 42.628906 Z M 51.109375 42.628906 " clip-rule="nonzero"/></clipPath><clipPath id="8552492267"><path d="M 14.90625 36.855469 L 40.492188 36.855469 L 40.492188 59.296875 L 14.90625 59.296875 Z M 14.90625 36.855469 " clip-rule="nonzero"/></clipPath><clipPath id="839bbce82d"><path d="M 15.917969 40.511719 C 13.847656 43.925781 15.304688 47.246094 17.140625 49.011719 L 27.863281 59.296875 L 38.359375 49.046875 C 40.066406 47.148438 40.71875 45.136719 40.355469 42.898438 C 39.855469 39.800781 37.300781 37.394531 34.148438 37.050781 C 32.210938 36.84375 30.34375 37.390625 28.882812 38.605469 C 28.492188 38.929688 28.140625 39.292969 27.835938 39.691406 C 27.472656 39.238281 27.046875 38.828125 26.566406 38.460938 C 24.886719 37.1875 22.753906 36.679688 20.703125 37.074219 C 18.757812 37.449219 17.015625 38.703125 15.917969 40.511719 Z M 15.917969 40.511719 " clip-rule="nonzero"/></clipPath><clipPath id="611af34504"><path d="M 134.695312 36.804688 L 175.445312 36.804688 L 175.445312 72.546875 L 134.695312 72.546875 Z M 134.695312 36.804688 " clip-rule="nonzero"/></clipPath><clipPath id="972f0300b6"><path d="M 136.308594 42.628906 C 133.011719 48.0625 135.335938 53.351562 138.253906 56.160156 L 155.332031 72.546875 L 172.050781 56.21875 C 174.765625 53.199219 175.808594 49.996094 175.230469 46.425781 C 174.429688 41.492188 170.363281 37.664062 165.339844 37.117188 C 162.261719 36.785156 159.285156 37.65625 156.960938 39.585938 C 156.335938 40.105469 155.777344 40.6875 155.289062 41.320312 C 154.710938 40.601562 154.035156 39.941406 153.265625 39.359375 C 150.597656 37.332031 147.195312 36.523438 143.929688 37.152344 C 140.835938 37.75 138.058594 39.746094 136.308594 42.628906 Z M 136.308594 42.628906 " clip-rule="nonzero"/></clipPath><clipPath id="6109658207"><path d="M 92.097656 82.183594 L 132.84375 82.183594 L 132.84375 117.921875 L 92.097656 117.921875 Z M 92.097656 82.183594 " clip-rule="nonzero"/></clipPath><clipPath id="f7b5766696"><path d="M 93.710938 88.007812 C 90.410156 93.441406 92.734375 98.730469 95.65625 101.539062 L 112.734375 117.921875 L 129.449219 101.597656 C 132.167969 98.578125 133.207031 95.375 132.628906 91.804688 C 131.832031 86.871094 127.765625 83.042969 122.742188 82.496094 C 119.660156 82.164062 116.683594 83.035156 114.359375 84.964844 C 113.734375 85.484375 113.175781 86.066406 112.6875 86.695312 C 112.109375 85.976562 111.433594 85.320312 110.667969 84.738281 C 107.996094 82.707031 104.59375 81.902344 101.328125 82.527344 C 98.234375 83.125 95.457031 85.121094 93.710938 88.007812 Z M 93.710938 88.007812 " clip-rule="nonzero"/></clipPath><clipPath id="881e5b5b02"><path d="M 134.695312 117.785156 L 175.445312 117.785156 L 175.445312 153.527344 L 134.695312 153.527344 Z M 134.695312 117.785156 " clip-rule="nonzero"/></clipPath><clipPath id="5480c71528"><path d="M 136.308594 123.609375 C 133.011719 129.042969 135.335938 134.332031 138.253906 137.140625 L 155.332031 153.527344 L 172.050781 137.199219 C 174.765625 134.179688 175.808594 130.976562 175.230469 127.40625 C 174.429688 122.472656 170.363281 118.644531 165.339844 118.097656 C 162.261719 117.765625 159.285156 118.636719 156.960938 120.566406 C 156.335938 121.085938 155.777344 121.667969 155.289062 122.300781 C 154.710938 121.582031 154.035156 120.921875 153.265625 120.339844 C 150.597656 118.308594 147.195312 117.503906 143.929688 118.132812 C 140.835938 118.730469 138.058594 120.722656 136.308594 123.609375 Z M 136.308594 123.609375 " clip-rule="nonzero"/></clipPath><clipPath id="c448e1f915"><path d="M 49.496094 117.785156 L 90.242188 117.785156 L 90.242188 153.527344 L 49.496094 153.527344 Z M 49.496094 117.785156 " clip-rule="nonzero"/></clipPath><clipPath id="d607a9fcb8"><path d="M 51.109375 123.609375 C 47.808594 129.042969 50.132812 134.332031 53.054688 137.140625 L 70.132812 153.527344 L 86.847656 137.199219 C 89.566406 134.179688 90.605469 130.976562 90.027344 127.40625 C 89.230469 122.472656 85.164062 118.644531 80.140625 118.097656 C 77.058594 117.765625 74.082031 118.636719 71.757812 120.566406 C 71.132812 121.085938 70.574219 121.667969 70.089844 122.300781 C 69.511719 121.582031 68.832031 120.921875 68.066406 120.339844 C 65.394531 118.308594 61.996094 117.503906 58.726562 118.132812 C 55.632812 118.730469 52.859375 120.722656 51.109375 123.609375 Z M 51.109375 123.609375 " clip-rule="nonzero"/></clipPath><clipPath id="5b87c66e25"><path d="M 47.25 186.90625 L 88 186.90625 L 88 222.648438 L 47.25 222.648438 Z M 47.25 186.90625 " clip-rule="nonzero"/></clipPath><clipPath id="87e2aae3b4"><path d="M 86.386719 216.824219 C 89.683594 211.390625 87.359375 206.097656 84.441406 203.289062 L 67.363281 186.90625 L 50.644531 203.230469 C 47.929688 206.253906 46.886719 209.457031 47.464844 213.023438 C 48.265625 217.957031 52.332031 221.789062 57.355469 222.335938 C 60.4375 222.667969 63.414062 221.792969 65.734375 219.863281 C 66.359375 219.34375 66.917969 218.765625 67.40625 218.132812 C 67.984375 218.851562 68.664062 219.507812 69.429688 220.089844 C 72.101562 222.121094 75.5 222.925781 78.765625 222.300781 C 81.859375 221.703125 84.636719 219.707031 86.386719 216.824219 Z M 86.386719 216.824219 " clip-rule="nonzero"/></clipPath><clipPath id="d4a8f45b84"><path d="M 134.632812 186.90625 L 175.382812 186.90625 L 175.382812 222.648438 L 134.632812 222.648438 Z M 134.632812 186.90625 " clip-rule="nonzero"/></clipPath><clipPath id="d1144cb316"><path d="M 173.769531 216.824219 C 177.070312 211.390625 174.746094 206.097656 171.824219 203.289062 L 154.746094 186.90625 L 138.027344 203.230469 C 135.3125 206.253906 134.269531 209.457031 134.847656 213.023438 C 135.648438 217.957031 139.714844 221.789062 144.738281 222.335938 C 147.820312 222.667969 150.796875 221.792969 153.117188 219.863281 C 153.742188 219.34375 154.300781 218.765625 154.789062 218.132812 C 155.367188 218.851562 156.046875 219.507812 156.8125 220.089844 C 159.484375 222.121094 162.882812 222.925781 166.148438 222.300781 C 169.242188 221.703125 172.019531 219.707031 173.769531 216.824219 Z M 173.769531 216.824219 " clip-rule="nonzero"/></clipPath><clipPath id="8505dbcbbe"><path d="M 92.035156 222.507812 L 132.78125 222.507812 L 132.78125 258.25 L 92.035156 258.25 Z M 92.035156 222.507812 " clip-rule="nonzero"/></clipPath><clipPath id="b2b44ad9fb"><path d="M 131.167969 252.425781 C 134.46875 246.992188 132.144531 241.699219 129.222656 238.894531 L 112.144531 222.507812 L 95.429688 238.835938 C 92.710938 241.855469 91.667969 245.058594 92.25 248.625 C 93.046875 253.5625 97.113281 257.390625 102.136719 257.9375 C 105.21875 258.269531 108.195312 257.394531 110.519531 255.464844 C 111.144531 254.945312 111.703125 254.367188 112.1875 253.734375 C 112.765625 254.453125 113.445312 255.109375 114.210938 255.691406 C 116.882812 257.722656 120.28125 258.53125 123.550781 257.902344 C 126.640625 257.304688 129.417969 255.308594 131.167969 252.425781 Z M 131.167969 252.425781 " clip-rule="nonzero"/></clipPath><clipPath id="e59f12e9e9"><path d="M 47.25 261.671875 L 88 261.671875 L 88 297.414062 L 47.25 297.414062 Z M 47.25 261.671875 " clip-rule="nonzero"/></clipPath><clipPath id="d9204fcfc0"><path d="M 86.386719 291.589844 C 89.683594 286.15625 87.359375 280.867188 84.441406 278.058594 L 67.363281 261.671875 L 50.644531 278 C 47.929688 281.019531 46.886719 284.222656 47.464844 287.792969 C 48.265625 292.726562 52.332031 296.554688 57.355469 297.101562 C 60.4375 297.433594 63.414062 296.5625 65.734375 294.632812 C 66.359375 294.113281 66.917969 293.53125 67.40625 292.898438 C 67.984375 293.617188 68.664062 294.277344 69.429688 294.859375 C 72.101562 296.890625 75.5 297.695312 78.765625 297.066406 C 81.859375 296.46875 84.636719 294.476562 86.386719 291.589844 Z M 86.386719 291.589844 " clip-rule="nonzero"/></clipPath><clipPath id="ebcee5e29d"><path d="M 134.632812 261.671875 L 175.382812 261.671875 L 175.382812 297.414062 L 134.632812 297.414062 Z M 134.632812 261.671875 " clip-rule="nonzero"/></clipPath><clipPath id="6686c728f1"><path d="M 173.769531 291.589844 C 177.070312 286.15625 174.746094 280.867188 171.824219 278.058594 L 154.746094 261.671875 L 138.027344 278 C 135.3125 281.019531 134.269531 284.222656 134.847656 287.792969 C 135.648438 292.726562 139.714844 296.554688 144.738281 297.101562 C 147.820312 297.433594 150.796875 296.5625 153.117188 294.632812 C 153.742188 294.113281 154.300781 293.53125 154.789062 292.898438 C 155.367188 293.617188 156.046875 294.277344 156.8125 294.859375 C 159.484375 296.890625 162.882812 297.695312 166.148438 297.066406 C 169.242188 296.46875 172.019531 294.476562 173.769531 291.589844 Z M 173.769531 291.589844 " clip-rule="nonzero"/></clipPath><clipPath id="b73060ed4e"><path d="M 181.441406 275.730469 L 207.027344 275.730469 L 207.027344 298.171875 L 181.441406 298.171875 Z M 181.441406 275.730469 " clip-rule="nonzero"/></clipPath><clipPath id="f524e8b7c7"><path d="M 206.015625 294.515625 C 208.085938 291.101562 206.625 287.78125 204.792969 286.019531 L 194.070312 275.730469 L 183.570312 285.980469 C 181.867188 287.878906 181.210938 289.890625 181.574219 292.128906 C 182.078125 295.226562 184.628906 297.632812 187.785156 297.976562 C 189.71875 298.183594 191.589844 297.636719 193.046875 296.425781 C 193.441406 296.097656 193.789062 295.734375 194.097656 295.335938 C 194.460938 295.789062 194.886719 296.203125 195.367188 296.566406 C 197.042969 297.839844 199.179688 298.347656 201.230469 297.953125 C 203.171875 297.578125 204.914062 296.324219 206.015625 294.515625 Z M 206.015625 294.515625 " clip-rule="nonzero"/></clipPath></defs><g clip-path="url(#5f16ea96a4)"><g clip-path="url(#f10ffad8a1)"><path fill="#ffffff" d="M 9.960938 8.050781 L 214.917969 8.050781 L 214.917969 329.097656 L 9.960938 329.097656 Z M 9.960938 8.050781 " fill-opacity="1" fill-rule="nonzero"/></g></g><g clip-path="url(#23da20a05e)"><g clip-path="url(#7847631ae0)"><path stroke-linecap="butt" transform="matrix(0.748891, 0, 0, 0.748891, 9.961128, 8.051028)" fill="none" stroke-linejoin="miter" d="M 13.999622 -0.000329615 L 259.67033 -0.000329615 C 267.405731 -0.000329615 273.670206 6.269362 273.670206 13.999547 L 273.670206 414.482599 C 273.670206 422.218001 267.405731 428.482476 259.67033 428.482476 L 13.999622 428.482476 C 6.269437 428.482476 -0.0002545 422.218001 -0.0002545 414.482599 L -0.0002545 13.999547 C -0.0002545 6.269362 6.269437 -0.000329615 13.999622 -0.000329615 Z M 13.999622 -0.000329615 " stroke="#000000" stroke-width="4" stroke-opacity="1" stroke-miterlimit="4"/></g></g><g clip-path="url(#ceff512680)"><g clip-path="url(#e0a87257bf)"><path fill="#ff0000" d="M 49.496094 36.941406 L 90.242188 36.941406 L 90.242188 72.546875 L 49.496094 72.546875 Z M 49.496094 36.941406 " fill-opacity="1" fill-rule="nonzero"/></g></g><g clip-path="url(#8552492267)"><g clip-path="url(#839bbce82d)"><path fill="#ff0000" d="M 14.90625 36.941406 L 40.492188 36.941406 L 40.492188 59.296875 L 14.90625 59.296875 Z M 14.90625 36.941406 " fill-opacity="1" fill-rule="nonzero"/></g></g><g fill="#ff0000" fill-opacity="1"><g transform="translate(16.46575, 32.643154)"><g><path d="M 0.65625 0 L 0.65625 -2.0625 L 3.703125 -2.0625 L 3.703125 -9.890625 L 3.5 -9.953125 C 3.070312 -9.742188 2.648438 -9.578125 2.234375 -9.453125 C 1.816406 -9.335938 1.34375 -9.242188 0.8125 -9.171875 L 0.8125 -11.296875 C 2.207031 -11.585938 3.332031 -12.019531 4.1875 -12.59375 L 6.171875 -12.59375 L 6.171875 -2.0625 L 8.875 -2.0625 L 8.875 0 Z M 0.65625 0 "/></g></g><g transform="translate(25.760181, 32.643154)"><g><path d="M 6.15625 0.1875 C 5.125 0.1875 4.226562 -0.0390625 3.46875 -0.5 C 2.707031 -0.957031 2.113281 -1.664062 1.6875 -2.625 C 1.269531 -3.59375 1.0625 -4.816406 1.0625 -6.296875 C 1.0625 -7.773438 1.269531 -8.992188 1.6875 -9.953125 C 2.113281 -10.921875 2.707031 -11.632812 3.46875 -12.09375 C 4.226562 -12.550781 5.125 -12.78125 6.15625 -12.78125 C 7.1875 -12.78125 8.082031 -12.550781 8.84375 -12.09375 C 9.601562 -11.632812 10.191406 -10.921875 10.609375 -9.953125 C 11.035156 -8.992188 11.25 -7.773438 11.25 -6.296875 C 11.25 -4.816406 11.035156 -3.59375 10.609375 -2.625 C 10.191406 -1.664062 9.601562 -0.957031 8.84375 -0.5 C 8.082031 -0.0390625 7.1875 0.1875 6.15625 0.1875 Z M 6.15625 -1.921875 C 6.71875 -1.921875 7.1875 -2.054688 7.5625 -2.328125 C 7.9375 -2.609375 8.226562 -3.066406 8.4375 -3.703125 C 8.644531 -4.347656 8.75 -5.210938 8.75 -6.296875 C 8.75 -7.378906 8.644531 -8.238281 8.4375 -8.875 C 8.226562 -9.519531 7.9375 -9.976562 7.5625 -10.25 C 7.1875 -10.519531 6.71875 -10.65625 6.15625 -10.65625 C 5.59375 -10.65625 5.117188 -10.519531 4.734375 -10.25 C 4.359375 -9.976562 4.066406 -9.519531 3.859375 -8.875 C 3.660156 -8.238281 3.5625 -7.378906 3.5625 -6.296875 C 3.5625 -5.210938 3.660156 -4.347656 3.859375 -3.703125 C 4.066406 -3.066406 4.359375 -2.609375 4.734375 -2.328125 C 5.117188 -2.054688 5.59375 -1.921875 6.15625 -1.921875 Z M 6.15625 -1.921875 "/></g></g></g><g clip-path="url(#611af34504)"><g clip-path="url(#972f0300b6)"><path fill="#ff0000" d="M 134.695312 36.941406 L 175.445312 36.941406 L 175.445312 72.546875 L 134.695312 72.546875 Z M 134.695312 36.941406 " fill-opacity="1" fill-rule="nonzero"/></g></g><g clip-path="url(#6109658207)"><g clip-path="url(#f7b5766696)"><path fill="#ff0000" d="M 92.097656 82.320312 L 132.84375 82.320312 L 132.84375 117.921875 L 92.097656 117.921875 Z M 92.097656 82.320312 " fill-opacity="1" fill-rule="nonzero"/></g></g><g clip-path="url(#881e5b5b02)"><g clip-path="url(#5480c71528)"><path fill="#ff0000" d="M 134.695312 117.921875 L 175.445312 117.921875 L 175.445312 153.527344 L 134.695312 153.527344 Z M 134.695312 117.921875 " fill-opacity="1" fill-rule="nonzero"/></g></g><g clip-path="url(#c448e1f915)"><g clip-path="url(#d607a9fcb8)"><path fill="#ff0000" d="M 49.496094 117.921875 L 90.242188 117.921875 L 90.242188 153.527344 L 49.496094 153.527344 Z M 49.496094 117.921875 " fill-opacity="1" fill-rule="nonzero"/></g></g><g clip-path="url(#5b87c66e25)"><g clip-path="url(#87e2aae3b4)"><path fill="#ff0000" d="M 88 222.507812 L 47.25 222.507812 L 47.25 186.90625 L 88 186.90625 Z M 88 222.507812 " fill-opacity="1" fill-rule="nonzero"/></g></g><g clip-path="url(#d4a8f45b84)"><g clip-path="url(#d1144cb316)"><path fill="#ff0000" d="M 175.382812 222.507812 L 134.636719 222.507812 L 134.636719 186.90625 L 175.382812 186.90625 Z M 175.382812 222.507812 " fill-opacity="1" fill-rule="nonzero"/></g></g><g clip-path="url(#8505dbcbbe)"><g clip-path="url(#b2b44ad9fb)"><path fill="#ff0000" d="M 132.78125 258.109375 L 92.035156 258.109375 L 92.035156 222.507812 L 132.78125 222.507812 Z M 132.78125 258.109375 " fill-opacity="1" fill-rule="nonzero"/></g></g><g clip-path="url(#e59f12e9e9)"><g clip-path="url(#d9204fcfc0)"><path fill="#ff0000" d="M 88 297.277344 L 47.25 297.277344 L 47.25 261.671875 L 88 261.671875 Z M 88 297.277344 " fill-opacity="1" fill-rule="nonzero"/></g></g><g clip-path="url(#ebcee5e29d)"><g clip-path="url(#6686c728f1)"><path fill="#ff0000" d="M 175.382812 297.277344 L 134.636719 297.277344 L 134.636719 261.671875 L 175.382812 261.671875 Z M 175.382812 297.277344 " fill-opacity="1" fill-rule="nonzero"/></g></g><g clip-path="url(#b73060ed4e)"><g clip-path="url(#f524e8b7c7)"><path fill="#ff0000" d="M 207.027344 298.085938 L 181.441406 298.085938 L 181.441406 275.730469 L 207.027344 275.730469 Z M 207.027344 298.085938 " fill-opacity="1" fill-rule="nonzero"/></g></g><g fill="#ff0000" fill-opacity="1"><g transform="translate(205.465958, 302.384902)"><g><path d="M -0.65625 0 L -0.65625 2.0625 L -3.703125 2.0625 L -3.703125 9.890625 L -3.5 9.953125 C -3.070312 9.742188 -2.648438 9.578125 -2.234375 9.453125 C -1.816406 9.335938 -1.34375 9.242188 -0.8125 9.171875 L -0.8125 11.296875 C -2.207031 11.585938 -3.332031 12.019531 -4.1875 12.59375 L -6.171875 12.59375 L -6.171875 2.0625 L -8.875 2.0625 L -8.875 0 Z M -0.65625 0 "/></g></g><g transform="translate(196.171527, 302.384902)"><g><path d="M -6.15625 -0.1875 C -5.125 -0.1875 -4.226562 0.0390625 -3.46875 0.5 C -2.707031 0.957031 -2.113281 1.664062 -1.6875 2.625 C -1.269531 3.59375 -1.0625 4.816406 -1.0625 6.296875 C -1.0625 7.773438 -1.269531 8.992188 -1.6875 9.953125 C -2.113281 10.921875 -2.707031 11.632812 -3.46875 12.09375 C -4.226562 12.550781 -5.125 12.78125 -6.15625 12.78125 C -7.1875 12.78125 -8.082031 12.550781 -8.84375 12.09375 C -9.601562 11.632812 -10.191406 10.921875 -10.609375 9.953125 C -11.035156 8.992188 -11.25 7.773438 -11.25 6.296875 C -11.25 4.816406 -11.035156 3.59375 -10.609375 2.625 C -10.191406 1.664062 -9.601562 0.957031 -8.84375 0.5 C -8.082031 0.0390625 -7.1875 -0.1875 -6.15625 -0.1875 Z M -6.15625 1.921875 C -6.71875 1.921875 -7.1875 2.054688 -7.5625 2.328125 C -7.9375 2.609375 -8.226562 3.066406 -8.4375 3.703125 C -8.644531 4.347656 -8.75 5.210938 -8.75 6.296875 C -8.75 7.378906 -8.644531 8.238281 -8.4375 8.875 C -8.226562 9.519531 -7.9375 9.976562 -7.5625 10.25 C -7.1875 10.519531 -6.71875 10.65625 -6.15625 10.65625 C -5.59375 10.65625 -5.117188 10.519531 -4.734375 10.25 C -4.359375 9.976562 -4.066406 9.519531 -3.859375 8.875 C -3.660156 8.238281 -3.5625 7.378906 -3.5625 6.296875 C -3.5625 5.210938 -3.660156 4.347656 -3.859375 3.703125 C -4.066406 3.066406 -4.359375 2.609375 -4.734375 2.328125 C -5.117188 2.054688 -5.59375 1.921875 -6.15625 1.921875 Z M -6.15625 1.921875 "/></g></g></g></svg>