<svg xmlns="http://www.w3.org/2000/svg" xmlns:xlink="http://www.w3.org/1999/xlink" width="300" zoomAndPan="magnify" viewBox="0 0 224.87999 337.499995" height="450" preserveAspectRatio="xMidYMid meet" version="1.0"><defs><g/><clipPath id="3ef4d385a1"><path d="M 9.960938 8.050781 L 214.917969 8.050781 L 214.917969 329 L 9.960938 329 Z M 9.960938 8.050781 " clip-rule="nonzero"/></clipPath><clipPath id="3e4c1bee52"><path d="M 20.445312 8.050781 L 204.433594 8.050781 C 210.226562 8.050781 214.917969 12.746094 214.917969 18.535156 L 214.917969 318.464844 C 214.917969 324.253906 210.226562 328.949219 204.433594 328.949219 L 20.445312 328.949219 C 14.65625 328.949219 9.960938 324.253906 9.960938 318.464844 L 9.960938 18.535156 C 9.960938 12.746094 14.65625 8.050781 20.445312 8.050781 Z M 20.445312 8.050781 " clip-rule="nonzero"/></clipPath><clipPath id="538003c6c4"><path d="M 9.960938 8.050781 L 215 8.050781 L 215 328.574219 L 9.960938 328.574219 Z M 9.960938 8.050781 " clip-rule="nonzero"/></clipPath><clipPath id="68d4e72225"><path d="M 20.445312 8.050781 L 204.425781 8.050781 C 210.21875 8.050781 214.910156 12.746094 214.910156 18.535156 L 214.910156 318.453125 C 214.910156 324.246094 210.21875 328.9375 204.425781 328.9375 L 20.445312 328.9375 C 14.65625 328.9375 9.960938 324.246094 9.960938 318.453125 L 9.960938 18.535156 C 9.960938 12.746094 14.65625 8.050781 20.445312 8.050781 Z M 20.445312 8.050781 " clip-rule="nonzero"/></clipPath><clipPath id="cb1dc39ede"><path d="M 92.097656 150.558594 L 132.84375 150.558594 L 132.84375 186.300781 L 92.097656 186.300781 Z M 92.097656 150.558594 " clip-rule="nonzero"/></clipPath><clipPath id="60c4d19e31"><path d="M 93.710938 156.382812 C 90.410156 161.820312 92.734375 167.109375 95.65625 169.917969 L 112.734375 186.300781 L 129.449219 169.976562 C 132.167969 166.953125 133.207031 163.75 132.628906 160.183594 C 131.832031 155.25 127.765625 151.421875 122.742188 150.875 C 119.660156 150.542969 116.683594 151.414062 114.359375 153.34375 C 113.734375 153.863281 113.175781 154.445312 112.6875 155.074219 C 112.109375 154.355469 111.433594 153.699219 110.667969 153.117188 C 107.996094 151.085938 104.59375 150.28125 101.328125 150.90625 C 98.234375 151.503906 95.457031 153.5 93.710938 156.382812 Z M 93.710938 156.382812 " clip-rule="nonzero"/></clipPath><clipPath id="3f46ddab82"><path d="M 14.90625 36.855469 L 40.492188 36.855469 L 40.492188 59.296875 L 14.90625 59.296875 Z M 14.90625 36.855469 " clip-rule="nonzero"/></clipPath><clipPath id="c3aa8474d2"><path d="M 15.917969 40.511719 C 13.847656 43.925781 15.304688 47.246094 17.140625 49.011719 L 27.863281 59.296875 L 38.359375 49.046875 C 40.066406 47.148438 40.71875 45.136719 40.355469 42.898438 C 39.855469 39.800781 37.300781 37.394531 34.148438 37.050781 C 32.210938 36.84375 30.34375 37.390625 28.882812 38.605469 C 28.492188 38.929688 28.140625 39.292969 27.835938 39.691406 C 27.472656 39.238281 27.046875 38.828125 26.566406 38.460938 C 24.886719 37.1875 22.753906 36.679688 20.703125 37.074219 C 18.757812 37.449219 17.015625 38.703125 15.917969 40.511719 Z M 15.917969 40.511719 " clip-rule="nonzero"/></clipPath><clipPath id="6bfcfafdcc"><path d="M 181.441406 275.730469 L 207.027344 275.730469 L 207.027344 298.171875 L 181.441406 298.171875 Z M 181.441406 275.730469 " clip-rule="nonzero"/></clipPath><clipPath id="c82508ad7a"><path d="M 206.015625 294.515625 C 208.085938 291.101562 206.625 287.78125 204.792969 286.019531 L 194.070312 275.730469 L 183.570312 285.980469 C 181.867188 287.878906 181.210938 289.890625 181.574219 292.128906 C 182.078125 295.226562 184.628906 297.632812 187.785156 297.976562 C 189.71875 298.183594 191.589844 297.636719 193.046875 296.425781 C 193.441406 296.097656 193.789062 295.734375 194.097656 295.335938 C 194.460938 295.789062 194.886719 296.203125 195.367188 296.566406 C 197.042969 297.839844 199.179688 298.347656 201.230469 297.953125 C 203.171875 297.578125 204.914062 296.324219 206.015625 294.515625 Z M 206.015625 294.515625 " clip-rule="nonzero"/></clipPath></defs><g clip-path="url(#3ef4d385a1)"><g clip-path="url(#3e4c1bee52)"><path fill="#ffffff" d="M 9.960938 8.050781 L 214.917969 8.050781 L 214.917969 329.097656 L 9.960938 329.097656 Z M 9.960938 8.050781 " fill-opacity="1" fill-rule="nonzero"/></g></g><g clip-path="url(#538003c6c4)"><g clip-path="url(#68d4e72225)"><path stroke-linecap="butt" transform="matrix(0.748891, 0, 0, 0.748891, 9.961128, 8.051028)" fill="none" stroke-linejoin="miter" d="M 13.999622 -0.000329615 L 259.67033 -0.000329615 C 267.405731 -0.000329615 273.670206 6.269362 273.670206 13.999547 L 273.670206 414.482599 C 273.670206 422.218001 267.405731 428.482476 259.67033 428.482476 L 13.999622 428.482476 C 6.269437 428.482476 -0.0002545 422.218001 -0.0002545 414.482599 L -0.0002545 13.999547 C -0.0002545 6.269362 6.269437 -0.000329615 13.999622 -0.000329615 Z M 13.999622 -0.000329615 " stroke="#000000" stroke-width="4" stroke-opacity="1" stroke-miterlimit="4"/></g></g><g clip-path="url(#cb1dc39ede)"><g clip-path="url(#60c4d19e31)"><path fill="#ff0000" d="M 92.097656 150.699219 L 132.84375 150.699219 L 132.84375 186.300781 L 92.097656 186.300781 Z M 92.097656 150.699219 " fill-opacity="1" fill-rule="nonzero"/></g></g><g clip-path="url(#3f46ddab82)"><g clip-path="url(#c3aa8474d2)"><path fill="#ff0000" d="M 14.90625 36.941406 L 40.492188 36.941406 L 40.492188 59.296875 L 14.90625 59.296875 Z M 14.90625 36.941406 " fill-opacity="1" fill-rule="nonzero"/></g></g><g fill="#ff0000" fill-opacity="1"><g transform="translate(21.125887, 32.643154)"><g><path d="M 12.078125 0 L 9.46875 0 L 8.515625 -2.90625 L 3.6875 -2.90625 L 2.75 0 L 0.1875 0 L 4.546875 -12.59375 L 7.734375 -12.59375 Z M 5.984375 -9.96875 L 4.359375 -5 L 7.828125 -5 L 6.203125 -9.96875 Z M 5.984375 -9.96875 "/></g></g></g><g clip-path="url(#6bfcfafdcc)"><g clip-path="url(#c82508ad7a)"><path fill="#ff0000" d="M 207.027344 298.085938 L 181.441406 298.085938 L 181.441406 275.730469 L 207.027344 275.730469 Z M 207.027344 298.085938 " fill-opacity="1" fill-rule="nonzero"/></g></g><g fill="#ff0000" fill-opacity="1"><g transform="translate(200.805821, 302.384902)"><g><path d="M -12.078125 0 L -9.46875 0 L -8.515625 2.90625 L -3.6875 2.90625 L -2.75 0 L -0.1875 0 L -4.546875 12.59375 L -7.734375 12.59375 Z M -5.984375 9.96875 L -4.359375 5 L -7.828125 5 L -6.203125 9.96875 Z M -5.984375 9.96875 "/></g></g></g></svg>