<svg xmlns="http://www.w3.org/2000/svg" xmlns:xlink="http://www.w3.org/1999/xlink" width="300" zoomAndPan="magnify" viewBox="0 0 224.87999 337.499995" height="450" preserveAspectRatio="xMidYMid meet" version="1.0"><defs><g/><clipPath id="e3892fa572"><path d="M 9.960938 8.050781 L 214.917969 8.050781 L 214.917969 329 L 9.960938 329 Z M 9.960938 8.050781 " clip-rule="nonzero"/></clipPath><clipPath id="a85e7cc046"><path d="M 20.445312 8.050781 L 204.433594 8.050781 C 210.226562 8.050781 214.917969 12.746094 214.917969 18.535156 L 214.917969 318.464844 C 214.917969 324.253906 210.226562 328.949219 204.433594 328.949219 L 20.445312 328.949219 C 14.65625 328.949219 9.960938 324.253906 9.960938 318.464844 L 9.960938 18.535156 C 9.960938 12.746094 14.65625 8.050781 20.445312 8.050781 Z M 20.445312 8.050781 " clip-rule="nonzero"/></clipPath><clipPath id="0259411250"><path d="M 9.960938 8.050781 L 215 8.050781 L 215 328.574219 L 9.960938 328.574219 Z M 9.960938 8.050781 " clip-rule="nonzero"/></clipPath><clipPath id="2fb7d13781"><path d="M 20.445312 8.050781 L 204.425781 8.050781 C 210.21875 8.050781 214.910156 12.746094 214.910156 18.535156 L 214.910156 318.453125 C 214.910156 324.246094 210.21875 328.9375 204.425781 328.9375 L 20.445312 328.9375 C 14.65625 328.9375 9.960938 324.246094 9.960938 318.453125 L 9.960938 18.535156 C 9.960938 12.746094 14.65625 8.050781 20.445312 8.050781 Z M 20.445312 8.050781 " clip-rule="nonzero"/></clipPath><clipPath id="91c4a53723"><path d="M 16.296875 36.941406 L 38.238281 36.941406 L 38.238281 58.882812 L 16.296875 58.882812 Z M 16.296875 36.941406 " clip-rule="nonzero"/></clipPath><clipPath id="bbb8af2e19"><path d="M 27.269531 58.882812 L 16.296875 47.914062 L 27.269531 36.941406 L 38.238281 47.914062 Z M 27.269531 58.882812 " clip-rule="nonzero"/></clipPath><clipPath id="dcd00f16f5"><path d="M 92.171875 148.234375 L 132.683594 148.234375 L 132.683594 188.742188 L 92.171875 188.742188 Z M 92.171875 148.234375 " clip-rule="nonzero"/></clipPath><clipPath id="18cee4777c"><path d="M 112.429688 188.742188 L 92.171875 168.488281 L 112.429688 148.234375 L 132.683594 168.488281 Z M 112.429688 188.742188 " clip-rule="nonzero"/></clipPath><clipPath id="4576a20461"><path d="M 185.167969 276.765625 L 207.113281 276.765625 L 207.113281 298.707031 L 185.167969 298.707031 Z M 185.167969 276.765625 " clip-rule="nonzero"/></clipPath><clipPath id="b0e62e385c"><path d="M 196.140625 276.765625 L 207.113281 287.734375 L 196.140625 298.707031 L 185.167969 287.734375 Z M 196.140625 276.765625 " clip-rule="nonzero"/></clipPath></defs><g clip-path="url(#e3892fa572)"><g clip-path="url(#a85e7cc046)"><path fill="#ffffff" d="M 9.960938 8.050781 L 214.917969 8.050781 L 214.917969 329.097656 L 9.960938 329.097656 Z M 9.960938 8.050781 " fill-opacity="1" fill-rule="nonzero"/></g></g><g clip-path="url(#0259411250)"><g clip-path="url(#2fb7d13781)"><path stroke-linecap="butt" transform="matrix(0.748891, 0, 0, 0.748891, 9.961128, 8.051028)" fill="none" stroke-linejoin="miter" d="M 13.999622 -0.000329615 L 259.67033 -0.000329615 C 267.405731 -0.000329615 273.670206 6.269362 273.670206 13.999547 L 273.670206 414.482599 C 273.670206 422.218001 267.405731 428.482476 259.67033 428.482476 L 13.999622 428.482476 C 6.269437 428.482476 -0.0002545 422.218001 -0.0002545 414.482599 L -0.0002545 13.999547 C -0.0002545 6.269362 6.269437 -0.000329615 13.999622 -0.000329615 Z M 13.999622 -0.000329615 " stroke="#000000" stroke-width="4" stroke-opacity="1" stroke-miterlimit="4"/></g></g><g fill="#ff0000" fill-opacity="1"><g transform="translate(21.125887, 32.643154)"><g><path d="M 12.078125 0 L 9.46875 0 L 8.515625 -2.90625 L 3.6875 -2.90625 L 2.75 0 L 0.1875 0 L 4.546875 -12.59375 L 7.734375 -12.59375 Z M 5.984375 -9.96875 L 4.359375 -5 L 7.828125 -5 L 6.203125 -9.96875 Z M 5.984375 -9.96875 "/></g></g></g><g clip-path="url(#91c4a53723)"><g clip-path="url(#bbb8af2e19)"><path fill="#ff0000" d="M 38.238281 58.882812 L 16.296875 58.882812 L 16.296875 36.941406 L 38.238281 36.941406 Z M 38.238281 58.882812 " fill-opacity="1" fill-rule="nonzero"/></g></g><g clip-path="url(#dcd00f16f5)"><g clip-path="url(#18cee4777c)"><path fill="#ff0000" d="M 132.683594 188.742188 L 92.171875 188.742188 L 92.171875 148.234375 L 132.683594 148.234375 Z M 132.683594 188.742188 " fill-opacity="1" fill-rule="nonzero"/></g></g><g fill="#ff0000" fill-opacity="1"><g transform="translate(202.283812, 303.004871)"><g><path d="M -12.078125 0 L -9.46875 0 L -8.515625 2.90625 L -3.6875 2.90625 L -2.75 0 L -0.1875 0 L -4.546875 12.59375 L -7.734375 12.59375 Z M -5.984375 9.96875 L -4.359375 5 L -7.828125 5 L -6.203125 9.96875 Z M -5.984375 9.96875 "/></g></g></g><g clip-path="url(#4576a20461)"><g clip-path="url(#b0e62e385c)"><path fill="#ff0000" d="M 185.167969 276.765625 L 207.113281 276.765625 L 207.113281 298.707031 L 185.167969 298.707031 Z M 185.167969 276.765625 " fill-opacity="1" fill-rule="nonzero"/></g></g></svg>