<svg xmlns="http://www.w3.org/2000/svg" xmlns:xlink="http://www.w3.org/1999/xlink" width="300" zoomAndPan="magnify" viewBox="0 0 224.87999 337.499995" height="450" preserveAspectRatio="xMidYMid meet" version="1.0"><defs><g/><clipPath id="406fb08b5b"><path d="M 9.960938 8.050781 L 214.917969 8.050781 L 214.917969 329 L 9.960938 329 Z M 9.960938 8.050781 " clip-rule="nonzero"/></clipPath><clipPath id="829c4374b0"><path d="M 20.445312 8.050781 L 204.433594 8.050781 C 210.226562 8.050781 214.917969 12.746094 214.917969 18.535156 L 214.917969 318.464844 C 214.917969 324.253906 210.226562 328.949219 204.433594 328.949219 L 20.445312 328.949219 C 14.65625 328.949219 9.960938 324.253906 9.960938 318.464844 L 9.960938 18.535156 C 9.960938 12.746094 14.65625 8.050781 20.445312 8.050781 Z M 20.445312 8.050781 " clip-rule="nonzero"/></clipPath><clipPath id="b5c49a7164"><path d="M 9.960938 8.050781 L 215 8.050781 L 215 328.574219 L 9.960938 328.574219 Z M 9.960938 8.050781 " clip-rule="nonzero"/></clipPath><clipPath id="2710e0e659"><path d="M 20.445312 8.050781 L 204.425781 8.050781 C 210.21875 8.050781 214.910156 12.746094 214.910156 18.535156 L 214.910156 318.453125 C 214.910156 324.246094 210.21875 328.9375 204.425781 328.9375 L 20.445312 328.9375 C 14.65625 328.9375 9.960938 324.246094 9.960938 318.453125 L 9.960938 18.535156 C 9.960938 12.746094 14.65625 8.050781 20.445312 8.050781 Z M 20.445312 8.050781 " clip-rule="nonzero"/></clipPath><clipPath id="cb0c913ef0"><path d="M 92.097656 37.617188 L 132.84375 37.617188 L 132.84375 73.359375 L 92.097656 73.359375 Z M 92.097656 37.617188 " clip-rule="nonzero"/></clipPath><clipPath id="bdb8dd3478"><path d="M 93.710938 43.441406 C 90.410156 48.875 92.734375 54.167969 95.65625 56.972656 L 112.734375 73.359375 L 129.449219 57.03125 C 132.167969 54.011719 133.207031 50.808594 132.628906 47.242188 C 131.832031 42.304688 127.765625 38.476562 122.742188 37.929688 C 119.660156 37.597656 116.683594 38.46875 114.359375 40.402344 C 113.734375 40.921875 113.175781 41.5 112.6875 42.132812 C 112.109375 41.414062 111.433594 40.757812 110.667969 40.171875 C 107.996094 38.144531 104.59375 37.335938 101.328125 37.964844 C 98.234375 38.5625 95.457031 40.558594 93.710938 43.441406 Z M 93.710938 43.441406 " clip-rule="nonzero"/></clipPath><clipPath id="aada4c562b"><path d="M 14.90625 36.855469 L 40.492188 36.855469 L 40.492188 59.296875 L 14.90625 59.296875 Z M 14.90625 36.855469 " clip-rule="nonzero"/></clipPath><clipPath id="94e1d7b2d4"><path d="M 15.917969 40.511719 C 13.847656 43.925781 15.304688 47.246094 17.140625 49.011719 L 27.863281 59.296875 L 38.359375 49.046875 C 40.066406 47.148438 40.71875 45.136719 40.355469 42.898438 C 39.855469 39.800781 37.300781 37.394531 34.148438 37.050781 C 32.210938 36.84375 30.34375 37.390625 28.882812 38.605469 C 28.492188 38.929688 28.140625 39.292969 27.835938 39.691406 C 27.472656 39.238281 27.046875 38.828125 26.566406 38.460938 C 24.886719 37.1875 22.753906 36.679688 20.703125 37.074219 C 18.757812 37.449219 17.015625 38.703125 15.917969 40.511719 Z M 15.917969 40.511719 " clip-rule="nonzero"/></clipPath><clipPath id="3c8df2e147"><path d="M 92.035156 257.933594 L 132.78125 257.933594 L 132.78125 293.675781 L 92.035156 293.675781 Z M 92.035156 257.933594 " clip-rule="nonzero"/></clipPath><clipPath id="28885c89e8"><path d="M 131.167969 287.851562 C 134.46875 282.414062 132.144531 277.125 129.222656 274.316406 L 112.144531 257.933594 L 95.429688 274.257812 C 92.710938 277.28125 91.667969 280.484375 92.25 284.050781 C 93.046875 288.984375 97.113281 292.8125 102.136719 293.359375 C 105.21875 293.691406 108.195312 292.820312 110.519531 290.890625 C 111.144531 290.371094 111.703125 289.789062 112.1875 289.160156 C 112.765625 289.878906 113.445312 290.535156 114.210938 291.117188 C 116.882812 293.148438 120.28125 293.953125 123.550781 293.328125 C 126.640625 292.730469 129.417969 290.734375 131.167969 287.851562 Z M 131.167969 287.851562 " clip-rule="nonzero"/></clipPath><clipPath id="5a4ed0980a"><path d="M 181.441406 275.730469 L 207.027344 275.730469 L 207.027344 298.171875 L 181.441406 298.171875 Z M 181.441406 275.730469 " clip-rule="nonzero"/></clipPath><clipPath id="7ea5e9a403"><path d="M 206.015625 294.515625 C 208.085938 291.101562 206.625 287.78125 204.792969 286.019531 L 194.070312 275.730469 L 183.570312 285.980469 C 181.867188 287.878906 181.210938 289.890625 181.574219 292.128906 C 182.078125 295.226562 184.628906 297.632812 187.785156 297.976562 C 189.71875 298.183594 191.589844 297.636719 193.046875 296.425781 C 193.441406 296.097656 193.789062 295.734375 194.097656 295.335938 C 194.460938 295.789062 194.886719 296.203125 195.367188 296.566406 C 197.042969 297.839844 199.179688 298.347656 201.230469 297.953125 C 203.171875 297.578125 204.914062 296.324219 206.015625 294.515625 Z M 206.015625 294.515625 " clip-rule="nonzero"/></clipPath></defs><g clip-path="url(#406fb08b5b)"><g clip-path="url(#829c4374b0)"><path fill="#ffffff" d="M 9.960938 8.050781 L 214.917969 8.050781 L 214.917969 329.097656 L 9.960938 329.097656 Z M 9.960938 8.050781 " fill-opacity="1" fill-rule="nonzero"/></g></g><g clip-path="url(#b5c49a7164)"><g clip-path="url(#2710e0e659)"><path stroke-linecap="butt" transform="matrix(0.748891, 0, 0, 0.748891, 9.961128, 8.051028)" fill="none" stroke-linejoin="miter" d="M 13.999622 -0.000329615 L 259.67033 -0.000329615 C 267.405731 -0.000329615 273.670206 6.269362 273.670206 13.999547 L 273.670206 414.482599 C 273.670206 422.218001 267.405731 428.482476 259.67033 428.482476 L 13.999622 428.482476 C 6.269437 428.482476 -0.0002545 422.218001 -0.0002545 414.482599 L -0.0002545 13.999547 C -0.0002545 6.269362 6.269437 -0.000329615 13.999622 -0.000329615 Z M 13.999622 -0.000329615 " stroke="#000000" stroke-width="4" stroke-opacity="1" stroke-miterlimit="4"/></g></g><g clip-path="url(#cb0c913ef0)"><g clip-path="url(#bdb8dd3478)"><path fill="#ff0000" d="M 92.097656 37.757812 L 132.84375 37.757812 L 132.84375 73.359375 L 92.097656 73.359375 Z M 92.097656 37.757812 " fill-opacity="1" fill-rule="nonzero"/></g></g><g clip-path="url(#aada4c562b)"><g clip-path="url(#94e1d7b2d4)"><path fill="#ff0000" d="M 14.90625 36.941406 L 40.492188 36.941406 L 40.492188 59.296875 L 14.90625 59.296875 Z M 14.90625 36.941406 " fill-opacity="1" fill-rule="nonzero"/></g></g><g fill="#ff0000" fill-opacity="1"><g transform="translate(22.349065, 32.643154)"><g><path d="M 0.609375 -1 C 0.609375 -1.695312 0.679688 -2.28125 0.828125 -2.75 C 0.984375 -3.226562 1.234375 -3.664062 1.578125 -4.0625 C 1.929688 -4.457031 2.421875 -4.878906 3.046875 -5.328125 L 4.734375 -6.546875 C 5.191406 -6.867188 5.546875 -7.148438 5.796875 -7.390625 C 6.054688 -7.640625 6.25 -7.894531 6.375 -8.15625 C 6.507812 -8.414062 6.578125 -8.71875 6.578125 -9.0625 C 6.578125 -9.570312 6.421875 -9.960938 6.109375 -10.234375 C 5.796875 -10.515625 5.332031 -10.65625 4.71875 -10.65625 C 4.113281 -10.65625 3.578125 -10.515625 3.109375 -10.234375 C 2.648438 -9.953125 2.269531 -9.5625 1.96875 -9.0625 L 1.796875 -9.03125 L 0.4375 -10.5625 C 0.882812 -11.226562 1.46875 -11.765625 2.1875 -12.171875 C 2.90625 -12.578125 3.78125 -12.78125 4.8125 -12.78125 C 5.75 -12.78125 6.535156 -12.625 7.171875 -12.3125 C 7.804688 -12 8.273438 -11.570312 8.578125 -11.03125 C 8.890625 -10.5 9.046875 -9.882812 9.046875 -9.1875 C 9.046875 -8.59375 8.921875 -8.046875 8.671875 -7.546875 C 8.421875 -7.054688 8.070312 -6.601562 7.625 -6.1875 C 7.1875 -5.769531 6.625 -5.316406 5.9375 -4.828125 L 4.4375 -3.796875 C 3.988281 -3.472656 3.675781 -3.1875 3.5 -2.9375 C 3.320312 -2.6875 3.234375 -2.398438 3.234375 -2.078125 L 8.921875 -2.078125 L 8.921875 0 L 0.609375 0 Z M 0.609375 -1 "/></g></g></g><g clip-path="url(#3c8df2e147)"><g clip-path="url(#28885c89e8)"><path fill="#ff0000" d="M 132.78125 293.535156 L 92.035156 293.535156 L 92.035156 257.933594 L 132.78125 257.933594 Z M 132.78125 293.535156 " fill-opacity="1" fill-rule="nonzero"/></g></g><g clip-path="url(#5a4ed0980a)"><g clip-path="url(#7ea5e9a403)"><path fill="#ff0000" d="M 207.027344 298.085938 L 181.441406 298.085938 L 181.441406 275.730469 L 207.027344 275.730469 Z M 207.027344 298.085938 " fill-opacity="1" fill-rule="nonzero"/></g></g><g fill="#ff0000" fill-opacity="1"><g transform="translate(199.582643, 302.384902)"><g><path d="M -0.609375 1 C -0.609375 1.695312 -0.679688 2.28125 -0.828125 2.75 C -0.984375 3.226562 -1.234375 3.664062 -1.578125 4.0625 C -1.929688 4.457031 -2.421875 4.878906 -3.046875 5.328125 L -4.734375 6.546875 C -5.191406 6.867188 -5.546875 7.148438 -5.796875 7.390625 C -6.054688 7.640625 -6.25 7.894531 -6.375 8.15625 C -6.507812 8.414062 -6.578125 8.71875 -6.578125 9.0625 C -6.578125 9.570312 -6.421875 9.960938 -6.109375 10.234375 C -5.796875 10.515625 -5.332031 10.65625 -4.71875 10.65625 C -4.113281 10.65625 -3.578125 10.515625 -3.109375 10.234375 C -2.648438 9.953125 -2.269531 9.5625 -1.96875 9.0625 L -1.796875 9.03125 L -0.4375 10.5625 C -0.882812 11.226562 -1.46875 11.765625 -2.1875 12.171875 C -2.90625 12.578125 -3.78125 12.78125 -4.8125 12.78125 C -5.75 12.78125 -6.535156 12.625 -7.171875 12.3125 C -7.804688 12 -8.273438 11.570312 -8.578125 11.03125 C -8.890625 10.5 -9.046875 9.882812 -9.046875 9.1875 C -9.046875 8.59375 -8.921875 8.046875 -8.671875 7.546875 C -8.421875 7.054688 -8.070312 6.601562 -7.625 6.1875 C -7.1875 5.769531 -6.625 5.316406 -5.9375 4.828125 L -4.4375 3.796875 C -3.988281 3.472656 -3.675781 3.1875 -3.5 2.9375 C -3.320312 2.6875 -3.234375 2.398438 -3.234375 2.078125 L -8.921875 2.078125 L -8.921875 0 L -0.609375 0 Z M -0.609375 1 "/></g></g></g></svg>