<svg xmlns="http://www.w3.org/2000/svg" xmlns:xlink="http://www.w3.org/1999/xlink" width="300" zoomAndPan="magnify" viewBox="0 0 224.87999 337.499995" height="450" preserveAspectRatio="xMidYMid meet" version="1.0"><defs><g/><clipPath id="49b7090fbd"><path d="M 9.960938 8.050781 L 214.917969 8.050781 L 214.917969 329 L 9.960938 329 Z M 9.960938 8.050781 " clip-rule="nonzero"/></clipPath><clipPath id="7015f6c740"><path d="M 20.445312 8.050781 L 204.433594 8.050781 C 210.226562 8.050781 214.917969 12.746094 214.917969 18.535156 L 214.917969 318.464844 C 214.917969 324.253906 210.226562 328.949219 204.433594 328.949219 L 20.445312 328.949219 C 14.65625 328.949219 9.960938 324.253906 9.960938 318.464844 L 9.960938 18.535156 C 9.960938 12.746094 14.65625 8.050781 20.445312 8.050781 Z M 20.445312 8.050781 " clip-rule="nonzero"/></clipPath><clipPath id="93d4dd620c"><path d="M 9.960938 8.050781 L 215 8.050781 L 215 328.574219 L 9.960938 328.574219 Z M 9.960938 8.050781 " clip-rule="nonzero"/></clipPath><clipPath id="169f26d93e"><path d="M 20.445312 8.050781 L 204.425781 8.050781 C 210.21875 8.050781 214.910156 12.746094 214.910156 18.535156 L 214.910156 318.453125 C 214.910156 324.246094 210.21875 328.9375 204.425781 328.9375 L 20.445312 328.9375 C 14.65625 328.9375 9.960938 324.246094 9.960938 318.453125 L 9.960938 18.535156 C 9.960938 12.746094 14.65625 8.050781 20.445312 8.050781 Z M 20.445312 8.050781 " clip-rule="nonzero"/></clipPath><clipPath id="a0b8e942c9"><path d="M 16.296875 36.941406 L 38.238281 36.941406 L 38.238281 58.882812 L 16.296875 58.882812 Z M 16.296875 36.941406 " clip-rule="nonzero"/></clipPath><clipPath id="c5031f70e6"><path d="M 27.269531 58.882812 L 16.296875 47.914062 L 27.269531 36.941406 L 38.238281 47.914062 Z M 27.269531 58.882812 " clip-rule="nonzero"/></clipPath><clipPath id="126f00071a"><path d="M 92.171875 38.617188 L 132.683594 38.617188 L 132.683594 79.128906 L 92.171875 79.128906 Z M 92.171875 38.617188 " clip-rule="nonzero"/></clipPath><clipPath id="178f2e404d"><path d="M 112.429688 79.128906 L 92.171875 58.875 L 112.429688 38.617188 L 132.683594 58.875 Z M 112.429688 79.128906 " clip-rule="nonzero"/></clipPath><clipPath id="0164e2cb4a"><path d="M 92.171875 250.761719 L 132.683594 250.761719 L 132.683594 291.273438 L 92.171875 291.273438 Z M 92.171875 250.761719 " clip-rule="nonzero"/></clipPath><clipPath id="47df3ca5a5"><path d="M 112.429688 291.273438 L 92.171875 271.019531 L 112.429688 250.761719 L 132.683594 271.019531 Z M 112.429688 291.273438 " clip-rule="nonzero"/></clipPath><clipPath id="bd8a1dc5a2"><path d="M 185.167969 276.765625 L 207.113281 276.765625 L 207.113281 298.707031 L 185.167969 298.707031 Z M 185.167969 276.765625 " clip-rule="nonzero"/></clipPath><clipPath id="1c6c336ed2"><path d="M 196.140625 276.765625 L 207.113281 287.734375 L 196.140625 298.707031 L 185.167969 287.734375 Z M 196.140625 276.765625 " clip-rule="nonzero"/></clipPath></defs><g clip-path="url(#49b7090fbd)"><g clip-path="url(#7015f6c740)"><path fill="#ffffff" d="M 9.960938 8.050781 L 214.917969 8.050781 L 214.917969 329.097656 L 9.960938 329.097656 Z M 9.960938 8.050781 " fill-opacity="1" fill-rule="nonzero"/></g></g><g clip-path="url(#93d4dd620c)"><g clip-path="url(#169f26d93e)"><path stroke-linecap="butt" transform="matrix(0.748891, 0, 0, 0.748891, 9.961128, 8.051028)" fill="none" stroke-linejoin="miter" d="M 13.999622 -0.000329615 L 259.67033 -0.000329615 C 267.405731 -0.000329615 273.670206 6.269362 273.670206 13.999547 L 273.670206 414.482599 C 273.670206 422.218001 267.405731 428.482476 259.67033 428.482476 L 13.999622 428.482476 C 6.269437 428.482476 -0.0002545 422.218001 -0.0002545 414.482599 L -0.0002545 13.999547 C -0.0002545 6.269362 6.269437 -0.000329615 13.999622 -0.000329615 Z M 13.999622 -0.000329615 " stroke="#000000" stroke-width="4" stroke-opacity="1" stroke-miterlimit="4"/></g></g><g fill="#ff0000" fill-opacity="1"><g transform="translate(22.349065, 32.643154)"><g><path d="M 0.609375 -1 C 0.609375 -1.695312 0.679688 -2.28125 0.828125 -2.75 C 0.984375 -3.226562 1.234375 -3.664062 1.578125 -4.0625 C 1.929688 -4.457031 2.421875 -4.878906 3.046875 -5.328125 L 4.734375 -6.546875 C 5.191406 -6.867188 5.546875 -7.148438 5.796875 -7.390625 C 6.054688 -7.640625 6.25 -7.894531 6.375 -8.15625 C 6.507812 -8.414062 6.578125 -8.71875 6.578125 -9.0625 C 6.578125 -9.570312 6.421875 -9.960938 6.109375 -10.234375 C 5.796875 -10.515625 5.332031 -10.65625 4.71875 -10.65625 C 4.113281 -10.65625 3.578125 -10.515625 3.109375 -10.234375 C 2.648438 -9.953125 2.269531 -9.5625 1.96875 -9.0625 L 1.796875 -9.03125 L 0.4375 -10.5625 C 0.882812 -11.226562 1.46875 -11.765625 2.1875 -12.171875 C 2.90625 -12.578125 3.78125 -12.78125 4.8125 -12.78125 C 5.75 -12.78125 6.535156 -12.625 7.171875 -12.3125 C 7.804688 -12 8.273438 -11.570312 8.578125 -11.03125 C 8.890625 -10.5 9.046875 -9.882812 9.046875 -9.1875 C 9.046875 -8.59375 8.921875 -8.046875 8.671875 -7.546875 C 8.421875 -7.054688 8.070312 -6.601562 7.625 -6.1875 C 7.1875 -5.769531 6.625 -5.316406 5.9375 -4.828125 L 4.4375 -3.796875 C 3.988281 -3.472656 3.675781 -3.1875 3.5 -2.9375 C 3.320312 -2.6875 3.234375 -2.398438 3.234375 -2.078125 L 8.921875 -2.078125 L 8.921875 0 L 0.609375 0 Z M 0.609375 -1 "/></g></g></g><g clip-path="url(#a0b8e942c9)"><g clip-path="url(#c5031f70e6)"><path fill="#ff0000" d="M 38.238281 58.882812 L 16.296875 58.882812 L 16.296875 36.941406 L 38.238281 36.941406 Z M 38.238281 58.882812 " fill-opacity="1" fill-rule="nonzero"/></g></g><g clip-path="url(#126f00071a)"><g clip-path="url(#178f2e404d)"><path fill="#ff0000" d="M 132.683594 79.128906 L 92.171875 79.128906 L 92.171875 38.617188 L 132.683594 38.617188 Z M 132.683594 79.128906 " fill-opacity="1" fill-rule="nonzero"/></g></g><g clip-path="url(#0164e2cb4a)"><g clip-path="url(#47df3ca5a5)"><path fill="#ff0000" d="M 132.683594 291.273438 L 92.171875 291.273438 L 92.171875 250.761719 L 132.683594 250.761719 Z M 132.683594 291.273438 " fill-opacity="1" fill-rule="nonzero"/></g></g><g fill="#ff0000" fill-opacity="1"><g transform="translate(201.060634, 303.004871)"><g><path d="M -0.609375 1 C -0.609375 1.695312 -0.679688 2.28125 -0.828125 2.75 C -0.984375 3.226562 -1.234375 3.664062 -1.578125 4.0625 C -1.929688 4.457031 -2.421875 4.878906 -3.046875 5.328125 L -4.734375 6.546875 C -5.191406 6.867188 -5.546875 7.148438 -5.796875 7.390625 C -6.054688 7.640625 -6.25 7.894531 -6.375 8.15625 C -6.507812 8.414062 -6.578125 8.71875 -6.578125 9.0625 C -6.578125 9.570312 -6.421875 9.960938 -6.109375 10.234375 C -5.796875 10.515625 -5.332031 10.65625 -4.71875 10.65625 C -4.113281 10.65625 -3.578125 10.515625 -3.109375 10.234375 C -2.648438 9.953125 -2.269531 9.5625 -1.96875 9.0625 L -1.796875 9.03125 L -0.4375 10.5625 C -0.882812 11.226562 -1.46875 11.765625 -2.1875 12.171875 C -2.90625 12.578125 -3.78125 12.78125 -4.8125 12.78125 C -5.75 12.78125 -6.535156 12.625 -7.171875 12.3125 C -7.804688 12 -8.273438 11.570312 -8.578125 11.03125 C -8.890625 10.5 -9.046875 9.882812 -9.046875 9.1875 C -9.046875 8.59375 -8.921875 8.046875 -8.671875 7.546875 C -8.421875 7.054688 -8.070312 6.601562 -7.625 6.1875 C -7.1875 5.769531 -6.625 5.316406 -5.9375 4.828125 L -4.4375 3.796875 C -3.988281 3.472656 -3.675781 3.1875 -3.5 2.9375 C -3.320312 2.6875 -3.234375 2.398438 -3.234375 2.078125 L -8.921875 2.078125 L -8.921875 0 L -0.609375 0 Z M -0.609375 1 "/></g></g></g><g clip-path="url(#bd8a1dc5a2)"><g clip-path="url(#1c6c336ed2)"><path fill="#ff0000" d="M 185.167969 276.765625 L 207.113281 276.765625 L 207.113281 298.707031 L 185.167969 298.707031 Z M 185.167969 276.765625 " fill-opacity="1" fill-rule="nonzero"/></g></g></svg>