<svg xmlns="http://www.w3.org/2000/svg" xmlns:xlink="http://www.w3.org/1999/xlink" width="300" zoomAndPan="magnify" viewBox="0 0 224.87999 337.499995" height="450" preserveAspectRatio="xMidYMid meet" version="1.0"><defs><g/><clipPath id="ef4e80bdec"><path d="M 9.960938 8.050781 L 214.917969 8.050781 L 214.917969 329 L 9.960938 329 Z M 9.960938 8.050781 " clip-rule="nonzero"/></clipPath><clipPath id="214493a4ad"><path d="M 20.445312 8.050781 L 204.433594 8.050781 C 210.226562 8.050781 214.917969 12.746094 214.917969 18.535156 L 214.917969 318.464844 C 214.917969 324.253906 210.226562 328.949219 204.433594 328.949219 L 20.445312 328.949219 C 14.65625 328.949219 9.960938 324.253906 9.960938 318.464844 L 9.960938 18.535156 C 9.960938 12.746094 14.65625 8.050781 20.445312 8.050781 Z M 20.445312 8.050781 " clip-rule="nonzero"/></clipPath><clipPath id="44c704f7ed"><path d="M 9.960938 8.050781 L 215 8.050781 L 215 328.574219 L 9.960938 328.574219 Z M 9.960938 8.050781 " clip-rule="nonzero"/></clipPath><clipPath id="280a8dd6a1"><path d="M 20.445312 8.050781 L 204.425781 8.050781 C 210.21875 8.050781 214.910156 12.746094 214.910156 18.535156 L 214.910156 318.453125 C 214.910156 324.246094 210.21875 328.9375 204.425781 328.9375 L 20.445312 328.9375 C 14.65625 328.9375 9.960938 324.246094 9.960938 318.453125 L 9.960938 18.535156 C 9.960938 12.746094 14.65625 8.050781 20.445312 8.050781 Z M 20.445312 8.050781 " clip-rule="nonzero"/></clipPath><clipPath id="438e7f9b46"><path d="M 92.097656 37.617188 L 132.84375 37.617188 L 132.84375 73.359375 L 92.097656 73.359375 Z M 92.097656 37.617188 " clip-rule="nonzero"/></clipPath><clipPath id="277ccfee04"><path d="M 93.710938 43.441406 C 90.410156 48.875 92.734375 54.167969 95.65625 56.972656 L 112.734375 73.359375 L 129.449219 57.03125 C 132.167969 54.011719 133.207031 50.808594 132.628906 47.242188 C 131.832031 42.304688 127.765625 38.476562 122.742188 37.929688 C 119.660156 37.597656 116.683594 38.46875 114.359375 40.402344 C 113.734375 40.921875 113.175781 41.5 112.6875 42.132812 C 112.109375 41.414062 111.433594 40.757812 110.667969 40.171875 C 107.996094 38.144531 104.59375 37.335938 101.328125 37.964844 C 98.234375 38.5625 95.457031 40.558594 93.710938 43.441406 Z M 93.710938 43.441406 " clip-rule="nonzero"/></clipPath><clipPath id="a4eeb0dfb0"><path d="M 14.90625 36.855469 L 40.492188 36.855469 L 40.492188 59.296875 L 14.90625 59.296875 Z M 14.90625 36.855469 " clip-rule="nonzero"/></clipPath><clipPath id="5c126a5cec"><path d="M 15.917969 40.511719 C 13.847656 43.925781 15.304688 47.246094 17.140625 49.011719 L 27.863281 59.296875 L 38.359375 49.046875 C 40.066406 47.148438 40.71875 45.136719 40.355469 42.898438 C 39.855469 39.800781 37.300781 37.394531 34.148438 37.050781 C 32.210938 36.84375 30.34375 37.390625 28.882812 38.605469 C 28.492188 38.929688 28.140625 39.292969 27.835938 39.691406 C 27.472656 39.238281 27.046875 38.828125 26.566406 38.460938 C 24.886719 37.1875 22.753906 36.679688 20.703125 37.074219 C 18.757812 37.449219 17.015625 38.703125 15.917969 40.511719 Z M 15.917969 40.511719 " clip-rule="nonzero"/></clipPath><clipPath id="f9b9baf075"><path d="M 92.097656 150.558594 L 132.84375 150.558594 L 132.84375 186.300781 L 92.097656 186.300781 Z M 92.097656 150.558594 " clip-rule="nonzero"/></clipPath><clipPath id="82c29ce2fb"><path d="M 93.710938 156.382812 C 90.410156 161.820312 92.734375 167.109375 95.65625 169.917969 L 112.734375 186.300781 L 129.449219 169.976562 C 132.167969 166.953125 133.207031 163.75 132.628906 160.183594 C 131.832031 155.25 127.765625 151.421875 122.742188 150.875 C 119.660156 150.542969 116.683594 151.414062 114.359375 153.34375 C 113.734375 153.863281 113.175781 154.445312 112.6875 155.074219 C 112.109375 154.355469 111.433594 153.699219 110.667969 153.117188 C 107.996094 151.085938 104.59375 150.28125 101.328125 150.90625 C 98.234375 151.503906 95.457031 153.5 93.710938 156.382812 Z M 93.710938 156.382812 " clip-rule="nonzero"/></clipPath><clipPath id="e0c54dc016"><path d="M 92.035156 257.933594 L 132.78125 257.933594 L 132.78125 293.675781 L 92.035156 293.675781 Z M 92.035156 257.933594 " clip-rule="nonzero"/></clipPath><clipPath id="fe5ea9c635"><path d="M 131.167969 287.851562 C 134.46875 282.414062 132.144531 277.125 129.222656 274.316406 L 112.144531 257.933594 L 95.429688 274.257812 C 92.710938 277.28125 91.667969 280.484375 92.25 284.050781 C 93.046875 288.984375 97.113281 292.8125 102.136719 293.359375 C 105.21875 293.691406 108.195312 292.820312 110.519531 290.890625 C 111.144531 290.371094 111.703125 289.789062 112.1875 289.160156 C 112.765625 289.878906 113.445312 290.535156 114.210938 291.117188 C 116.882812 293.148438 120.28125 293.953125 123.550781 293.328125 C 126.640625 292.730469 129.417969 290.734375 131.167969 287.851562 Z M 131.167969 287.851562 " clip-rule="nonzero"/></clipPath><clipPath id="b0e705b57c"><path d="M 181.441406 275.730469 L 207.027344 275.730469 L 207.027344 298.171875 L 181.441406 298.171875 Z M 181.441406 275.730469 " clip-rule="nonzero"/></clipPath><clipPath id="18c0d399c1"><path d="M 206.015625 294.515625 C 208.085938 291.101562 206.625 287.78125 204.792969 286.019531 L 194.070312 275.730469 L 183.570312 285.980469 C 181.867188 287.878906 181.210938 289.890625 181.574219 292.128906 C 182.078125 295.226562 184.628906 297.632812 187.785156 297.976562 C 189.71875 298.183594 191.589844 297.636719 193.046875 296.425781 C 193.441406 296.097656 193.789062 295.734375 194.097656 295.335938 C 194.460938 295.789062 194.886719 296.203125 195.367188 296.566406 C 197.042969 297.839844 199.179688 298.347656 201.230469 297.953125 C 203.171875 297.578125 204.914062 296.324219 206.015625 294.515625 Z M 206.015625 294.515625 " clip-rule="nonzero"/></clipPath></defs><g clip-path="url(#ef4e80bdec)"><g clip-path="url(#214493a4ad)"><path fill="#ffffff" d="M 9.960938 8.050781 L 214.917969 8.050781 L 214.917969 329.097656 L 9.960938 329.097656 Z M 9.960938 8.050781 " fill-opacity="1" fill-rule="nonzero"/></g></g><g clip-path="url(#44c704f7ed)"><g clip-path="url(#280a8dd6a1)"><path stroke-linecap="butt" transform="matrix(0.748891, 0, 0, 0.748891, 9.961128, 8.051028)" fill="none" stroke-linejoin="miter" d="M 13.999622 -0.000329615 L 259.67033 -0.000329615 C 267.405731 -0.000329615 273.670206 6.269362 273.670206 13.999547 L 273.670206 414.482599 C 273.670206 422.218001 267.405731 428.482476 259.67033 428.482476 L 13.999622 428.482476 C 6.269437 428.482476 -0.0002545 422.218001 -0.0002545 414.482599 L -0.0002545 13.999547 C -0.0002545 6.269362 6.269437 -0.000329615 13.999622 -0.000329615 Z M 13.999622 -0.000329615 " stroke="#000000" stroke-width="4" stroke-opacity="1" stroke-miterlimit="4"/></g></g><g clip-path="url(#438e7f9b46)"><g clip-path="url(#277ccfee04)"><path fill="#ff0000" d="M 92.097656 37.757812 L 132.84375 37.757812 L 132.84375 73.359375 L 92.097656 73.359375 Z M 92.097656 37.757812 " fill-opacity="1" fill-rule="nonzero"/></g></g><g clip-path="url(#a4eeb0dfb0)"><g clip-path="url(#5c126a5cec)"><path fill="#ff0000" d="M 14.90625 36.941406 L 40.492188 36.941406 L 40.492188 59.296875 L 14.90625 59.296875 Z M 14.90625 36.941406 " fill-opacity="1" fill-rule="nonzero"/></g></g><g fill="#ff0000" fill-opacity="1"><g transform="translate(22.056191, 32.643154)"><g><path d="M 5.140625 0.1875 C 3.785156 0.1875 2.710938 -0.0976562 1.921875 -0.671875 C 1.128906 -1.242188 0.625 -2.050781 0.40625 -3.09375 L 2.296875 -3.984375 L 2.5 -3.9375 C 2.707031 -3.25 3.007812 -2.742188 3.40625 -2.421875 C 3.800781 -2.109375 4.347656 -1.953125 5.046875 -1.953125 C 5.722656 -1.953125 6.238281 -2.109375 6.59375 -2.421875 C 6.945312 -2.734375 7.125 -3.191406 7.125 -3.796875 C 7.125 -4.390625 6.945312 -4.84375 6.59375 -5.15625 C 6.25 -5.476562 5.734375 -5.640625 5.046875 -5.640625 L 3.15625 -5.640625 L 3.15625 -7.578125 L 4.8125 -7.578125 C 5.375 -7.578125 5.820312 -7.71875 6.15625 -8 C 6.488281 -8.28125 6.65625 -8.679688 6.65625 -9.203125 C 6.65625 -9.710938 6.492188 -10.097656 6.171875 -10.359375 C 5.859375 -10.628906 5.429688 -10.765625 4.890625 -10.765625 C 4.328125 -10.765625 3.828125 -10.628906 3.390625 -10.359375 C 2.953125 -10.097656 2.601562 -9.742188 2.34375 -9.296875 L 2.140625 -9.265625 L 0.828125 -10.78125 C 1.273438 -11.382812 1.84375 -11.867188 2.53125 -12.234375 C 3.226562 -12.597656 4.054688 -12.78125 5.015625 -12.78125 C 6.335938 -12.78125 7.347656 -12.503906 8.046875 -11.953125 C 8.742188 -11.398438 9.09375 -10.625 9.09375 -9.625 C 9.09375 -9.019531 8.953125 -8.503906 8.671875 -8.078125 C 8.390625 -7.648438 7.984375 -7.28125 7.453125 -6.96875 L 7.453125 -6.78125 C 8.898438 -6.269531 9.625 -5.238281 9.625 -3.6875 C 9.625 -2.90625 9.457031 -2.222656 9.125 -1.640625 C 8.789062 -1.066406 8.285156 -0.617188 7.609375 -0.296875 C 6.941406 0.0234375 6.117188 0.1875 5.140625 0.1875 Z M 5.140625 0.1875 "/></g></g></g><g clip-path="url(#f9b9baf075)"><g clip-path="url(#82c29ce2fb)"><path fill="#ff0000" d="M 92.097656 150.699219 L 132.84375 150.699219 L 132.84375 186.300781 L 92.097656 186.300781 Z M 92.097656 150.699219 " fill-opacity="1" fill-rule="nonzero"/></g></g><g clip-path="url(#e0c54dc016)"><g clip-path="url(#fe5ea9c635)"><path fill="#ff0000" d="M 132.78125 293.535156 L 92.035156 293.535156 L 92.035156 257.933594 L 132.78125 257.933594 Z M 132.78125 293.535156 " fill-opacity="1" fill-rule="nonzero"/></g></g><g clip-path="url(#b0e705b57c)"><g clip-path="url(#18c0d399c1)"><path fill="#ff0000" d="M 207.027344 298.085938 L 181.441406 298.085938 L 181.441406 275.730469 L 207.027344 275.730469 Z M 207.027344 298.085938 " fill-opacity="1" fill-rule="nonzero"/></g></g><g fill="#ff0000" fill-opacity="1"><g transform="translate(199.875517, 302.384902)"><g><path d="M -5.140625 -0.1875 C -3.785156 -0.1875 -2.710938 0.0976562 -1.921875 0.671875 C -1.128906 1.242188 -0.625 2.050781 -0.40625 3.09375 L -2.296875 3.984375 L -2.5 3.9375 C -2.707031 3.25 -3.007812 2.742188 -3.40625 2.421875 C -3.800781 2.109375 -4.347656 1.953125 -5.046875 1.953125 C -5.722656 1.953125 -6.238281 2.109375 -6.59375 2.421875 C -6.945312 2.734375 -7.125 3.191406 -7.125 3.796875 C -7.125 4.390625 -6.945312 4.84375 -6.59375 5.15625 C -6.25 5.476562 -5.734375 5.640625 -5.046875 5.640625 L -3.15625 5.640625 L -3.15625 7.578125 L -4.8125 7.578125 C -5.375 7.578125 -5.820312 7.71875 -6.15625 8 C -6.488281 8.28125 -6.65625 8.679688 -6.65625 9.203125 C -6.65625 9.710938 -6.492188 10.097656 -6.171875 10.359375 C -5.859375 10.628906 -5.429688 10.765625 -4.890625 10.765625 C -4.328125 10.765625 -3.828125 10.628906 -3.390625 10.359375 C -2.953125 10.097656 -2.601562 9.742188 -2.34375 9.296875 L -2.140625 9.265625 L -0.828125 10.78125 C -1.273438 11.382812 -1.84375 11.867188 -2.53125 12.234375 C -3.226562 12.597656 -4.054688 12.78125 -5.015625 12.78125 C -6.335938 12.78125 -7.347656 12.503906 -8.046875 11.953125 C -8.742188 11.398438 -9.09375 10.625 -9.09375 9.625 C -9.09375 9.019531 -8.953125 8.503906 -8.671875 8.078125 C -8.390625 7.648438 -7.984375 7.28125 -7.453125 6.96875 L -7.453125 6.78125 C -8.898438 6.269531 -9.625 5.238281 -9.625 3.6875 C -9.625 2.90625 -9.457031 2.222656 -9.125 1.640625 C -8.789062 1.066406 -8.285156 0.617188 -7.609375 0.296875 C -6.941406 -0.0234375 -6.117188 -0.1875 -5.140625 -0.1875 Z M -5.140625 -0.1875 "/></g></g></g></svg>