<svg xmlns="http://www.w3.org/2000/svg" xmlns:xlink="http://www.w3.org/1999/xlink" width="300" zoomAndPan="magnify" viewBox="0 0 224.87999 337.499995" height="450" preserveAspectRatio="xMidYMid meet" version="1.0"><defs><g/><clipPath id="2ee1034188"><path d="M 9.960938 8.050781 L 214.917969 8.050781 L 214.917969 329 L 9.960938 329 Z M 9.960938 8.050781 " clip-rule="nonzero"/></clipPath><clipPath id="5480b3208a"><path d="M 20.445312 8.050781 L 204.433594 8.050781 C 210.226562 8.050781 214.917969 12.746094 214.917969 18.535156 L 214.917969 318.464844 C 214.917969 324.253906 210.226562 328.949219 204.433594 328.949219 L 20.445312 328.949219 C 14.65625 328.949219 9.960938 324.253906 9.960938 318.464844 L 9.960938 18.535156 C 9.960938 12.746094 14.65625 8.050781 20.445312 8.050781 Z M 20.445312 8.050781 " clip-rule="nonzero"/></clipPath><clipPath id="5e42d20cf7"><path d="M 9.960938 8.050781 L 215 8.050781 L 215 328.574219 L 9.960938 328.574219 Z M 9.960938 8.050781 " clip-rule="nonzero"/></clipPath><clipPath id="fa2ab2f3e2"><path d="M 20.445312 8.050781 L 204.425781 8.050781 C 210.21875 8.050781 214.910156 12.746094 214.910156 18.535156 L 214.910156 318.453125 C 214.910156 324.246094 210.21875 328.9375 204.425781 328.9375 L 20.445312 328.9375 C 14.65625 328.9375 9.960938 324.246094 9.960938 318.453125 L 9.960938 18.535156 C 9.960938 12.746094 14.65625 8.050781 20.445312 8.050781 Z M 20.445312 8.050781 " clip-rule="nonzero"/></clipPath><clipPath id="0856d40bc9"><path d="M 16.296875 36.941406 L 38.238281 36.941406 L 38.238281 58.882812 L 16.296875 58.882812 Z M 16.296875 36.941406 " clip-rule="nonzero"/></clipPath><clipPath id="05ceef8137"><path d="M 27.269531 58.882812 L 16.296875 47.914062 L 27.269531 36.941406 L 38.238281 47.914062 Z M 27.269531 58.882812 " clip-rule="nonzero"/></clipPath><clipPath id="941be06c3e"><path d="M 92.171875 38.617188 L 132.683594 38.617188 L 132.683594 79.128906 L 92.171875 79.128906 Z M 92.171875 38.617188 " clip-rule="nonzero"/></clipPath><clipPath id="b30c302a27"><path d="M 112.429688 79.128906 L 92.171875 58.875 L 112.429688 38.617188 L 132.683594 58.875 Z M 112.429688 79.128906 " clip-rule="nonzero"/></clipPath><clipPath id="e22fd779e5"><path d="M 92.171875 148.234375 L 132.683594 148.234375 L 132.683594 188.742188 L 92.171875 188.742188 Z M 92.171875 148.234375 " clip-rule="nonzero"/></clipPath><clipPath id="2ac26d3f87"><path d="M 112.429688 188.742188 L 92.171875 168.488281 L 112.429688 148.234375 L 132.683594 168.488281 Z M 112.429688 188.742188 " clip-rule="nonzero"/></clipPath><clipPath id="d07225b32c"><path d="M 92.171875 250.761719 L 132.683594 250.761719 L 132.683594 291.273438 L 92.171875 291.273438 Z M 92.171875 250.761719 " clip-rule="nonzero"/></clipPath><clipPath id="7cb27fadc2"><path d="M 112.429688 291.273438 L 92.171875 271.019531 L 112.429688 250.761719 L 132.683594 271.019531 Z M 112.429688 291.273438 " clip-rule="nonzero"/></clipPath><clipPath id="c256bd4499"><path d="M 185.167969 276.765625 L 207.113281 276.765625 L 207.113281 298.707031 L 185.167969 298.707031 Z M 185.167969 276.765625 " clip-rule="nonzero"/></clipPath><clipPath id="4e60517425"><path d="M 196.140625 276.765625 L 207.113281 287.734375 L 196.140625 298.707031 L 185.167969 287.734375 Z M 196.140625 276.765625 " clip-rule="nonzero"/></clipPath></defs><g clip-path="url(#2ee1034188)"><g clip-path="url(#5480b3208a)"><path fill="#ffffff" d="M 9.960938 8.050781 L 214.917969 8.050781 L 214.917969 329.097656 L 9.960938 329.097656 Z M 9.960938 8.050781 " fill-opacity="1" fill-rule="nonzero"/></g></g><g clip-path="url(#5e42d20cf7)"><g clip-path="url(#fa2ab2f3e2)"><path stroke-linecap="butt" transform="matrix(0.748891, 0, 0, 0.748891, 9.961128, 8.051028)" fill="none" stroke-linejoin="miter" d="M 13.999622 -0.000329615 L 259.67033 -0.000329615 C 267.405731 -0.000329615 273.670206 6.269362 273.670206 13.999547 L 273.670206 414.482599 C 273.670206 422.218001 267.405731 428.482476 259.67033 428.482476 L 13.999622 428.482476 C 6.269437 428.482476 -0.0002545 422.218001 -0.0002545 414.482599 L -0.0002545 13.999547 C -0.0002545 6.269362 6.269437 -0.000329615 13.999622 -0.000329615 Z M 13.999622 -0.000329615 " stroke="#000000" stroke-width="4" stroke-opacity="1" stroke-miterlimit="4"/></g></g><g fill="#ff0000" fill-opacity="1"><g transform="translate(22.056191, 32.643154)"><g><path d="M 5.140625 0.1875 C 3.785156 0.1875 2.710938 -0.0976562 1.921875 -0.671875 C 1.128906 -1.242188 0.625 -2.050781 0.40625 -3.09375 L 2.296875 -3.984375 L 2.5 -3.9375 C 2.707031 -3.25 3.007812 -2.742188 3.40625 -2.421875 C 3.800781 -2.109375 4.347656 -1.953125 5.046875 -1.953125 C 5.722656 -1.953125 6.238281 -2.109375 6.59375 -2.421875 C 6.945312 -2.734375 7.125 -3.191406 7.125 -3.796875 C 7.125 -4.390625 6.945312 -4.84375 6.59375 -5.15625 C 6.25 -5.476562 5.734375 -5.640625 5.046875 -5.640625 L 3.15625 -5.640625 L 3.15625 -7.578125 L 4.8125 -7.578125 C 5.375 -7.578125 5.820312 -7.71875 6.15625 -8 C 6.488281 -8.28125 6.65625 -8.679688 6.65625 -9.203125 C 6.65625 -9.710938 6.492188 -10.097656 6.171875 -10.359375 C 5.859375 -10.628906 5.429688 -10.765625 4.890625 -10.765625 C 4.328125 -10.765625 3.828125 -10.628906 3.390625 -10.359375 C 2.953125 -10.097656 2.601562 -9.742188 2.34375 -9.296875 L 2.140625 -9.265625 L 0.828125 -10.78125 C 1.273438 -11.382812 1.84375 -11.867188 2.53125 -12.234375 C 3.226562 -12.597656 4.054688 -12.78125 5.015625 -12.78125 C 6.335938 -12.78125 7.347656 -12.503906 8.046875 -11.953125 C 8.742188 -11.398438 9.09375 -10.625 9.09375 -9.625 C 9.09375 -9.019531 8.953125 -8.503906 8.671875 -8.078125 C 8.390625 -7.648438 7.984375 -7.28125 7.453125 -6.96875 L 7.453125 -6.78125 C 8.898438 -6.269531 9.625 -5.238281 9.625 -3.6875 C 9.625 -2.90625 9.457031 -2.222656 9.125 -1.640625 C 8.789062 -1.066406 8.285156 -0.617188 7.609375 -0.296875 C 6.941406 0.0234375 6.117188 0.1875 5.140625 0.1875 Z M 5.140625 0.1875 "/></g></g></g><g clip-path="url(#0856d40bc9)"><g clip-path="url(#05ceef8137)"><path fill="#ff0000" d="M 38.238281 58.882812 L 16.296875 58.882812 L 16.296875 36.941406 L 38.238281 36.941406 Z M 38.238281 58.882812 " fill-opacity="1" fill-rule="nonzero"/></g></g><g clip-path="url(#941be06c3e)"><g clip-path="url(#b30c302a27)"><path fill="#ff0000" d="M 132.683594 79.128906 L 92.171875 79.128906 L 92.171875 38.617188 L 132.683594 38.617188 Z M 132.683594 79.128906 " fill-opacity="1" fill-rule="nonzero"/></g></g><g clip-path="url(#e22fd779e5)"><g clip-path="url(#2ac26d3f87)"><path fill="#ff0000" d="M 132.683594 188.742188 L 92.171875 188.742188 L 92.171875 148.234375 L 132.683594 148.234375 Z M 132.683594 188.742188 " fill-opacity="1" fill-rule="nonzero"/></g></g><g clip-path="url(#d07225b32c)"><g clip-path="url(#7cb27fadc2)"><path fill="#ff0000" d="M 132.683594 291.273438 L 92.171875 291.273438 L 92.171875 250.761719 L 132.683594 250.761719 Z M 132.683594 291.273438 " fill-opacity="1" fill-rule="nonzero"/></g></g><g fill="#ff0000" fill-opacity="1"><g transform="translate(201.353508, 303.004871)"><g><path d="M -5.140625 -0.1875 C -3.785156 -0.1875 -2.710938 0.0976562 -1.921875 0.671875 C -1.128906 1.242188 -0.625 2.050781 -0.40625 3.09375 L -2.296875 3.984375 L -2.5 3.9375 C -2.707031 3.25 -3.007812 2.742188 -3.40625 2.421875 C -3.800781 2.109375 -4.347656 1.953125 -5.046875 1.953125 C -5.722656 1.953125 -6.238281 2.109375 -6.59375 2.421875 C -6.945312 2.734375 -7.125 3.191406 -7.125 3.796875 C -7.125 4.390625 -6.945312 4.84375 -6.59375 5.15625 C -6.25 5.476562 -5.734375 5.640625 -5.046875 5.640625 L -3.15625 5.640625 L -3.15625 7.578125 L -4.8125 7.578125 C -5.375 7.578125 -5.820312 7.71875 -6.15625 8 C -6.488281 8.28125 -6.65625 8.679688 -6.65625 9.203125 C -6.65625 9.710938 -6.492188 10.097656 -6.171875 10.359375 C -5.859375 10.628906 -5.429688 10.765625 -4.890625 10.765625 C -4.328125 10.765625 -3.828125 10.628906 -3.390625 10.359375 C -2.953125 10.097656 -2.601562 9.742188 -2.34375 9.296875 L -2.140625 9.265625 L -0.828125 10.78125 C -1.273438 11.382812 -1.84375 11.867188 -2.53125 12.234375 C -3.226562 12.597656 -4.054688 12.78125 -5.015625 12.78125 C -6.335938 12.78125 -7.347656 12.503906 -8.046875 11.953125 C -8.742188 11.398438 -9.09375 10.625 -9.09375 9.625 C -9.09375 9.019531 -8.953125 8.503906 -8.671875 8.078125 C -8.390625 7.648438 -7.984375 7.28125 -7.453125 6.96875 L -7.453125 6.78125 C -8.898438 6.269531 -9.625 5.238281 -9.625 3.6875 C -9.625 2.90625 -9.457031 2.222656 -9.125 1.640625 C -8.789062 1.066406 -8.285156 0.617188 -7.609375 0.296875 C -6.941406 -0.0234375 -6.117188 -0.1875 -5.140625 -0.1875 Z M -5.140625 -0.1875 "/></g></g></g><g clip-path="url(#c256bd4499)"><g clip-path="url(#4e60517425)"><path fill="#ff0000" d="M 185.167969 276.765625 L 207.113281 276.765625 L 207.113281 298.707031 L 185.167969 298.707031 Z M 185.167969 276.765625 " fill-opacity="1" fill-rule="nonzero"/></g></g></svg>