<svg xmlns="http://www.w3.org/2000/svg" xmlns:xlink="http://www.w3.org/1999/xlink" width="300" zoomAndPan="magnify" viewBox="0 0 224.87999 337.499995" height="450" preserveAspectRatio="xMidYMid meet" version="1.0"><defs><g/><clipPath id="0157860811"><path d="M 9.960938 8.050781 L 214.917969 8.050781 L 214.917969 329 L 9.960938 329 Z M 9.960938 8.050781 " clip-rule="nonzero"/></clipPath><clipPath id="4cc14f2034"><path d="M 20.445312 8.050781 L 204.433594 8.050781 C 210.226562 8.050781 214.917969 12.746094 214.917969 18.535156 L 214.917969 318.464844 C 214.917969 324.253906 210.226562 328.949219 204.433594 328.949219 L 20.445312 328.949219 C 14.65625 328.949219 9.960938 324.253906 9.960938 318.464844 L 9.960938 18.535156 C 9.960938 12.746094 14.65625 8.050781 20.445312 8.050781 Z M 20.445312 8.050781 " clip-rule="nonzero"/></clipPath><clipPath id="888edfa7c9"><path d="M 9.960938 8.050781 L 215 8.050781 L 215 328.574219 L 9.960938 328.574219 Z M 9.960938 8.050781 " clip-rule="nonzero"/></clipPath><clipPath id="cfdb634a0e"><path d="M 20.445312 8.050781 L 204.425781 8.050781 C 210.21875 8.050781 214.910156 12.746094 214.910156 18.535156 L 214.910156 318.453125 C 214.910156 324.246094 210.21875 328.9375 204.425781 328.9375 L 20.445312 328.9375 C 14.65625 328.9375 9.960938 324.246094 9.960938 318.453125 L 9.960938 18.535156 C 9.960938 12.746094 14.65625 8.050781 20.445312 8.050781 Z M 20.445312 8.050781 " clip-rule="nonzero"/></clipPath><clipPath id="d9c9045d3f"><path d="M 16.296875 36.941406 L 38.238281 36.941406 L 38.238281 58.882812 L 16.296875 58.882812 Z M 16.296875 36.941406 " clip-rule="nonzero"/></clipPath><clipPath id="f99aeb9d26"><path d="M 27.269531 58.882812 L 16.296875 47.914062 L 27.269531 36.941406 L 38.238281 47.914062 Z M 27.269531 58.882812 " clip-rule="nonzero"/></clipPath><clipPath id="26bf0b8f2c"><path d="M 49.660156 43.703125 L 90.171875 43.703125 L 90.171875 84.210938 L 49.660156 84.210938 Z M 49.660156 43.703125 " clip-rule="nonzero"/></clipPath><clipPath id="8e8bc85c77"><path d="M 69.917969 84.210938 L 49.660156 63.957031 L 69.917969 43.703125 L 90.171875 63.957031 Z M 69.917969 84.210938 " clip-rule="nonzero"/></clipPath><clipPath id="435d6ec580"><path d="M 134.683594 43.703125 L 175.195312 43.703125 L 175.195312 84.210938 L 134.683594 84.210938 Z M 134.683594 43.703125 " clip-rule="nonzero"/></clipPath><clipPath id="ce2bafeab9"><path d="M 154.941406 84.210938 L 134.683594 63.957031 L 154.941406 43.703125 L 175.195312 63.957031 Z M 154.941406 84.210938 " clip-rule="nonzero"/></clipPath><clipPath id="98298afb03"><path d="M 47.660156 250.761719 L 88.171875 250.761719 L 88.171875 291.273438 L 47.660156 291.273438 Z M 47.660156 250.761719 " clip-rule="nonzero"/></clipPath><clipPath id="b172bc67ee"><path d="M 67.914062 291.273438 L 47.660156 271.019531 L 67.914062 250.761719 L 88.171875 271.019531 Z M 67.914062 291.273438 " clip-rule="nonzero"/></clipPath><clipPath id="73a2bf0af3"><path d="M 132.683594 250.761719 L 173.195312 250.761719 L 173.195312 291.273438 L 132.683594 291.273438 Z M 132.683594 250.761719 " clip-rule="nonzero"/></clipPath><clipPath id="7f19e40e38"><path d="M 152.9375 291.273438 L 132.683594 271.019531 L 152.9375 250.761719 L 173.195312 271.019531 Z M 152.9375 291.273438 " clip-rule="nonzero"/></clipPath><clipPath id="c794856159"><path d="M 186.402344 282.929688 L 208.34375 282.929688 L 208.34375 304.871094 L 186.402344 304.871094 Z M 186.402344 282.929688 " clip-rule="nonzero"/></clipPath><clipPath id="f05c9d01e0"><path d="M 197.375 282.929688 L 208.34375 293.902344 L 197.375 304.871094 L 186.402344 293.902344 Z M 197.375 282.929688 " clip-rule="nonzero"/></clipPath></defs><g clip-path="url(#0157860811)"><g clip-path="url(#4cc14f2034)"><path fill="#ffffff" d="M 9.960938 8.050781 L 214.917969 8.050781 L 214.917969 329.097656 L 9.960938 329.097656 Z M 9.960938 8.050781 " fill-opacity="1" fill-rule="nonzero"/></g></g><g clip-path="url(#888edfa7c9)"><g clip-path="url(#cfdb634a0e)"><path stroke-linecap="butt" transform="matrix(0.748891, 0, 0, 0.748891, 9.961128, 8.051028)" fill="none" stroke-linejoin="miter" d="M 13.999622 -0.000329615 L 259.67033 -0.000329615 C 267.405731 -0.000329615 273.670206 6.269362 273.670206 13.999547 L 273.670206 414.482599 C 273.670206 422.218001 267.405731 428.482476 259.67033 428.482476 L 13.999622 428.482476 C 6.269437 428.482476 -0.0002545 422.218001 -0.0002545 414.482599 L -0.0002545 13.999547 C -0.0002545 6.269362 6.269437 -0.000329615 13.999622 -0.000329615 Z M 13.999622 -0.000329615 " stroke="#000000" stroke-width="4" stroke-opacity="1" stroke-miterlimit="4"/></g></g><g fill="#ff0000" fill-opacity="1"><g transform="translate(21.780545, 32.643154)"><g><path d="M 8.546875 0 L 6.171875 0 L 6.171875 -2.734375 L 0.4375 -2.734375 L 0.4375 -4.75 L 5.359375 -12.59375 L 8.546875 -12.59375 L 8.546875 -4.75 L 10.484375 -4.75 L 10.484375 -2.734375 L 8.546875 -2.734375 Z M 2.984375 -4.921875 L 3.0625 -4.75 L 6.171875 -4.75 L 6.171875 -9.625 L 5.96875 -9.65625 Z M 2.984375 -4.921875 "/></g></g></g><g clip-path="url(#d9c9045d3f)"><g clip-path="url(#f99aeb9d26)"><path fill="#ff0000" d="M 38.238281 58.882812 L 16.296875 58.882812 L 16.296875 36.941406 L 38.238281 36.941406 Z M 38.238281 58.882812 " fill-opacity="1" fill-rule="nonzero"/></g></g><g clip-path="url(#26bf0b8f2c)"><g clip-path="url(#8e8bc85c77)"><path fill="#ff0000" d="M 90.171875 84.210938 L 49.660156 84.210938 L 49.660156 43.703125 L 90.171875 43.703125 Z M 90.171875 84.210938 " fill-opacity="1" fill-rule="nonzero"/></g></g><g clip-path="url(#435d6ec580)"><g clip-path="url(#ce2bafeab9)"><path fill="#ff0000" d="M 175.195312 84.210938 L 134.683594 84.210938 L 134.683594 43.703125 L 175.195312 43.703125 Z M 175.195312 84.210938 " fill-opacity="1" fill-rule="nonzero"/></g></g><g clip-path="url(#98298afb03)"><g clip-path="url(#b172bc67ee)"><path fill="#ff0000" d="M 88.171875 291.273438 L 47.660156 291.273438 L 47.660156 250.761719 L 88.171875 250.761719 Z M 88.171875 291.273438 " fill-opacity="1" fill-rule="nonzero"/></g></g><g clip-path="url(#73a2bf0af3)"><g clip-path="url(#7f19e40e38)"><path fill="#ff0000" d="M 173.195312 291.273438 L 132.683594 291.273438 L 132.683594 250.761719 L 173.195312 250.761719 Z M 173.195312 291.273438 " fill-opacity="1" fill-rule="nonzero"/></g></g><g fill="#ff0000" fill-opacity="1"><g transform="translate(202.86241, 309.171194)"><g><path d="M -8.546875 0 L -6.171875 0 L -6.171875 2.734375 L -0.4375 2.734375 L -0.4375 4.75 L -5.359375 12.59375 L -8.546875 12.59375 L -8.546875 4.75 L -10.484375 4.75 L -10.484375 2.734375 L -8.546875 2.734375 Z M -2.984375 4.921875 L -3.0625 4.75 L -6.171875 4.75 L -6.171875 9.625 L -5.96875 9.65625 Z M -2.984375 4.921875 "/></g></g></g><g clip-path="url(#c794856159)"><g clip-path="url(#f05c9d01e0)"><path fill="#ff0000" d="M 186.402344 282.929688 L 208.34375 282.929688 L 208.34375 304.871094 L 186.402344 304.871094 Z M 186.402344 282.929688 " fill-opacity="1" fill-rule="nonzero"/></g></g></svg>