<svg xmlns="http://www.w3.org/2000/svg" xmlns:xlink="http://www.w3.org/1999/xlink" width="300" zoomAndPan="magnify" viewBox="0 0 224.87999 337.499995" height="450" preserveAspectRatio="xMidYMid meet" version="1.0"><defs><g/><clipPath id="37141f9e0d"><path d="M 9.960938 8.050781 L 214.917969 8.050781 L 214.917969 329 L 9.960938 329 Z M 9.960938 8.050781 " clip-rule="nonzero"/></clipPath><clipPath id="7b517a2c29"><path d="M 20.445312 8.050781 L 204.433594 8.050781 C 210.226562 8.050781 214.917969 12.746094 214.917969 18.535156 L 214.917969 318.464844 C 214.917969 324.253906 210.226562 328.949219 204.433594 328.949219 L 20.445312 328.949219 C 14.65625 328.949219 9.960938 324.253906 9.960938 318.464844 L 9.960938 18.535156 C 9.960938 12.746094 14.65625 8.050781 20.445312 8.050781 Z M 20.445312 8.050781 " clip-rule="nonzero"/></clipPath><clipPath id="b8d7d17a93"><path d="M 9.960938 8.050781 L 215 8.050781 L 215 328.574219 L 9.960938 328.574219 Z M 9.960938 8.050781 " clip-rule="nonzero"/></clipPath><clipPath id="aadc8d4683"><path d="M 20.445312 8.050781 L 204.425781 8.050781 C 210.21875 8.050781 214.910156 12.746094 214.910156 18.535156 L 214.910156 318.453125 C 214.910156 324.246094 210.21875 328.9375 204.425781 328.9375 L 20.445312 328.9375 C 14.65625 328.9375 9.960938 324.246094 9.960938 318.453125 L 9.960938 18.535156 C 9.960938 12.746094 14.65625 8.050781 20.445312 8.050781 Z M 20.445312 8.050781 " clip-rule="nonzero"/></clipPath><clipPath id="7432f851fa"><path d="M 49.496094 36.804688 L 90.242188 36.804688 L 90.242188 72.546875 L 49.496094 72.546875 Z M 49.496094 36.804688 " clip-rule="nonzero"/></clipPath><clipPath id="21228595f4"><path d="M 51.109375 42.628906 C 47.808594 48.0625 50.132812 53.351562 53.054688 56.160156 L 70.132812 72.546875 L 86.847656 56.21875 C 89.566406 53.199219 90.605469 49.996094 90.027344 46.425781 C 89.230469 41.492188 85.164062 37.664062 80.140625 37.117188 C 77.058594 36.785156 74.082031 37.65625 71.757812 39.585938 C 71.132812 40.105469 70.574219 40.6875 70.089844 41.320312 C 69.511719 40.601562 68.832031 39.941406 68.066406 39.359375 C 65.394531 37.332031 61.996094 36.523438 58.726562 37.152344 C 55.632812 37.75 52.859375 39.746094 51.109375 42.628906 Z M 51.109375 42.628906 " clip-rule="nonzero"/></clipPath><clipPath id="236002adbc"><path d="M 14.90625 36.855469 L 40.492188 36.855469 L 40.492188 59.296875 L 14.90625 59.296875 Z M 14.90625 36.855469 " clip-rule="nonzero"/></clipPath><clipPath id="ddc09f0954"><path d="M 15.917969 40.511719 C 13.847656 43.925781 15.304688 47.246094 17.140625 49.011719 L 27.863281 59.296875 L 38.359375 49.046875 C 40.066406 47.148438 40.71875 45.136719 40.355469 42.898438 C 39.855469 39.800781 37.300781 37.394531 34.148438 37.050781 C 32.210938 36.84375 30.34375 37.390625 28.882812 38.605469 C 28.492188 38.929688 28.140625 39.292969 27.835938 39.691406 C 27.472656 39.238281 27.046875 38.828125 26.566406 38.460938 C 24.886719 37.1875 22.753906 36.679688 20.703125 37.074219 C 18.757812 37.449219 17.015625 38.703125 15.917969 40.511719 Z M 15.917969 40.511719 " clip-rule="nonzero"/></clipPath><clipPath id="f42b2a04fd"><path d="M 134.695312 36.804688 L 175.445312 36.804688 L 175.445312 72.546875 L 134.695312 72.546875 Z M 134.695312 36.804688 " clip-rule="nonzero"/></clipPath><clipPath id="59c249616d"><path d="M 136.308594 42.628906 C 133.011719 48.0625 135.335938 53.351562 138.253906 56.160156 L 155.332031 72.546875 L 172.050781 56.21875 C 174.765625 53.199219 175.808594 49.996094 175.230469 46.425781 C 174.429688 41.492188 170.363281 37.664062 165.339844 37.117188 C 162.261719 36.785156 159.285156 37.65625 156.960938 39.585938 C 156.335938 40.105469 155.777344 40.6875 155.289062 41.320312 C 154.710938 40.601562 154.035156 39.941406 153.265625 39.359375 C 150.597656 37.332031 147.195312 36.523438 143.929688 37.152344 C 140.835938 37.75 138.058594 39.746094 136.308594 42.628906 Z M 136.308594 42.628906 " clip-rule="nonzero"/></clipPath><clipPath id="0c93e1f5a9"><path d="M 92.097656 150.558594 L 132.84375 150.558594 L 132.84375 186.300781 L 92.097656 186.300781 Z M 92.097656 150.558594 " clip-rule="nonzero"/></clipPath><clipPath id="648bf19c89"><path d="M 93.710938 156.382812 C 90.410156 161.820312 92.734375 167.109375 95.65625 169.917969 L 112.734375 186.300781 L 129.449219 169.976562 C 132.167969 166.953125 133.207031 163.75 132.628906 160.183594 C 131.832031 155.25 127.765625 151.421875 122.742188 150.875 C 119.660156 150.542969 116.683594 151.414062 114.359375 153.34375 C 113.734375 153.863281 113.175781 154.445312 112.6875 155.074219 C 112.109375 154.355469 111.433594 153.699219 110.667969 153.117188 C 107.996094 151.085938 104.59375 150.28125 101.328125 150.90625 C 98.234375 151.503906 95.457031 153.5 93.710938 156.382812 Z M 93.710938 156.382812 " clip-rule="nonzero"/></clipPath><clipPath id="6d8420a112"><path d="M 47.25 261.671875 L 88 261.671875 L 88 297.414062 L 47.25 297.414062 Z M 47.25 261.671875 " clip-rule="nonzero"/></clipPath><clipPath id="f93bee29c1"><path d="M 86.386719 291.589844 C 89.683594 286.15625 87.359375 280.867188 84.441406 278.058594 L 67.363281 261.671875 L 50.644531 278 C 47.929688 281.019531 46.886719 284.222656 47.464844 287.792969 C 48.265625 292.726562 52.332031 296.554688 57.355469 297.101562 C 60.4375 297.433594 63.414062 296.5625 65.734375 294.632812 C 66.359375 294.113281 66.917969 293.53125 67.40625 292.898438 C 67.984375 293.617188 68.664062 294.277344 69.429688 294.859375 C 72.101562 296.890625 75.5 297.695312 78.765625 297.066406 C 81.859375 296.46875 84.636719 294.476562 86.386719 291.589844 Z M 86.386719 291.589844 " clip-rule="nonzero"/></clipPath><clipPath id="56952f820b"><path d="M 134.632812 261.671875 L 175.382812 261.671875 L 175.382812 297.414062 L 134.632812 297.414062 Z M 134.632812 261.671875 " clip-rule="nonzero"/></clipPath><clipPath id="4afb6235e7"><path d="M 173.769531 291.589844 C 177.070312 286.15625 174.746094 280.867188 171.824219 278.058594 L 154.746094 261.671875 L 138.027344 278 C 135.3125 281.019531 134.269531 284.222656 134.847656 287.792969 C 135.648438 292.726562 139.714844 296.554688 144.738281 297.101562 C 147.820312 297.433594 150.796875 296.5625 153.117188 294.632812 C 153.742188 294.113281 154.300781 293.53125 154.789062 292.898438 C 155.367188 293.617188 156.046875 294.277344 156.8125 294.859375 C 159.484375 296.890625 162.882812 297.695312 166.148438 297.066406 C 169.242188 296.46875 172.019531 294.476562 173.769531 291.589844 Z M 173.769531 291.589844 " clip-rule="nonzero"/></clipPath><clipPath id="8130db2cc9"><path d="M 181.441406 275.730469 L 207.027344 275.730469 L 207.027344 298.171875 L 181.441406 298.171875 Z M 181.441406 275.730469 " clip-rule="nonzero"/></clipPath><clipPath id="960f05c8fb"><path d="M 206.015625 294.515625 C 208.085938 291.101562 206.625 287.78125 204.792969 286.019531 L 194.070312 275.730469 L 183.570312 285.980469 C 181.867188 287.878906 181.210938 289.890625 181.574219 292.128906 C 182.078125 295.226562 184.628906 297.632812 187.785156 297.976562 C 189.71875 298.183594 191.589844 297.636719 193.046875 296.425781 C 193.441406 296.097656 193.789062 295.734375 194.097656 295.335938 C 194.460938 295.789062 194.886719 296.203125 195.367188 296.566406 C 197.042969 297.839844 199.179688 298.347656 201.230469 297.953125 C 203.171875 297.578125 204.914062 296.324219 206.015625 294.515625 Z M 206.015625 294.515625 " clip-rule="nonzero"/></clipPath></defs><g clip-path="url(#37141f9e0d)"><g clip-path="url(#7b517a2c29)"><path fill="#ffffff" d="M 9.960938 8.050781 L 214.917969 8.050781 L 214.917969 329.097656 L 9.960938 329.097656 Z M 9.960938 8.050781 " fill-opacity="1" fill-rule="nonzero"/></g></g><g clip-path="url(#b8d7d17a93)"><g clip-path="url(#aadc8d4683)"><path stroke-linecap="butt" transform="matrix(0.748891, 0, 0, 0.748891, 9.961128, 8.051028)" fill="none" stroke-linejoin="miter" d="M 13.999622 -0.000329615 L 259.67033 -0.000329615 C 267.405731 -0.000329615 273.670206 6.269362 273.670206 13.999547 L 273.670206 414.482599 C 273.670206 422.218001 267.405731 428.482476 259.67033 428.482476 L 13.999622 428.482476 C 6.269437 428.482476 -0.0002545 422.218001 -0.0002545 414.482599 L -0.0002545 13.999547 C -0.0002545 6.269362 6.269437 -0.000329615 13.999622 -0.000329615 Z M 13.999622 -0.000329615 " stroke="#000000" stroke-width="4" stroke-opacity="1" stroke-miterlimit="4"/></g></g><g clip-path="url(#7432f851fa)"><g clip-path="url(#21228595f4)"><path fill="#ff0000" d="M 49.496094 36.941406 L 90.242188 36.941406 L 90.242188 72.546875 L 49.496094 72.546875 Z M 49.496094 36.941406 " fill-opacity="1" fill-rule="nonzero"/></g></g><g clip-path="url(#236002adbc)"><g clip-path="url(#ddc09f0954)"><path fill="#ff0000" d="M 14.90625 36.941406 L 40.492188 36.941406 L 40.492188 59.296875 L 14.90625 59.296875 Z M 14.90625 36.941406 " fill-opacity="1" fill-rule="nonzero"/></g></g><g fill="#ff0000" fill-opacity="1"><g transform="translate(21.961438, 32.643154)"><g><path d="M 5.25 0.1875 C 3.988281 0.1875 2.988281 -0.078125 2.25 -0.609375 C 1.507812 -1.140625 1.03125 -1.878906 0.8125 -2.828125 L 2.703125 -3.65625 L 2.890625 -3.625 C 3.078125 -3.070312 3.351562 -2.65625 3.71875 -2.375 C 4.082031 -2.09375 4.582031 -1.953125 5.21875 -1.953125 C 5.875 -1.953125 6.378906 -2.132812 6.734375 -2.5 C 7.085938 -2.875 7.265625 -3.429688 7.265625 -4.171875 C 7.265625 -4.910156 7.085938 -5.46875 6.734375 -5.84375 C 6.378906 -6.226562 5.898438 -6.421875 5.296875 -6.421875 C 4.828125 -6.421875 4.4375 -6.316406 4.125 -6.109375 C 3.8125 -5.910156 3.546875 -5.613281 3.328125 -5.21875 L 1.28125 -5.359375 L 1.53125 -12.59375 L 9.03125 -12.59375 L 9.03125 -10.5 L 3.625 -10.5 L 3.5 -7.28125 L 3.6875 -7.25 C 3.976562 -7.632812 4.328125 -7.925781 4.734375 -8.125 C 5.140625 -8.320312 5.628906 -8.421875 6.203125 -8.421875 C 6.921875 -8.421875 7.546875 -8.257812 8.078125 -7.9375 C 8.617188 -7.625 9.035156 -7.148438 9.328125 -6.515625 C 9.628906 -5.890625 9.78125 -5.125 9.78125 -4.21875 C 9.78125 -3.289062 9.601562 -2.5 9.25 -1.84375 C 8.894531 -1.1875 8.378906 -0.679688 7.703125 -0.328125 C 7.023438 0.015625 6.207031 0.1875 5.25 0.1875 Z M 5.25 0.1875 "/></g></g></g><g clip-path="url(#f42b2a04fd)"><g clip-path="url(#59c249616d)"><path fill="#ff0000" d="M 134.695312 36.941406 L 175.445312 36.941406 L 175.445312 72.546875 L 134.695312 72.546875 Z M 134.695312 36.941406 " fill-opacity="1" fill-rule="nonzero"/></g></g><g clip-path="url(#0c93e1f5a9)"><g clip-path="url(#648bf19c89)"><path fill="#ff0000" d="M 92.097656 150.699219 L 132.84375 150.699219 L 132.84375 186.300781 L 92.097656 186.300781 Z M 92.097656 150.699219 " fill-opacity="1" fill-rule="nonzero"/></g></g><g clip-path="url(#6d8420a112)"><g clip-path="url(#f93bee29c1)"><path fill="#ff0000" d="M 88 297.277344 L 47.25 297.277344 L 47.25 261.671875 L 88 261.671875 Z M 88 297.277344 " fill-opacity="1" fill-rule="nonzero"/></g></g><g clip-path="url(#56952f820b)"><g clip-path="url(#4afb6235e7)"><path fill="#ff0000" d="M 175.382812 297.277344 L 134.636719 297.277344 L 134.636719 261.671875 L 175.382812 261.671875 Z M 175.382812 297.277344 " fill-opacity="1" fill-rule="nonzero"/></g></g><g clip-path="url(#8130db2cc9)"><g clip-path="url(#960f05c8fb)"><path fill="#ff0000" d="M 207.027344 298.085938 L 181.441406 298.085938 L 181.441406 275.730469 L 207.027344 275.730469 Z M 207.027344 298.085938 " fill-opacity="1" fill-rule="nonzero"/></g></g><g fill="#ff0000" fill-opacity="1"><g transform="translate(199.97027, 302.384902)"><g><path d="M -5.25 -0.1875 C -3.988281 -0.1875 -2.988281 0.078125 -2.25 0.609375 C -1.507812 1.140625 -1.03125 1.878906 -0.8125 2.828125 L -2.703125 3.65625 L -2.890625 3.625 C -3.078125 3.070312 -3.351562 2.65625 -3.71875 2.375 C -4.082031 2.09375 -4.582031 1.953125 -5.21875 1.953125 C -5.875 1.953125 -6.378906 2.132812 -6.734375 2.5 C -7.085938 2.875 -7.265625 3.429688 -7.265625 4.171875 C -7.265625 4.910156 -7.085938 5.46875 -6.734375 5.84375 C -6.378906 6.226562 -5.898438 6.421875 -5.296875 6.421875 C -4.828125 6.421875 -4.4375 6.316406 -4.125 6.109375 C -3.8125 5.910156 -3.546875 5.613281 -3.328125 5.21875 L -1.28125 5.359375 L -1.53125 12.59375 L -9.03125 12.59375 L -9.03125 10.5 L -3.625 10.5 L -3.5 7.28125 L -3.6875 7.25 C -3.976562 7.632812 -4.328125 7.925781 -4.734375 8.125 C -5.140625 8.320312 -5.628906 8.421875 -6.203125 8.421875 C -6.921875 8.421875 -7.546875 8.257812 -8.078125 7.9375 C -8.617188 7.625 -9.035156 7.148438 -9.328125 6.515625 C -9.628906 5.890625 -9.78125 5.125 -9.78125 4.21875 C -9.78125 3.289062 -9.601562 2.5 -9.25 1.84375 C -8.894531 1.1875 -8.378906 0.679688 -7.703125 0.328125 C -7.023438 -0.015625 -6.207031 -0.1875 -5.25 -0.1875 Z M -5.25 -0.1875 "/></g></g></g></svg>