<svg xmlns="http://www.w3.org/2000/svg" xmlns:xlink="http://www.w3.org/1999/xlink" width="300" zoomAndPan="magnify" viewBox="0 0 224.87999 337.499995" height="450" preserveAspectRatio="xMidYMid meet" version="1.0"><defs><g/><clipPath id="c6f37a9d8e"><path d="M 9.960938 8.050781 L 214.917969 8.050781 L 214.917969 329 L 9.960938 329 Z M 9.960938 8.050781 " clip-rule="nonzero"/></clipPath><clipPath id="9dba818cb1"><path d="M 20.445312 8.050781 L 204.433594 8.050781 C 210.226562 8.050781 214.917969 12.746094 214.917969 18.535156 L 214.917969 318.464844 C 214.917969 324.253906 210.226562 328.949219 204.433594 328.949219 L 20.445312 328.949219 C 14.65625 328.949219 9.960938 324.253906 9.960938 318.464844 L 9.960938 18.535156 C 9.960938 12.746094 14.65625 8.050781 20.445312 8.050781 Z M 20.445312 8.050781 " clip-rule="nonzero"/></clipPath><clipPath id="fe4bad7001"><path d="M 9.960938 8.050781 L 215 8.050781 L 215 328.574219 L 9.960938 328.574219 Z M 9.960938 8.050781 " clip-rule="nonzero"/></clipPath><clipPath id="52a4689cfd"><path d="M 20.445312 8.050781 L 204.425781 8.050781 C 210.21875 8.050781 214.910156 12.746094 214.910156 18.535156 L 214.910156 318.453125 C 214.910156 324.246094 210.21875 328.9375 204.425781 328.9375 L 20.445312 328.9375 C 14.65625 328.9375 9.960938 324.246094 9.960938 318.453125 L 9.960938 18.535156 C 9.960938 12.746094 14.65625 8.050781 20.445312 8.050781 Z M 20.445312 8.050781 " clip-rule="nonzero"/></clipPath><clipPath id="2585ae9c9a"><path d="M 16.296875 36.941406 L 38.238281 36.941406 L 38.238281 58.882812 L 16.296875 58.882812 Z M 16.296875 36.941406 " clip-rule="nonzero"/></clipPath><clipPath id="749b321a9c"><path d="M 27.269531 58.882812 L 16.296875 47.914062 L 27.269531 36.941406 L 38.238281 47.914062 Z M 27.269531 58.882812 " clip-rule="nonzero"/></clipPath><clipPath id="34cd5517e2"><path d="M 49.660156 43.703125 L 90.171875 43.703125 L 90.171875 84.210938 L 49.660156 84.210938 Z M 49.660156 43.703125 " clip-rule="nonzero"/></clipPath><clipPath id="fa62e5acf7"><path d="M 69.917969 84.210938 L 49.660156 63.957031 L 69.917969 43.703125 L 90.171875 63.957031 Z M 69.917969 84.210938 " clip-rule="nonzero"/></clipPath><clipPath id="55db5e12c6"><path d="M 134.683594 43.703125 L 175.195312 43.703125 L 175.195312 84.210938 L 134.683594 84.210938 Z M 134.683594 43.703125 " clip-rule="nonzero"/></clipPath><clipPath id="10fd3e524e"><path d="M 154.941406 84.210938 L 134.683594 63.957031 L 154.941406 43.703125 L 175.195312 63.957031 Z M 154.941406 84.210938 " clip-rule="nonzero"/></clipPath><clipPath id="22a972e0a6"><path d="M 92.171875 148.234375 L 132.683594 148.234375 L 132.683594 188.742188 L 92.171875 188.742188 Z M 92.171875 148.234375 " clip-rule="nonzero"/></clipPath><clipPath id="3937c240dd"><path d="M 112.429688 188.742188 L 92.171875 168.488281 L 112.429688 148.234375 L 132.683594 168.488281 Z M 112.429688 188.742188 " clip-rule="nonzero"/></clipPath><clipPath id="a72ac56c8e"><path d="M 47.660156 250.761719 L 88.171875 250.761719 L 88.171875 291.273438 L 47.660156 291.273438 Z M 47.660156 250.761719 " clip-rule="nonzero"/></clipPath><clipPath id="f940d87ad9"><path d="M 67.914062 291.273438 L 47.660156 271.019531 L 67.914062 250.761719 L 88.171875 271.019531 Z M 67.914062 291.273438 " clip-rule="nonzero"/></clipPath><clipPath id="39e3a1f3e4"><path d="M 132.683594 250.761719 L 173.195312 250.761719 L 173.195312 291.273438 L 132.683594 291.273438 Z M 132.683594 250.761719 " clip-rule="nonzero"/></clipPath><clipPath id="c037088f24"><path d="M 152.9375 291.273438 L 132.683594 271.019531 L 152.9375 250.761719 L 173.195312 271.019531 Z M 152.9375 291.273438 " clip-rule="nonzero"/></clipPath><clipPath id="6932db12b6"><path d="M 185.785156 277.382812 L 207.726562 277.382812 L 207.726562 299.324219 L 185.785156 299.324219 Z M 185.785156 277.382812 " clip-rule="nonzero"/></clipPath><clipPath id="06721ffb15"><path d="M 196.757812 277.382812 L 207.726562 288.351562 L 196.757812 299.324219 L 185.785156 288.351562 Z M 196.757812 277.382812 " clip-rule="nonzero"/></clipPath></defs><g clip-path="url(#c6f37a9d8e)"><g clip-path="url(#9dba818cb1)"><path fill="#ffffff" d="M 9.960938 8.050781 L 214.917969 8.050781 L 214.917969 329.097656 L 9.960938 329.097656 Z M 9.960938 8.050781 " fill-opacity="1" fill-rule="nonzero"/></g></g><g clip-path="url(#fe4bad7001)"><g clip-path="url(#52a4689cfd)"><path stroke-linecap="butt" transform="matrix(0.748891, 0, 0, 0.748891, 9.961128, 8.051028)" fill="none" stroke-linejoin="miter" d="M 13.999622 -0.000329615 L 259.67033 -0.000329615 C 267.405731 -0.000329615 273.670206 6.269362 273.670206 13.999547 L 273.670206 414.482599 C 273.670206 422.218001 267.405731 428.482476 259.67033 428.482476 L 13.999622 428.482476 C 6.269437 428.482476 -0.0002545 422.218001 -0.0002545 414.482599 L -0.0002545 13.999547 C -0.0002545 6.269362 6.269437 -0.000329615 13.999622 -0.000329615 Z M 13.999622 -0.000329615 " stroke="#000000" stroke-width="4" stroke-opacity="1" stroke-miterlimit="4"/></g></g><g fill="#ff0000" fill-opacity="1"><g transform="translate(21.961438, 32.643154)"><g><path d="M 5.25 0.1875 C 3.988281 0.1875 2.988281 -0.078125 2.25 -0.609375 C 1.507812 -1.140625 1.03125 -1.878906 0.8125 -2.828125 L 2.703125 -3.65625 L 2.890625 -3.625 C 3.078125 -3.070312 3.351562 -2.65625 3.71875 -2.375 C 4.082031 -2.09375 4.582031 -1.953125 5.21875 -1.953125 C 5.875 -1.953125 6.378906 -2.132812 6.734375 -2.5 C 7.085938 -2.875 7.265625 -3.429688 7.265625 -4.171875 C 7.265625 -4.910156 7.085938 -5.46875 6.734375 -5.84375 C 6.378906 -6.226562 5.898438 -6.421875 5.296875 -6.421875 C 4.828125 -6.421875 4.4375 -6.316406 4.125 -6.109375 C 3.8125 -5.910156 3.546875 -5.613281 3.328125 -5.21875 L 1.28125 -5.359375 L 1.53125 -12.59375 L 9.03125 -12.59375 L 9.03125 -10.5 L 3.625 -10.5 L 3.5 -7.28125 L 3.6875 -7.25 C 3.976562 -7.632812 4.328125 -7.925781 4.734375 -8.125 C 5.140625 -8.320312 5.628906 -8.421875 6.203125 -8.421875 C 6.921875 -8.421875 7.546875 -8.257812 8.078125 -7.9375 C 8.617188 -7.625 9.035156 -7.148438 9.328125 -6.515625 C 9.628906 -5.890625 9.78125 -5.125 9.78125 -4.21875 C 9.78125 -3.289062 9.601562 -2.5 9.25 -1.84375 C 8.894531 -1.1875 8.378906 -0.679688 7.703125 -0.328125 C 7.023438 0.015625 6.207031 0.1875 5.25 0.1875 Z M 5.25 0.1875 "/></g></g></g><g clip-path="url(#2585ae9c9a)"><g clip-path="url(#749b321a9c)"><path fill="#ff0000" d="M 38.238281 58.882812 L 16.296875 58.882812 L 16.296875 36.941406 L 38.238281 36.941406 Z M 38.238281 58.882812 " fill-opacity="1" fill-rule="nonzero"/></g></g><g clip-path="url(#34cd5517e2)"><g clip-path="url(#fa62e5acf7)"><path fill="#ff0000" d="M 90.171875 84.210938 L 49.660156 84.210938 L 49.660156 43.703125 L 90.171875 43.703125 Z M 90.171875 84.210938 " fill-opacity="1" fill-rule="nonzero"/></g></g><g clip-path="url(#55db5e12c6)"><g clip-path="url(#10fd3e524e)"><path fill="#ff0000" d="M 175.195312 84.210938 L 134.683594 84.210938 L 134.683594 43.703125 L 175.195312 43.703125 Z M 175.195312 84.210938 " fill-opacity="1" fill-rule="nonzero"/></g></g><g clip-path="url(#22a972e0a6)"><g clip-path="url(#3937c240dd)"><path fill="#ff0000" d="M 132.683594 188.742188 L 92.171875 188.742188 L 92.171875 148.234375 L 132.683594 148.234375 Z M 132.683594 188.742188 " fill-opacity="1" fill-rule="nonzero"/></g></g><g clip-path="url(#a72ac56c8e)"><g clip-path="url(#f940d87ad9)"><path fill="#ff0000" d="M 88.171875 291.273438 L 47.660156 291.273438 L 47.660156 250.761719 L 88.171875 250.761719 Z M 88.171875 291.273438 " fill-opacity="1" fill-rule="nonzero"/></g></g><g clip-path="url(#39e3a1f3e4)"><g clip-path="url(#c037088f24)"><path fill="#ff0000" d="M 173.195312 291.273438 L 132.683594 291.273438 L 132.683594 250.761719 L 173.195312 250.761719 Z M 173.195312 291.273438 " fill-opacity="1" fill-rule="nonzero"/></g></g><g fill="#ff0000" fill-opacity="1"><g transform="translate(202.064896, 303.621477)"><g><path d="M -5.25 -0.1875 C -3.988281 -0.1875 -2.988281 0.078125 -2.25 0.609375 C -1.507812 1.140625 -1.03125 1.878906 -0.8125 2.828125 L -2.703125 3.65625 L -2.890625 3.625 C -3.078125 3.070312 -3.351562 2.65625 -3.71875 2.375 C -4.082031 2.09375 -4.582031 1.953125 -5.21875 1.953125 C -5.875 1.953125 -6.378906 2.132812 -6.734375 2.5 C -7.085938 2.875 -7.265625 3.429688 -7.265625 4.171875 C -7.265625 4.910156 -7.085938 5.46875 -6.734375 5.84375 C -6.378906 6.226562 -5.898438 6.421875 -5.296875 6.421875 C -4.828125 6.421875 -4.4375 6.316406 -4.125 6.109375 C -3.8125 5.910156 -3.546875 5.613281 -3.328125 5.21875 L -1.28125 5.359375 L -1.53125 12.59375 L -9.03125 12.59375 L -9.03125 10.5 L -3.625 10.5 L -3.5 7.28125 L -3.6875 7.25 C -3.976562 7.632812 -4.328125 7.925781 -4.734375 8.125 C -5.140625 8.320312 -5.628906 8.421875 -6.203125 8.421875 C -6.921875 8.421875 -7.546875 8.257812 -8.078125 7.9375 C -8.617188 7.625 -9.035156 7.148438 -9.328125 6.515625 C -9.628906 5.890625 -9.78125 5.125 -9.78125 4.21875 C -9.78125 3.289062 -9.601562 2.5 -9.25 1.84375 C -8.894531 1.1875 -8.378906 0.679688 -7.703125 0.328125 C -7.023438 -0.015625 -6.207031 -0.1875 -5.25 -0.1875 Z M -5.25 -0.1875 "/></g></g></g><g clip-path="url(#6932db12b6)"><g clip-path="url(#06721ffb15)"><path fill="#ff0000" d="M 185.785156 277.382812 L 207.726562 277.382812 L 207.726562 299.324219 L 185.785156 299.324219 Z M 185.785156 277.382812 " fill-opacity="1" fill-rule="nonzero"/></g></g></svg>