<svg xmlns="http://www.w3.org/2000/svg" xmlns:xlink="http://www.w3.org/1999/xlink" width="300" zoomAndPan="magnify" viewBox="0 0 224.87999 337.499995" height="450" preserveAspectRatio="xMidYMid meet" version="1.0"><defs><g/><clipPath id="6214b8de75"><path d="M 9.960938 8.050781 L 214.917969 8.050781 L 214.917969 329 L 9.960938 329 Z M 9.960938 8.050781 " clip-rule="nonzero"/></clipPath><clipPath id="77431a6ddb"><path d="M 20.445312 8.050781 L 204.433594 8.050781 C 210.226562 8.050781 214.917969 12.746094 214.917969 18.535156 L 214.917969 318.464844 C 214.917969 324.253906 210.226562 328.949219 204.433594 328.949219 L 20.445312 328.949219 C 14.65625 328.949219 9.960938 324.253906 9.960938 318.464844 L 9.960938 18.535156 C 9.960938 12.746094 14.65625 8.050781 20.445312 8.050781 Z M 20.445312 8.050781 " clip-rule="nonzero"/></clipPath><clipPath id="ce95c20e37"><path d="M 9.960938 8.050781 L 215 8.050781 L 215 328.574219 L 9.960938 328.574219 Z M 9.960938 8.050781 " clip-rule="nonzero"/></clipPath><clipPath id="4779b46600"><path d="M 20.445312 8.050781 L 204.425781 8.050781 C 210.21875 8.050781 214.910156 12.746094 214.910156 18.535156 L 214.910156 318.453125 C 214.910156 324.246094 210.21875 328.9375 204.425781 328.9375 L 20.445312 328.9375 C 14.65625 328.9375 9.960938 324.246094 9.960938 318.453125 L 9.960938 18.535156 C 9.960938 12.746094 14.65625 8.050781 20.445312 8.050781 Z M 20.445312 8.050781 " clip-rule="nonzero"/></clipPath><clipPath id="bb485376f7"><path d="M 16.296875 36.941406 L 38.238281 36.941406 L 38.238281 58.882812 L 16.296875 58.882812 Z M 16.296875 36.941406 " clip-rule="nonzero"/></clipPath><clipPath id="1fd36f8b45"><path d="M 27.269531 58.882812 L 16.296875 47.914062 L 27.269531 36.941406 L 38.238281 47.914062 Z M 27.269531 58.882812 " clip-rule="nonzero"/></clipPath><clipPath id="063bcc07c0"><path d="M 49.660156 43.703125 L 90.171875 43.703125 L 90.171875 84.210938 L 49.660156 84.210938 Z M 49.660156 43.703125 " clip-rule="nonzero"/></clipPath><clipPath id="b59165c6a8"><path d="M 69.917969 84.210938 L 49.660156 63.957031 L 69.917969 43.703125 L 90.171875 63.957031 Z M 69.917969 84.210938 " clip-rule="nonzero"/></clipPath><clipPath id="e42ae5ce71"><path d="M 134.683594 43.703125 L 175.195312 43.703125 L 175.195312 84.210938 L 134.683594 84.210938 Z M 134.683594 43.703125 " clip-rule="nonzero"/></clipPath><clipPath id="cedc7f12ca"><path d="M 154.941406 84.210938 L 134.683594 63.957031 L 154.941406 43.703125 L 175.195312 63.957031 Z M 154.941406 84.210938 " clip-rule="nonzero"/></clipPath><clipPath id="9d2339dcdd"><path d="M 49.660156 147.230469 L 90.171875 147.230469 L 90.171875 187.742188 L 49.660156 187.742188 Z M 49.660156 147.230469 " clip-rule="nonzero"/></clipPath><clipPath id="1ab9026242"><path d="M 69.917969 187.742188 L 49.660156 167.488281 L 69.917969 147.230469 L 90.171875 167.488281 Z M 69.917969 187.742188 " clip-rule="nonzero"/></clipPath><clipPath id="e79b07b8b2"><path d="M 134.683594 148.234375 L 175.195312 148.234375 L 175.195312 188.742188 L 134.683594 188.742188 Z M 134.683594 148.234375 " clip-rule="nonzero"/></clipPath><clipPath id="e467879d3a"><path d="M 154.941406 188.742188 L 134.683594 168.488281 L 154.941406 148.234375 L 175.195312 168.488281 Z M 154.941406 188.742188 " clip-rule="nonzero"/></clipPath><clipPath id="ec236c555e"><path d="M 47.660156 250.761719 L 88.171875 250.761719 L 88.171875 291.273438 L 47.660156 291.273438 Z M 47.660156 250.761719 " clip-rule="nonzero"/></clipPath><clipPath id="5940ac4fc0"><path d="M 67.914062 291.273438 L 47.660156 271.019531 L 67.914062 250.761719 L 88.171875 271.019531 Z M 67.914062 291.273438 " clip-rule="nonzero"/></clipPath><clipPath id="45d31cb4fc"><path d="M 132.683594 250.761719 L 173.195312 250.761719 L 173.195312 291.273438 L 132.683594 291.273438 Z M 132.683594 250.761719 " clip-rule="nonzero"/></clipPath><clipPath id="3d4e4f1bf9"><path d="M 152.9375 291.273438 L 132.683594 271.019531 L 152.9375 250.761719 L 173.195312 271.019531 Z M 152.9375 291.273438 " clip-rule="nonzero"/></clipPath><clipPath id="587d8e7abe"><path d="M 186.402344 282.929688 L 208.34375 282.929688 L 208.34375 304.871094 L 186.402344 304.871094 Z M 186.402344 282.929688 " clip-rule="nonzero"/></clipPath><clipPath id="12caede61c"><path d="M 197.375 282.929688 L 208.34375 293.902344 L 197.375 304.871094 L 186.402344 293.902344 Z M 197.375 282.929688 " clip-rule="nonzero"/></clipPath></defs><g clip-path="url(#6214b8de75)"><g clip-path="url(#77431a6ddb)"><path fill="#ffffff" d="M 9.960938 8.050781 L 214.917969 8.050781 L 214.917969 329.097656 L 9.960938 329.097656 Z M 9.960938 8.050781 " fill-opacity="1" fill-rule="nonzero"/></g></g><g clip-path="url(#ce95c20e37)"><g clip-path="url(#4779b46600)"><path stroke-linecap="butt" transform="matrix(0.748891, 0, 0, 0.748891, 9.961128, 8.051028)" fill="none" stroke-linejoin="miter" d="M 13.999622 -0.000329615 L 259.67033 -0.000329615 C 267.405731 -0.000329615 273.670206 6.269362 273.670206 13.999547 L 273.670206 414.482599 C 273.670206 422.218001 267.405731 428.482476 259.67033 428.482476 L 13.999622 428.482476 C 6.269437 428.482476 -0.0002545 422.218001 -0.0002545 414.482599 L -0.0002545 13.999547 C -0.0002545 6.269362 6.269437 -0.000329615 13.999622 -0.000329615 Z M 13.999622 -0.000329615 " stroke="#000000" stroke-width="4" stroke-opacity="1" stroke-miterlimit="4"/></g></g><g fill="#ff0000" fill-opacity="1"><g transform="translate(21.547969, 32.643154)"><g><path d="M 6.015625 0.1875 C 5.066406 0.1875 4.222656 -0.03125 3.484375 -0.46875 C 2.742188 -0.90625 2.15625 -1.597656 1.71875 -2.546875 C 1.28125 -3.503906 1.0625 -4.710938 1.0625 -6.171875 C 1.0625 -7.671875 1.289062 -8.910156 1.75 -9.890625 C 2.207031 -10.878906 2.832031 -11.609375 3.625 -12.078125 C 4.425781 -12.546875 5.335938 -12.78125 6.359375 -12.78125 C 7.222656 -12.78125 7.960938 -12.65625 8.578125 -12.40625 C 9.191406 -12.15625 9.671875 -11.789062 10.015625 -11.3125 L 8.796875 -9.734375 L 8.578125 -9.734375 C 8.054688 -10.367188 7.316406 -10.6875 6.359375 -10.6875 C 4.566406 -10.6875 3.65625 -9.375 3.625 -6.75 L 3.796875 -6.6875 C 4.085938 -7.226562 4.472656 -7.640625 4.953125 -7.921875 C 5.429688 -8.203125 6.035156 -8.34375 6.765625 -8.34375 C 7.546875 -8.34375 8.21875 -8.175781 8.78125 -7.84375 C 9.351562 -7.519531 9.789062 -7.050781 10.09375 -6.4375 C 10.40625 -5.820312 10.5625 -5.09375 10.5625 -4.25 C 10.5625 -3.332031 10.378906 -2.539062 10.015625 -1.875 C 9.648438 -1.207031 9.125 -0.695312 8.4375 -0.34375 C 7.757812 0.0078125 6.953125 0.1875 6.015625 0.1875 Z M 5.96875 -1.953125 C 6.613281 -1.953125 7.117188 -2.140625 7.484375 -2.515625 C 7.859375 -2.898438 8.046875 -3.4375 8.046875 -4.125 C 8.046875 -4.8125 7.859375 -5.347656 7.484375 -5.734375 C 7.117188 -6.117188 6.613281 -6.3125 5.96875 -6.3125 C 5.539062 -6.3125 5.164062 -6.21875 4.84375 -6.03125 C 4.53125 -5.851562 4.285156 -5.601562 4.109375 -5.28125 C 3.941406 -4.957031 3.859375 -4.570312 3.859375 -4.125 C 3.859375 -3.457031 4.046875 -2.925781 4.421875 -2.53125 C 4.796875 -2.144531 5.3125 -1.953125 5.96875 -1.953125 Z M 5.96875 -1.953125 "/></g></g></g><g clip-path="url(#bb485376f7)"><g clip-path="url(#1fd36f8b45)"><path fill="#ff0000" d="M 38.238281 58.882812 L 16.296875 58.882812 L 16.296875 36.941406 L 38.238281 36.941406 Z M 38.238281 58.882812 " fill-opacity="1" fill-rule="nonzero"/></g></g><g clip-path="url(#063bcc07c0)"><g clip-path="url(#b59165c6a8)"><path fill="#ff0000" d="M 90.171875 84.210938 L 49.660156 84.210938 L 49.660156 43.703125 L 90.171875 43.703125 Z M 90.171875 84.210938 " fill-opacity="1" fill-rule="nonzero"/></g></g><g clip-path="url(#e42ae5ce71)"><g clip-path="url(#cedc7f12ca)"><path fill="#ff0000" d="M 175.195312 84.210938 L 134.683594 84.210938 L 134.683594 43.703125 L 175.195312 43.703125 Z M 175.195312 84.210938 " fill-opacity="1" fill-rule="nonzero"/></g></g><g clip-path="url(#9d2339dcdd)"><g clip-path="url(#1ab9026242)"><path fill="#ff0000" d="M 90.171875 187.742188 L 49.660156 187.742188 L 49.660156 147.230469 L 90.171875 147.230469 Z M 90.171875 187.742188 " fill-opacity="1" fill-rule="nonzero"/></g></g><g clip-path="url(#e79b07b8b2)"><g clip-path="url(#e467879d3a)"><path fill="#ff0000" d="M 175.195312 188.742188 L 134.683594 188.742188 L 134.683594 148.234375 L 175.195312 148.234375 Z M 175.195312 188.742188 " fill-opacity="1" fill-rule="nonzero"/></g></g><g clip-path="url(#ec236c555e)"><g clip-path="url(#5940ac4fc0)"><path fill="#ff0000" d="M 88.171875 291.273438 L 47.660156 291.273438 L 47.660156 250.761719 L 88.171875 250.761719 Z M 88.171875 291.273438 " fill-opacity="1" fill-rule="nonzero"/></g></g><g clip-path="url(#45d31cb4fc)"><g clip-path="url(#3d4e4f1bf9)"><path fill="#ff0000" d="M 173.195312 291.273438 L 132.683594 291.273438 L 132.683594 250.761719 L 173.195312 250.761719 Z M 173.195312 291.273438 " fill-opacity="1" fill-rule="nonzero"/></g></g><g fill="#ff0000" fill-opacity="1"><g transform="translate(203.094986, 309.171194)"><g><path d="M -6.015625 -0.1875 C -5.066406 -0.1875 -4.222656 0.03125 -3.484375 0.46875 C -2.742188 0.90625 -2.15625 1.597656 -1.71875 2.546875 C -1.28125 3.503906 -1.0625 4.710938 -1.0625 6.171875 C -1.0625 7.671875 -1.289062 8.910156 -1.75 9.890625 C -2.207031 10.878906 -2.832031 11.609375 -3.625 12.078125 C -4.425781 12.546875 -5.335938 12.78125 -6.359375 12.78125 C -7.222656 12.78125 -7.960938 12.65625 -8.578125 12.40625 C -9.191406 12.15625 -9.671875 11.789062 -10.015625 11.3125 L -8.796875 9.734375 L -8.578125 9.734375 C -8.054688 10.367188 -7.316406 10.6875 -6.359375 10.6875 C -4.566406 10.6875 -3.65625 9.375 -3.625 6.75 L -3.796875 6.6875 C -4.085938 7.226562 -4.472656 7.640625 -4.953125 7.921875 C -5.429688 8.203125 -6.035156 8.34375 -6.765625 8.34375 C -7.546875 8.34375 -8.21875 8.175781 -8.78125 7.84375 C -9.351562 7.519531 -9.789062 7.050781 -10.09375 6.4375 C -10.40625 5.820312 -10.5625 5.09375 -10.5625 4.25 C -10.5625 3.332031 -10.378906 2.539062 -10.015625 1.875 C -9.648438 1.207031 -9.125 0.695312 -8.4375 0.34375 C -7.757812 -0.0078125 -6.953125 -0.1875 -6.015625 -0.1875 Z M -5.96875 1.953125 C -6.613281 1.953125 -7.117188 2.140625 -7.484375 2.515625 C -7.859375 2.898438 -8.046875 3.4375 -8.046875 4.125 C -8.046875 4.8125 -7.859375 5.347656 -7.484375 5.734375 C -7.117188 6.117188 -6.613281 6.3125 -5.96875 6.3125 C -5.539062 6.3125 -5.164062 6.21875 -4.84375 6.03125 C -4.53125 5.851562 -4.285156 5.601562 -4.109375 5.28125 C -3.941406 4.957031 -3.859375 4.570312 -3.859375 4.125 C -3.859375 3.457031 -4.046875 2.925781 -4.421875 2.53125 C -4.796875 2.144531 -5.3125 1.953125 -5.96875 1.953125 Z M -5.96875 1.953125 "/></g></g></g><g clip-path="url(#587d8e7abe)"><g clip-path="url(#12caede61c)"><path fill="#ff0000" d="M 186.402344 282.929688 L 208.34375 282.929688 L 208.34375 304.871094 L 186.402344 304.871094 Z M 186.402344 282.929688 " fill-opacity="1" fill-rule="nonzero"/></g></g></svg>