<svg xmlns="http://www.w3.org/2000/svg" xmlns:xlink="http://www.w3.org/1999/xlink" width="300" zoomAndPan="magnify" viewBox="0 0 224.87999 337.499995" height="450" preserveAspectRatio="xMidYMid meet" version="1.0"><defs><g/><clipPath id="0b557a607b"><path d="M 9.960938 12.316406 L 214.917969 12.316406 L 214.917969 333.363281 L 9.960938 333.363281 Z M 9.960938 12.316406 " clip-rule="nonzero"/></clipPath><clipPath id="a91929e2eb"><path d="M 20.445312 12.316406 L 204.433594 12.316406 C 210.226562 12.316406 214.917969 17.007812 214.917969 22.800781 L 214.917969 322.730469 C 214.917969 328.519531 210.226562 333.214844 204.433594 333.214844 L 20.445312 333.214844 C 14.65625 333.214844 9.960938 328.519531 9.960938 322.730469 L 9.960938 22.800781 C 9.960938 17.007812 14.65625 12.316406 20.445312 12.316406 Z M 20.445312 12.316406 " clip-rule="nonzero"/></clipPath><clipPath id="47b138179a"><path d="M 9.960938 12.316406 L 215 12.316406 L 215 332.839844 L 9.960938 332.839844 Z M 9.960938 12.316406 " clip-rule="nonzero"/></clipPath><clipPath id="817136d6fc"><path d="M 20.445312 12.316406 L 204.425781 12.316406 C 210.21875 12.316406 214.910156 17.007812 214.910156 22.800781 L 214.910156 322.71875 C 214.910156 328.507812 210.21875 333.203125 204.425781 333.203125 L 20.445312 333.203125 C 14.65625 333.203125 9.960938 328.507812 9.960938 322.71875 L 9.960938 22.800781 C 9.960938 17.007812 14.65625 12.316406 20.445312 12.316406 Z M 20.445312 12.316406 " clip-rule="nonzero"/></clipPath><clipPath id="f84b312171"><path d="M 16.296875 36.941406 L 38.238281 36.941406 L 38.238281 58.882812 L 16.296875 58.882812 Z M 16.296875 36.941406 " clip-rule="nonzero"/></clipPath><clipPath id="016fa0a997"><path d="M 27.269531 58.882812 L 16.296875 47.914062 L 27.269531 36.941406 L 38.238281 47.914062 Z M 27.269531 58.882812 " clip-rule="nonzero"/></clipPath><clipPath id="f945b149cf"><path d="M 49.660156 43.703125 L 90.171875 43.703125 L 90.171875 84.210938 L 49.660156 84.210938 Z M 49.660156 43.703125 " clip-rule="nonzero"/></clipPath><clipPath id="f1e5325807"><path d="M 69.917969 84.210938 L 49.660156 63.957031 L 69.917969 43.703125 L 90.171875 63.957031 Z M 69.917969 84.210938 " clip-rule="nonzero"/></clipPath><clipPath id="a7a5704b03"><path d="M 134.683594 43.703125 L 175.195312 43.703125 L 175.195312 84.210938 L 134.683594 84.210938 Z M 134.683594 43.703125 " clip-rule="nonzero"/></clipPath><clipPath id="342a542a32"><path d="M 154.941406 84.210938 L 134.683594 63.957031 L 154.941406 43.703125 L 175.195312 63.957031 Z M 154.941406 84.210938 " clip-rule="nonzero"/></clipPath><clipPath id="eff2ee6053"><path d="M 92.171875 97.488281 L 132.683594 97.488281 L 132.683594 138 L 92.171875 138 Z M 92.171875 97.488281 " clip-rule="nonzero"/></clipPath><clipPath id="240731afca"><path d="M 112.429688 138 L 92.171875 117.746094 L 112.429688 97.488281 L 132.683594 117.746094 Z M 112.429688 138 " clip-rule="nonzero"/></clipPath><clipPath id="bc0c51ef0b"><path d="M 49.660156 147.230469 L 90.171875 147.230469 L 90.171875 187.742188 L 49.660156 187.742188 Z M 49.660156 147.230469 " clip-rule="nonzero"/></clipPath><clipPath id="f9c5842d8f"><path d="M 69.917969 187.742188 L 49.660156 167.488281 L 69.917969 147.230469 L 90.171875 167.488281 Z M 69.917969 187.742188 " clip-rule="nonzero"/></clipPath><clipPath id="2178e32387"><path d="M 134.683594 148.234375 L 175.195312 148.234375 L 175.195312 188.742188 L 134.683594 188.742188 Z M 134.683594 148.234375 " clip-rule="nonzero"/></clipPath><clipPath id="3ad48b0d97"><path d="M 154.941406 188.742188 L 134.683594 168.488281 L 154.941406 148.234375 L 175.195312 168.488281 Z M 154.941406 188.742188 " clip-rule="nonzero"/></clipPath><clipPath id="afc4d3fb8c"><path d="M 47.660156 250.761719 L 88.171875 250.761719 L 88.171875 291.273438 L 47.660156 291.273438 Z M 47.660156 250.761719 " clip-rule="nonzero"/></clipPath><clipPath id="dafceda94f"><path d="M 67.914062 291.273438 L 47.660156 271.019531 L 67.914062 250.761719 L 88.171875 271.019531 Z M 67.914062 291.273438 " clip-rule="nonzero"/></clipPath><clipPath id="7e427c5c33"><path d="M 132.683594 250.761719 L 173.195312 250.761719 L 173.195312 291.273438 L 132.683594 291.273438 Z M 132.683594 250.761719 " clip-rule="nonzero"/></clipPath><clipPath id="dfffc814b0"><path d="M 152.9375 291.273438 L 132.683594 271.019531 L 152.9375 250.761719 L 173.195312 271.019531 Z M 152.9375 291.273438 " clip-rule="nonzero"/></clipPath><clipPath id="fdb47d988a"><path d="M 186.402344 282.929688 L 208.34375 282.929688 L 208.34375 304.871094 L 186.402344 304.871094 Z M 186.402344 282.929688 " clip-rule="nonzero"/></clipPath><clipPath id="7be1bb8a52"><path d="M 197.375 282.929688 L 208.34375 293.902344 L 197.375 304.871094 L 186.402344 293.902344 Z M 197.375 282.929688 " clip-rule="nonzero"/></clipPath></defs><g clip-path="url(#0b557a607b)"><g clip-path="url(#a91929e2eb)"><path fill="#ffffff" d="M 9.960938 12.316406 L 214.917969 12.316406 L 214.917969 333.363281 L 9.960938 333.363281 Z M 9.960938 12.316406 " fill-opacity="1" fill-rule="nonzero"/></g></g><g clip-path="url(#47b138179a)"><g clip-path="url(#817136d6fc)"><path stroke-linecap="butt" transform="matrix(0.748891, 0, 0, 0.748891, 9.961128, 12.315702)" fill="none" stroke-linejoin="miter" d="M 13.999622 0.000940953 L 259.67033 0.000940953 C 267.405731 0.000940953 273.670206 6.265416 273.670206 14.000817 L 273.670206 414.48387 C 273.670206 422.214055 267.405731 428.483746 259.67033 428.483746 L 13.999622 428.483746 C 6.269437 428.483746 -0.0002545 422.214055 -0.0002545 414.48387 L -0.0002545 14.000817 C -0.0002545 6.265416 6.269437 0.000940953 13.999622 0.000940953 Z M 13.999622 0.000940953 " stroke="#000000" stroke-width="4" stroke-opacity="1" stroke-miterlimit="4"/></g></g><g fill="#ff0000" fill-opacity="1"><g transform="translate(22.796989, 32.643154)"><g><path d="M 4.1875 0 L 1.640625 0 L 5.984375 -10.3125 L 5.9375 -10.5 L 0.34375 -10.5 L 0.34375 -12.59375 L 8.515625 -12.59375 L 8.515625 -10.390625 Z M 4.1875 0 "/></g></g></g><g clip-path="url(#f84b312171)"><g clip-path="url(#016fa0a997)"><path fill="#ff0000" d="M 38.238281 58.882812 L 16.296875 58.882812 L 16.296875 36.941406 L 38.238281 36.941406 Z M 38.238281 58.882812 " fill-opacity="1" fill-rule="nonzero"/></g></g><g clip-path="url(#f945b149cf)"><g clip-path="url(#f1e5325807)"><path fill="#ff0000" d="M 90.171875 84.210938 L 49.660156 84.210938 L 49.660156 43.703125 L 90.171875 43.703125 Z M 90.171875 84.210938 " fill-opacity="1" fill-rule="nonzero"/></g></g><g clip-path="url(#a7a5704b03)"><g clip-path="url(#342a542a32)"><path fill="#ff0000" d="M 175.195312 84.210938 L 134.683594 84.210938 L 134.683594 43.703125 L 175.195312 43.703125 Z M 175.195312 84.210938 " fill-opacity="1" fill-rule="nonzero"/></g></g><g clip-path="url(#eff2ee6053)"><g clip-path="url(#240731afca)"><path fill="#ff0000" d="M 132.683594 138 L 92.171875 138 L 92.171875 97.488281 L 132.683594 97.488281 Z M 132.683594 138 " fill-opacity="1" fill-rule="nonzero"/></g></g><g clip-path="url(#bc0c51ef0b)"><g clip-path="url(#f9c5842d8f)"><path fill="#ff0000" d="M 90.171875 187.742188 L 49.660156 187.742188 L 49.660156 147.230469 L 90.171875 147.230469 Z M 90.171875 187.742188 " fill-opacity="1" fill-rule="nonzero"/></g></g><g clip-path="url(#2178e32387)"><g clip-path="url(#3ad48b0d97)"><path fill="#ff0000" d="M 175.195312 188.742188 L 134.683594 188.742188 L 134.683594 148.234375 L 175.195312 148.234375 Z M 175.195312 188.742188 " fill-opacity="1" fill-rule="nonzero"/></g></g><g clip-path="url(#afc4d3fb8c)"><g clip-path="url(#dafceda94f)"><path fill="#ff0000" d="M 88.171875 291.273438 L 47.660156 291.273438 L 47.660156 250.761719 L 88.171875 250.761719 Z M 88.171875 291.273438 " fill-opacity="1" fill-rule="nonzero"/></g></g><g clip-path="url(#7e427c5c33)"><g clip-path="url(#dfffc814b0)"><path fill="#ff0000" d="M 173.195312 291.273438 L 132.683594 291.273438 L 132.683594 250.761719 L 173.195312 250.761719 Z M 173.195312 291.273438 " fill-opacity="1" fill-rule="nonzero"/></g></g><g fill="#ff0000" fill-opacity="1"><g transform="translate(201.845966, 309.171194)"><g><path d="M -4.1875 0 L -1.640625 0 L -5.984375 10.3125 L -5.9375 10.5 L -0.34375 10.5 L -0.34375 12.59375 L -8.515625 12.59375 L -8.515625 10.390625 Z M -4.1875 0 "/></g></g></g><g clip-path="url(#fdb47d988a)"><g clip-path="url(#7be1bb8a52)"><path fill="#ff0000" d="M 186.402344 282.929688 L 208.34375 282.929688 L 208.34375 304.871094 L 186.402344 304.871094 Z M 186.402344 282.929688 " fill-opacity="1" fill-rule="nonzero"/></g></g></svg>