<svg xmlns="http://www.w3.org/2000/svg" xmlns:xlink="http://www.w3.org/1999/xlink" width="300" zoomAndPan="magnify" viewBox="0 0 224.87999 337.499995" height="450" preserveAspectRatio="xMidYMid meet" version="1.0"><defs><g/><clipPath id="86edb59e86"><path d="M 9.960938 8.050781 L 214.917969 8.050781 L 214.917969 329 L 9.960938 329 Z M 9.960938 8.050781 " clip-rule="nonzero"/></clipPath><clipPath id="c979951d70"><path d="M 20.445312 8.050781 L 204.433594 8.050781 C 210.226562 8.050781 214.917969 12.746094 214.917969 18.535156 L 214.917969 318.464844 C 214.917969 324.253906 210.226562 328.949219 204.433594 328.949219 L 20.445312 328.949219 C 14.65625 328.949219 9.960938 324.253906 9.960938 318.464844 L 9.960938 18.535156 C 9.960938 12.746094 14.65625 8.050781 20.445312 8.050781 Z M 20.445312 8.050781 " clip-rule="nonzero"/></clipPath><clipPath id="29b4e7eeb1"><path d="M 9.960938 8.050781 L 215 8.050781 L 215 328.574219 L 9.960938 328.574219 Z M 9.960938 8.050781 " clip-rule="nonzero"/></clipPath><clipPath id="571e3bf62b"><path d="M 20.445312 8.050781 L 204.425781 8.050781 C 210.21875 8.050781 214.910156 12.746094 214.910156 18.535156 L 214.910156 318.453125 C 214.910156 324.246094 210.21875 328.9375 204.425781 328.9375 L 20.445312 328.9375 C 14.65625 328.9375 9.960938 324.246094 9.960938 318.453125 L 9.960938 18.535156 C 9.960938 12.746094 14.65625 8.050781 20.445312 8.050781 Z M 20.445312 8.050781 " clip-rule="nonzero"/></clipPath><clipPath id="528f2367cb"><path d="M 49.496094 36.804688 L 90.242188 36.804688 L 90.242188 72.546875 L 49.496094 72.546875 Z M 49.496094 36.804688 " clip-rule="nonzero"/></clipPath><clipPath id="1d77e83762"><path d="M 51.109375 42.628906 C 47.808594 48.0625 50.132812 53.351562 53.054688 56.160156 L 70.132812 72.546875 L 86.847656 56.21875 C 89.566406 53.199219 90.605469 49.996094 90.027344 46.425781 C 89.230469 41.492188 85.164062 37.664062 80.140625 37.117188 C 77.058594 36.785156 74.082031 37.65625 71.757812 39.585938 C 71.132812 40.105469 70.574219 40.6875 70.089844 41.320312 C 69.511719 40.601562 68.832031 39.941406 68.066406 39.359375 C 65.394531 37.332031 61.996094 36.523438 58.726562 37.152344 C 55.632812 37.75 52.859375 39.746094 51.109375 42.628906 Z M 51.109375 42.628906 " clip-rule="nonzero"/></clipPath><clipPath id="853c0a9b24"><path d="M 14.90625 36.855469 L 40.492188 36.855469 L 40.492188 59.296875 L 14.90625 59.296875 Z M 14.90625 36.855469 " clip-rule="nonzero"/></clipPath><clipPath id="7ad278b886"><path d="M 15.917969 40.511719 C 13.847656 43.925781 15.304688 47.246094 17.140625 49.011719 L 27.863281 59.296875 L 38.359375 49.046875 C 40.066406 47.148438 40.71875 45.136719 40.355469 42.898438 C 39.855469 39.800781 37.300781 37.394531 34.148438 37.050781 C 32.210938 36.84375 30.34375 37.390625 28.882812 38.605469 C 28.492188 38.929688 28.140625 39.292969 27.835938 39.691406 C 27.472656 39.238281 27.046875 38.828125 26.566406 38.460938 C 24.886719 37.1875 22.753906 36.679688 20.703125 37.074219 C 18.757812 37.449219 17.015625 38.703125 15.917969 40.511719 Z M 15.917969 40.511719 " clip-rule="nonzero"/></clipPath><clipPath id="8410e688cb"><path d="M 134.695312 36.804688 L 175.445312 36.804688 L 175.445312 72.546875 L 134.695312 72.546875 Z M 134.695312 36.804688 " clip-rule="nonzero"/></clipPath><clipPath id="ee22e36679"><path d="M 136.308594 42.628906 C 133.011719 48.0625 135.335938 53.351562 138.253906 56.160156 L 155.332031 72.546875 L 172.050781 56.21875 C 174.765625 53.199219 175.808594 49.996094 175.230469 46.425781 C 174.429688 41.492188 170.363281 37.664062 165.339844 37.117188 C 162.261719 36.785156 159.285156 37.65625 156.960938 39.585938 C 156.335938 40.105469 155.777344 40.6875 155.289062 41.320312 C 154.710938 40.601562 154.035156 39.941406 153.265625 39.359375 C 150.597656 37.332031 147.195312 36.523438 143.929688 37.152344 C 140.835938 37.75 138.058594 39.746094 136.308594 42.628906 Z M 136.308594 42.628906 " clip-rule="nonzero"/></clipPath><clipPath id="1095c0e7cb"><path d="M 92.097656 89.546875 L 132.84375 89.546875 L 132.84375 125.289062 L 92.097656 125.289062 Z M 92.097656 89.546875 " clip-rule="nonzero"/></clipPath><clipPath id="717d96db09"><path d="M 93.710938 95.371094 C 90.410156 100.804688 92.734375 106.097656 95.65625 108.902344 L 112.734375 125.289062 L 129.449219 108.960938 C 132.167969 105.941406 133.207031 102.738281 132.628906 99.171875 C 131.832031 94.234375 127.765625 90.40625 122.742188 89.859375 C 119.660156 89.527344 116.683594 90.402344 114.359375 92.332031 C 113.734375 92.851562 113.175781 93.429688 112.6875 94.0625 C 112.109375 93.34375 111.433594 92.6875 110.667969 92.105469 C 107.996094 90.074219 104.59375 89.269531 101.328125 89.894531 C 98.234375 90.492188 95.457031 92.488281 93.710938 95.371094 Z M 93.710938 95.371094 " clip-rule="nonzero"/></clipPath><clipPath id="02257eed9c"><path d="M 134.695312 161 L 175.445312 161 L 175.445312 196.699219 L 134.695312 196.699219 Z M 134.695312 161 " clip-rule="nonzero"/></clipPath><clipPath id="0ab6bc5d50"><path d="M 136.308594 166.78125 C 133.011719 172.214844 135.335938 177.507812 138.253906 180.3125 L 155.332031 196.699219 L 172.050781 180.371094 C 174.765625 177.351562 175.808594 174.148438 175.230469 170.582031 C 174.429688 165.644531 170.363281 161.816406 165.339844 161.269531 C 162.261719 160.9375 159.285156 161.808594 156.960938 163.742188 C 156.335938 164.261719 155.777344 164.839844 155.289062 165.472656 C 154.710938 164.753906 154.035156 164.097656 153.265625 163.511719 C 150.597656 161.484375 147.195312 160.675781 143.929688 161.304688 C 140.835938 161.902344 138.058594 163.898438 136.308594 166.78125 Z M 136.308594 166.78125 " clip-rule="nonzero"/></clipPath><clipPath id="03b635bd86"><path d="M 47.3125 161 L 88.0625 161 L 88.0625 196.699219 L 47.3125 196.699219 Z M 47.3125 161 " clip-rule="nonzero"/></clipPath><clipPath id="cdb4561d1c"><path d="M 48.925781 166.78125 C 45.628906 172.214844 47.953125 177.507812 50.871094 180.3125 L 67.949219 196.699219 L 84.667969 180.371094 C 87.382812 177.351562 88.425781 174.148438 87.847656 170.582031 C 87.046875 165.644531 82.980469 161.816406 77.957031 161.269531 C 74.875 160.9375 71.898438 161.808594 69.578125 163.742188 C 68.953125 164.261719 68.394531 164.839844 67.90625 165.472656 C 67.328125 164.753906 66.652344 164.097656 65.882812 163.511719 C 63.214844 161.484375 59.8125 160.675781 56.546875 161.304688 C 53.453125 161.902344 50.675781 163.898438 48.925781 166.78125 Z M 48.925781 166.78125 " clip-rule="nonzero"/></clipPath><clipPath id="8d7bec33c9"><path d="M 47.25 261.671875 L 88 261.671875 L 88 297.414062 L 47.25 297.414062 Z M 47.25 261.671875 " clip-rule="nonzero"/></clipPath><clipPath id="a16fd7e683"><path d="M 86.386719 291.589844 C 89.683594 286.15625 87.359375 280.867188 84.441406 278.058594 L 67.363281 261.671875 L 50.644531 278 C 47.929688 281.019531 46.886719 284.222656 47.464844 287.792969 C 48.265625 292.726562 52.332031 296.554688 57.355469 297.101562 C 60.4375 297.433594 63.414062 296.5625 65.734375 294.632812 C 66.359375 294.113281 66.917969 293.53125 67.40625 292.898438 C 67.984375 293.617188 68.664062 294.277344 69.429688 294.859375 C 72.101562 296.890625 75.5 297.695312 78.765625 297.066406 C 81.859375 296.46875 84.636719 294.476562 86.386719 291.589844 Z M 86.386719 291.589844 " clip-rule="nonzero"/></clipPath><clipPath id="c3b7580ae4"><path d="M 134.632812 261.671875 L 175.382812 261.671875 L 175.382812 297.414062 L 134.632812 297.414062 Z M 134.632812 261.671875 " clip-rule="nonzero"/></clipPath><clipPath id="aef733a92c"><path d="M 173.769531 291.589844 C 177.070312 286.15625 174.746094 280.867188 171.824219 278.058594 L 154.746094 261.671875 L 138.027344 278 C 135.3125 281.019531 134.269531 284.222656 134.847656 287.792969 C 135.648438 292.726562 139.714844 296.554688 144.738281 297.101562 C 147.820312 297.433594 150.796875 296.5625 153.117188 294.632812 C 153.742188 294.113281 154.300781 293.53125 154.789062 292.898438 C 155.367188 293.617188 156.046875 294.277344 156.8125 294.859375 C 159.484375 296.890625 162.882812 297.695312 166.148438 297.066406 C 169.242188 296.46875 172.019531 294.476562 173.769531 291.589844 Z M 173.769531 291.589844 " clip-rule="nonzero"/></clipPath><clipPath id="1d99435773"><path d="M 181.441406 275.730469 L 207.027344 275.730469 L 207.027344 298.171875 L 181.441406 298.171875 Z M 181.441406 275.730469 " clip-rule="nonzero"/></clipPath><clipPath id="c13eab9345"><path d="M 206.015625 294.515625 C 208.085938 291.101562 206.625 287.78125 204.792969 286.019531 L 194.070312 275.730469 L 183.570312 285.980469 C 181.867188 287.878906 181.210938 289.890625 181.574219 292.128906 C 182.078125 295.226562 184.628906 297.632812 187.785156 297.976562 C 189.71875 298.183594 191.589844 297.636719 193.046875 296.425781 C 193.441406 296.097656 193.789062 295.734375 194.097656 295.335938 C 194.460938 295.789062 194.886719 296.203125 195.367188 296.566406 C 197.042969 297.839844 199.179688 298.347656 201.230469 297.953125 C 203.171875 297.578125 204.914062 296.324219 206.015625 294.515625 Z M 206.015625 294.515625 " clip-rule="nonzero"/></clipPath></defs><g clip-path="url(#86edb59e86)"><g clip-path="url(#c979951d70)"><path fill="#ffffff" d="M 9.960938 8.050781 L 214.917969 8.050781 L 214.917969 329.097656 L 9.960938 329.097656 Z M 9.960938 8.050781 " fill-opacity="1" fill-rule="nonzero"/></g></g><g clip-path="url(#29b4e7eeb1)"><g clip-path="url(#571e3bf62b)"><path stroke-linecap="butt" transform="matrix(0.748891, 0, 0, 0.748891, 9.961128, 8.051028)" fill="none" stroke-linejoin="miter" d="M 13.999622 -0.000329615 L 259.67033 -0.000329615 C 267.405731 -0.000329615 273.670206 6.269362 273.670206 13.999547 L 273.670206 414.482599 C 273.670206 422.218001 267.405731 428.482476 259.67033 428.482476 L 13.999622 428.482476 C 6.269437 428.482476 -0.0002545 422.218001 -0.0002545 414.482599 L -0.0002545 13.999547 C -0.0002545 6.269362 6.269437 -0.000329615 13.999622 -0.000329615 Z M 13.999622 -0.000329615 " stroke="#000000" stroke-width="4" stroke-opacity="1" stroke-miterlimit="4"/></g></g><g clip-path="url(#528f2367cb)"><g clip-path="url(#1d77e83762)"><path fill="#ff0000" d="M 49.496094 36.941406 L 90.242188 36.941406 L 90.242188 72.546875 L 49.496094 72.546875 Z M 49.496094 36.941406 " fill-opacity="1" fill-rule="nonzero"/></g></g><g clip-path="url(#853c0a9b24)"><g clip-path="url(#7ad278b886)"><path fill="#ff0000" d="M 14.90625 36.941406 L 40.492188 36.941406 L 40.492188 59.296875 L 14.90625 59.296875 Z M 14.90625 36.941406 " fill-opacity="1" fill-rule="nonzero"/></g></g><g fill="#ff0000" fill-opacity="1"><g transform="translate(22.796989, 32.643154)"><g><path d="M 4.1875 0 L 1.640625 0 L 5.984375 -10.3125 L 5.9375 -10.5 L 0.34375 -10.5 L 0.34375 -12.59375 L 8.515625 -12.59375 L 8.515625 -10.390625 Z M 4.1875 0 "/></g></g></g><g clip-path="url(#8410e688cb)"><g clip-path="url(#ee22e36679)"><path fill="#ff0000" d="M 134.695312 36.941406 L 175.445312 36.941406 L 175.445312 72.546875 L 134.695312 72.546875 Z M 134.695312 36.941406 " fill-opacity="1" fill-rule="nonzero"/></g></g><g clip-path="url(#1095c0e7cb)"><g clip-path="url(#717d96db09)"><path fill="#ff0000" d="M 92.097656 89.6875 L 132.84375 89.6875 L 132.84375 125.289062 L 92.097656 125.289062 Z M 92.097656 89.6875 " fill-opacity="1" fill-rule="nonzero"/></g></g><g clip-path="url(#02257eed9c)"><g clip-path="url(#0ab6bc5d50)"><path fill="#ff0000" d="M 134.695312 161.097656 L 175.445312 161.097656 L 175.445312 196.699219 L 134.695312 196.699219 Z M 134.695312 161.097656 " fill-opacity="1" fill-rule="nonzero"/></g></g><g clip-path="url(#03b635bd86)"><g clip-path="url(#cdb4561d1c)"><path fill="#ff0000" d="M 47.3125 161.097656 L 88.0625 161.097656 L 88.0625 196.699219 L 47.3125 196.699219 Z M 47.3125 161.097656 " fill-opacity="1" fill-rule="nonzero"/></g></g><g clip-path="url(#8d7bec33c9)"><g clip-path="url(#a16fd7e683)"><path fill="#ff0000" d="M 88 297.277344 L 47.25 297.277344 L 47.25 261.671875 L 88 261.671875 Z M 88 297.277344 " fill-opacity="1" fill-rule="nonzero"/></g></g><g clip-path="url(#c3b7580ae4)"><g clip-path="url(#aef733a92c)"><path fill="#ff0000" d="M 175.382812 297.277344 L 134.636719 297.277344 L 134.636719 261.671875 L 175.382812 261.671875 Z M 175.382812 297.277344 " fill-opacity="1" fill-rule="nonzero"/></g></g><g clip-path="url(#1d99435773)"><g clip-path="url(#c13eab9345)"><path fill="#ff0000" d="M 207.027344 298.085938 L 181.441406 298.085938 L 181.441406 275.730469 L 207.027344 275.730469 Z M 207.027344 298.085938 " fill-opacity="1" fill-rule="nonzero"/></g></g><g fill="#ff0000" fill-opacity="1"><g transform="translate(199.134719, 302.384902)"><g><path d="M -4.1875 0 L -1.640625 0 L -5.984375 10.3125 L -5.9375 10.5 L -0.34375 10.5 L -0.34375 12.59375 L -8.515625 12.59375 L -8.515625 10.390625 Z M -4.1875 0 "/></g></g></g></svg>