<svg xmlns="http://www.w3.org/2000/svg" xmlns:xlink="http://www.w3.org/1999/xlink" width="300" zoomAndPan="magnify" viewBox="0 0 224.87999 337.499995" height="450" preserveAspectRatio="xMidYMid meet" version="1.0"><defs><g/><clipPath id="fecaac0aa8"><path d="M 9.960938 8.050781 L 214.917969 8.050781 L 214.917969 329 L 9.960938 329 Z M 9.960938 8.050781 " clip-rule="nonzero"/></clipPath><clipPath id="10a301c641"><path d="M 20.445312 8.050781 L 204.433594 8.050781 C 210.226562 8.050781 214.917969 12.746094 214.917969 18.535156 L 214.917969 318.464844 C 214.917969 324.253906 210.226562 328.949219 204.433594 328.949219 L 20.445312 328.949219 C 14.65625 328.949219 9.960938 324.253906 9.960938 318.464844 L 9.960938 18.535156 C 9.960938 12.746094 14.65625 8.050781 20.445312 8.050781 Z M 20.445312 8.050781 " clip-rule="nonzero"/></clipPath><clipPath id="13fe3ad104"><path d="M 9.960938 8.050781 L 215 8.050781 L 215 328.574219 L 9.960938 328.574219 Z M 9.960938 8.050781 " clip-rule="nonzero"/></clipPath><clipPath id="1a6559b012"><path d="M 20.445312 8.050781 L 204.425781 8.050781 C 210.21875 8.050781 214.910156 12.746094 214.910156 18.535156 L 214.910156 318.453125 C 214.910156 324.246094 210.21875 328.9375 204.425781 328.9375 L 20.445312 328.9375 C 14.65625 328.9375 9.960938 324.246094 9.960938 318.453125 L 9.960938 18.535156 C 9.960938 12.746094 14.65625 8.050781 20.445312 8.050781 Z M 20.445312 8.050781 " clip-rule="nonzero"/></clipPath><clipPath id="73f0439cec"><path d="M 16.296875 36.941406 L 38.238281 36.941406 L 38.238281 58.882812 L 16.296875 58.882812 Z M 16.296875 36.941406 " clip-rule="nonzero"/></clipPath><clipPath id="9822e70d7e"><path d="M 27.269531 58.882812 L 16.296875 47.914062 L 27.269531 36.941406 L 38.238281 47.914062 Z M 27.269531 58.882812 " clip-rule="nonzero"/></clipPath><clipPath id="00fc4d123c"><path d="M 49.660156 43.703125 L 90.171875 43.703125 L 90.171875 84.210938 L 49.660156 84.210938 Z M 49.660156 43.703125 " clip-rule="nonzero"/></clipPath><clipPath id="517466322d"><path d="M 69.917969 84.210938 L 49.660156 63.957031 L 69.917969 43.703125 L 90.171875 63.957031 Z M 69.917969 84.210938 " clip-rule="nonzero"/></clipPath><clipPath id="65bb78a3ae"><path d="M 134.683594 43.703125 L 175.195312 43.703125 L 175.195312 84.210938 L 134.683594 84.210938 Z M 134.683594 43.703125 " clip-rule="nonzero"/></clipPath><clipPath id="176645fdc9"><path d="M 154.941406 84.210938 L 134.683594 63.957031 L 154.941406 43.703125 L 175.195312 63.957031 Z M 154.941406 84.210938 " clip-rule="nonzero"/></clipPath><clipPath id="c6592acece"><path d="M 92.171875 97.488281 L 132.683594 97.488281 L 132.683594 138 L 92.171875 138 Z M 92.171875 97.488281 " clip-rule="nonzero"/></clipPath><clipPath id="6ed77f0052"><path d="M 112.429688 138 L 92.171875 117.746094 L 112.429688 97.488281 L 132.683594 117.746094 Z M 112.429688 138 " clip-rule="nonzero"/></clipPath><clipPath id="ec80d4a0f2"><path d="M 49.660156 147.230469 L 90.171875 147.230469 L 90.171875 187.742188 L 49.660156 187.742188 Z M 49.660156 147.230469 " clip-rule="nonzero"/></clipPath><clipPath id="50bdf808c3"><path d="M 69.917969 187.742188 L 49.660156 167.488281 L 69.917969 147.230469 L 90.171875 167.488281 Z M 69.917969 187.742188 " clip-rule="nonzero"/></clipPath><clipPath id="22559438e5"><path d="M 134.683594 148.234375 L 175.195312 148.234375 L 175.195312 188.742188 L 134.683594 188.742188 Z M 134.683594 148.234375 " clip-rule="nonzero"/></clipPath><clipPath id="67553506e6"><path d="M 154.941406 188.742188 L 134.683594 168.488281 L 154.941406 148.234375 L 175.195312 168.488281 Z M 154.941406 188.742188 " clip-rule="nonzero"/></clipPath><clipPath id="6717404c8e"><path d="M 92.171875 191.113281 L 132.683594 191.113281 L 132.683594 231.621094 L 92.171875 231.621094 Z M 92.171875 191.113281 " clip-rule="nonzero"/></clipPath><clipPath id="b23a910792"><path d="M 112.429688 231.621094 L 92.171875 211.367188 L 112.429688 191.113281 L 132.683594 211.367188 Z M 112.429688 231.621094 " clip-rule="nonzero"/></clipPath><clipPath id="50d49a9f10"><path d="M 47.660156 250.761719 L 88.171875 250.761719 L 88.171875 291.273438 L 47.660156 291.273438 Z M 47.660156 250.761719 " clip-rule="nonzero"/></clipPath><clipPath id="a5d048fefb"><path d="M 67.914062 291.273438 L 47.660156 271.019531 L 67.914062 250.761719 L 88.171875 271.019531 Z M 67.914062 291.273438 " clip-rule="nonzero"/></clipPath><clipPath id="a69aa14e63"><path d="M 132.683594 250.761719 L 173.195312 250.761719 L 173.195312 291.273438 L 132.683594 291.273438 Z M 132.683594 250.761719 " clip-rule="nonzero"/></clipPath><clipPath id="eafc6788fe"><path d="M 152.9375 291.273438 L 132.683594 271.019531 L 152.9375 250.761719 L 173.195312 271.019531 Z M 152.9375 291.273438 " clip-rule="nonzero"/></clipPath><clipPath id="a7a4ca10f7"><path d="M 186.820312 279.847656 L 208.761719 279.847656 L 208.761719 301.789062 L 186.820312 301.789062 Z M 186.820312 279.847656 " clip-rule="nonzero"/></clipPath><clipPath id="a511f86286"><path d="M 197.789062 279.847656 L 208.761719 290.820312 L 197.789062 301.789062 L 186.820312 290.820312 Z M 197.789062 279.847656 " clip-rule="nonzero"/></clipPath></defs><g clip-path="url(#fecaac0aa8)"><g clip-path="url(#10a301c641)"><path fill="#ffffff" d="M 9.960938 8.050781 L 214.917969 8.050781 L 214.917969 329.097656 L 9.960938 329.097656 Z M 9.960938 8.050781 " fill-opacity="1" fill-rule="nonzero"/></g></g><g clip-path="url(#13fe3ad104)"><g clip-path="url(#1a6559b012)"><path stroke-linecap="butt" transform="matrix(0.748891, 0, 0, 0.748891, 9.961128, 8.051028)" fill="none" stroke-linejoin="miter" d="M 13.999622 -0.000329615 L 259.67033 -0.000329615 C 267.405731 -0.000329615 273.670206 6.269362 273.670206 13.999547 L 273.670206 414.482599 C 273.670206 422.218001 267.405731 428.482476 259.67033 428.482476 L 13.999622 428.482476 C 6.269437 428.482476 -0.0002545 422.218001 -0.0002545 414.482599 L -0.0002545 13.999547 C -0.0002545 6.269362 6.269437 -0.000329615 13.999622 -0.000329615 Z M 13.999622 -0.000329615 " stroke="#000000" stroke-width="4" stroke-opacity="1" stroke-miterlimit="4"/></g></g><g fill="#ff0000" fill-opacity="1"><g transform="translate(21.866685, 32.643154)"><g><path d="M 5.40625 0.1875 C 4.40625 0.1875 3.554688 0.03125 2.859375 -0.28125 C 2.171875 -0.59375 1.648438 -1.035156 1.296875 -1.609375 C 0.953125 -2.179688 0.78125 -2.863281 0.78125 -3.65625 C 0.78125 -4.382812 0.957031 -5.015625 1.3125 -5.546875 C 1.675781 -6.078125 2.207031 -6.5 2.90625 -6.8125 L 2.90625 -6.984375 C 2.40625 -7.285156 2.023438 -7.644531 1.765625 -8.0625 C 1.503906 -8.488281 1.375 -8.984375 1.375 -9.546875 C 1.375 -10.179688 1.53125 -10.742188 1.84375 -11.234375 C 2.15625 -11.722656 2.613281 -12.101562 3.21875 -12.375 C 3.832031 -12.644531 4.5625 -12.78125 5.40625 -12.78125 C 6.25 -12.78125 6.96875 -12.644531 7.5625 -12.375 C 8.164062 -12.101562 8.625 -11.722656 8.9375 -11.234375 C 9.257812 -10.742188 9.421875 -10.179688 9.421875 -9.546875 C 9.421875 -8.984375 9.285156 -8.492188 9.015625 -8.078125 C 8.753906 -7.660156 8.375 -7.296875 7.875 -6.984375 L 7.875 -6.8125 C 8.613281 -6.507812 9.15625 -6.085938 9.5 -5.546875 C 9.84375 -5.015625 10.015625 -4.382812 10.015625 -3.65625 C 10.015625 -2.863281 9.835938 -2.179688 9.484375 -1.609375 C 9.140625 -1.035156 8.625 -0.59375 7.9375 -0.28125 C 7.25 0.03125 6.40625 0.1875 5.40625 0.1875 Z M 5.40625 -7.6875 C 5.90625 -7.6875 6.300781 -7.820312 6.59375 -8.09375 C 6.882812 -8.375 7.03125 -8.757812 7.03125 -9.25 C 7.03125 -9.738281 6.882812 -10.125 6.59375 -10.40625 C 6.300781 -10.6875 5.90625 -10.828125 5.40625 -10.828125 C 4.894531 -10.828125 4.488281 -10.6875 4.1875 -10.40625 C 3.894531 -10.132812 3.75 -9.75 3.75 -9.25 C 3.75 -8.757812 3.894531 -8.375 4.1875 -8.09375 C 4.488281 -7.820312 4.894531 -7.6875 5.40625 -7.6875 Z M 5.40625 -1.9375 C 6.070312 -1.9375 6.585938 -2.101562 6.953125 -2.4375 C 7.328125 -2.78125 7.515625 -3.25 7.515625 -3.84375 C 7.515625 -4.4375 7.328125 -4.898438 6.953125 -5.234375 C 6.585938 -5.578125 6.070312 -5.75 5.40625 -5.75 C 4.726562 -5.75 4.203125 -5.578125 3.828125 -5.234375 C 3.460938 -4.898438 3.28125 -4.4375 3.28125 -3.84375 C 3.28125 -3.25 3.460938 -2.78125 3.828125 -2.4375 C 4.203125 -2.101562 4.726562 -1.9375 5.40625 -1.9375 Z M 5.40625 -1.9375 "/></g></g></g><g clip-path="url(#73f0439cec)"><g clip-path="url(#9822e70d7e)"><path fill="#ff0000" d="M 38.238281 58.882812 L 16.296875 58.882812 L 16.296875 36.941406 L 38.238281 36.941406 Z M 38.238281 58.882812 " fill-opacity="1" fill-rule="nonzero"/></g></g><g clip-path="url(#00fc4d123c)"><g clip-path="url(#517466322d)"><path fill="#ff0000" d="M 90.171875 84.210938 L 49.660156 84.210938 L 49.660156 43.703125 L 90.171875 43.703125 Z M 90.171875 84.210938 " fill-opacity="1" fill-rule="nonzero"/></g></g><g clip-path="url(#65bb78a3ae)"><g clip-path="url(#176645fdc9)"><path fill="#ff0000" d="M 175.195312 84.210938 L 134.683594 84.210938 L 134.683594 43.703125 L 175.195312 43.703125 Z M 175.195312 84.210938 " fill-opacity="1" fill-rule="nonzero"/></g></g><g clip-path="url(#c6592acece)"><g clip-path="url(#6ed77f0052)"><path fill="#ff0000" d="M 132.683594 138 L 92.171875 138 L 92.171875 97.488281 L 132.683594 97.488281 Z M 132.683594 138 " fill-opacity="1" fill-rule="nonzero"/></g></g><g clip-path="url(#ec80d4a0f2)"><g clip-path="url(#50bdf808c3)"><path fill="#ff0000" d="M 90.171875 187.742188 L 49.660156 187.742188 L 49.660156 147.230469 L 90.171875 147.230469 Z M 90.171875 187.742188 " fill-opacity="1" fill-rule="nonzero"/></g></g><g clip-path="url(#22559438e5)"><g clip-path="url(#67553506e6)"><path fill="#ff0000" d="M 175.195312 188.742188 L 134.683594 188.742188 L 134.683594 148.234375 L 175.195312 148.234375 Z M 175.195312 188.742188 " fill-opacity="1" fill-rule="nonzero"/></g></g><g clip-path="url(#6717404c8e)"><g clip-path="url(#b23a910792)"><path fill="#ff0000" d="M 132.683594 231.621094 L 92.171875 231.621094 L 92.171875 191.113281 L 132.683594 191.113281 Z M 132.683594 231.621094 " fill-opacity="1" fill-rule="nonzero"/></g></g><g clip-path="url(#50d49a9f10)"><g clip-path="url(#a5d048fefb)"><path fill="#ff0000" d="M 88.171875 291.273438 L 47.660156 291.273438 L 47.660156 250.761719 L 88.171875 250.761719 Z M 88.171875 291.273438 " fill-opacity="1" fill-rule="nonzero"/></g></g><g clip-path="url(#a69aa14e63)"><g clip-path="url(#eafc6788fe)"><path fill="#ff0000" d="M 173.195312 291.273438 L 132.683594 291.273438 L 132.683594 250.761719 L 173.195312 250.761719 Z M 173.195312 291.273438 " fill-opacity="1" fill-rule="nonzero"/></g></g><g fill="#ff0000" fill-opacity="1"><g transform="translate(203.1917, 306.088047)"><g><path d="M -5.40625 -0.1875 C -4.40625 -0.1875 -3.554688 -0.03125 -2.859375 0.28125 C -2.171875 0.59375 -1.648438 1.035156 -1.296875 1.609375 C -0.953125 2.179688 -0.78125 2.863281 -0.78125 3.65625 C -0.78125 4.382812 -0.957031 5.015625 -1.3125 5.546875 C -1.675781 6.078125 -2.207031 6.5 -2.90625 6.8125 L -2.90625 6.984375 C -2.40625 7.285156 -2.023438 7.644531 -1.765625 8.0625 C -1.503906 8.488281 -1.375 8.984375 -1.375 9.546875 C -1.375 10.179688 -1.53125 10.742188 -1.84375 11.234375 C -2.15625 11.722656 -2.613281 12.101562 -3.21875 12.375 C -3.832031 12.644531 -4.5625 12.78125 -5.40625 12.78125 C -6.25 12.78125 -6.96875 12.644531 -7.5625 12.375 C -8.164062 12.101562 -8.625 11.722656 -8.9375 11.234375 C -9.257812 10.742188 -9.421875 10.179688 -9.421875 9.546875 C -9.421875 8.984375 -9.285156 8.492188 -9.015625 8.078125 C -8.753906 7.660156 -8.375 7.296875 -7.875 6.984375 L -7.875 6.8125 C -8.613281 6.507812 -9.15625 6.085938 -9.5 5.546875 C -9.84375 5.015625 -10.015625 4.382812 -10.015625 3.65625 C -10.015625 2.863281 -9.835938 2.179688 -9.484375 1.609375 C -9.140625 1.035156 -8.625 0.59375 -7.9375 0.28125 C -7.25 -0.03125 -6.40625 -0.1875 -5.40625 -0.1875 Z M -5.40625 7.6875 C -5.90625 7.6875 -6.300781 7.820312 -6.59375 8.09375 C -6.882812 8.375 -7.03125 8.757812 -7.03125 9.25 C -7.03125 9.738281 -6.882812 10.125 -6.59375 10.40625 C -6.300781 10.6875 -5.90625 10.828125 -5.40625 10.828125 C -4.894531 10.828125 -4.488281 10.6875 -4.1875 10.40625 C -3.894531 10.132812 -3.75 9.75 -3.75 9.25 C -3.75 8.757812 -3.894531 8.375 -4.1875 8.09375 C -4.488281 7.820312 -4.894531 7.6875 -5.40625 7.6875 Z M -5.40625 1.9375 C -6.070312 1.9375 -6.585938 2.101562 -6.953125 2.4375 C -7.328125 2.78125 -7.515625 3.25 -7.515625 3.84375 C -7.515625 4.4375 -7.328125 4.898438 -6.953125 5.234375 C -6.585938 5.578125 -6.070312 5.75 -5.40625 5.75 C -4.726562 5.75 -4.203125 5.578125 -3.828125 5.234375 C -3.460938 4.898438 -3.28125 4.4375 -3.28125 3.84375 C -3.28125 3.25 -3.460938 2.78125 -3.828125 2.4375 C -4.203125 2.101562 -4.726562 1.9375 -5.40625 1.9375 Z M -5.40625 1.9375 "/></g></g></g><g clip-path="url(#a7a4ca10f7)"><g clip-path="url(#a511f86286)"><path fill="#ff0000" d="M 186.820312 279.847656 L 208.761719 279.847656 L 208.761719 301.789062 L 186.820312 301.789062 Z M 186.820312 279.847656 " fill-opacity="1" fill-rule="nonzero"/></g></g></svg>