<svg xmlns="http://www.w3.org/2000/svg" xmlns:xlink="http://www.w3.org/1999/xlink" width="300" zoomAndPan="magnify" viewBox="0 0 224.87999 337.499995" height="450" preserveAspectRatio="xMidYMid meet" version="1.0"><defs><g/><clipPath id="92afa02dc5"><path d="M 9.960938 8.050781 L 214.917969 8.050781 L 214.917969 329 L 9.960938 329 Z M 9.960938 8.050781 " clip-rule="nonzero"/></clipPath><clipPath id="7bf73997c1"><path d="M 20.445312 8.050781 L 204.433594 8.050781 C 210.226562 8.050781 214.917969 12.746094 214.917969 18.535156 L 214.917969 318.464844 C 214.917969 324.253906 210.226562 328.949219 204.433594 328.949219 L 20.445312 328.949219 C 14.65625 328.949219 9.960938 324.253906 9.960938 318.464844 L 9.960938 18.535156 C 9.960938 12.746094 14.65625 8.050781 20.445312 8.050781 Z M 20.445312 8.050781 " clip-rule="nonzero"/></clipPath><clipPath id="b87a32c430"><path d="M 9.960938 8.050781 L 215 8.050781 L 215 328.574219 L 9.960938 328.574219 Z M 9.960938 8.050781 " clip-rule="nonzero"/></clipPath><clipPath id="6ea1af707f"><path d="M 20.445312 8.050781 L 204.425781 8.050781 C 210.21875 8.050781 214.910156 12.746094 214.910156 18.535156 L 214.910156 318.453125 C 214.910156 324.246094 210.21875 328.9375 204.425781 328.9375 L 20.445312 328.9375 C 14.65625 328.9375 9.960938 324.246094 9.960938 318.453125 L 9.960938 18.535156 C 9.960938 12.746094 14.65625 8.050781 20.445312 8.050781 Z M 20.445312 8.050781 " clip-rule="nonzero"/></clipPath><clipPath id="cec5899134"><path d="M 49.496094 36.804688 L 90.242188 36.804688 L 90.242188 72.546875 L 49.496094 72.546875 Z M 49.496094 36.804688 " clip-rule="nonzero"/></clipPath><clipPath id="86de3796c5"><path d="M 51.109375 42.628906 C 47.808594 48.0625 50.132812 53.351562 53.054688 56.160156 L 70.132812 72.546875 L 86.847656 56.21875 C 89.566406 53.199219 90.605469 49.996094 90.027344 46.425781 C 89.230469 41.492188 85.164062 37.664062 80.140625 37.117188 C 77.058594 36.785156 74.082031 37.65625 71.757812 39.585938 C 71.132812 40.105469 70.574219 40.6875 70.089844 41.320312 C 69.511719 40.601562 68.832031 39.941406 68.066406 39.359375 C 65.394531 37.332031 61.996094 36.523438 58.726562 37.152344 C 55.632812 37.75 52.859375 39.746094 51.109375 42.628906 Z M 51.109375 42.628906 " clip-rule="nonzero"/></clipPath><clipPath id="24681c1b02"><path d="M 14.90625 36.855469 L 40.492188 36.855469 L 40.492188 59.296875 L 14.90625 59.296875 Z M 14.90625 36.855469 " clip-rule="nonzero"/></clipPath><clipPath id="2d6f5b0e47"><path d="M 15.917969 40.511719 C 13.847656 43.925781 15.304688 47.246094 17.140625 49.011719 L 27.863281 59.296875 L 38.359375 49.046875 C 40.066406 47.148438 40.71875 45.136719 40.355469 42.898438 C 39.855469 39.800781 37.300781 37.394531 34.148438 37.050781 C 32.210938 36.84375 30.34375 37.390625 28.882812 38.605469 C 28.492188 38.929688 28.140625 39.292969 27.835938 39.691406 C 27.472656 39.238281 27.046875 38.828125 26.566406 38.460938 C 24.886719 37.1875 22.753906 36.679688 20.703125 37.074219 C 18.757812 37.449219 17.015625 38.703125 15.917969 40.511719 Z M 15.917969 40.511719 " clip-rule="nonzero"/></clipPath><clipPath id="fbc46462d3"><path d="M 134.695312 36.804688 L 175.445312 36.804688 L 175.445312 72.546875 L 134.695312 72.546875 Z M 134.695312 36.804688 " clip-rule="nonzero"/></clipPath><clipPath id="acac4528d3"><path d="M 136.308594 42.628906 C 133.011719 48.0625 135.335938 53.351562 138.253906 56.160156 L 155.332031 72.546875 L 172.050781 56.21875 C 174.765625 53.199219 175.808594 49.996094 175.230469 46.425781 C 174.429688 41.492188 170.363281 37.664062 165.339844 37.117188 C 162.261719 36.785156 159.285156 37.65625 156.960938 39.585938 C 156.335938 40.105469 155.777344 40.6875 155.289062 41.320312 C 154.710938 40.601562 154.035156 39.941406 153.265625 39.359375 C 150.597656 37.332031 147.195312 36.523438 143.929688 37.152344 C 140.835938 37.75 138.058594 39.746094 136.308594 42.628906 Z M 136.308594 42.628906 " clip-rule="nonzero"/></clipPath><clipPath id="f64366815c"><path d="M 92.097656 82.183594 L 132.84375 82.183594 L 132.84375 117.921875 L 92.097656 117.921875 Z M 92.097656 82.183594 " clip-rule="nonzero"/></clipPath><clipPath id="af18303147"><path d="M 93.710938 88.007812 C 90.410156 93.441406 92.734375 98.730469 95.65625 101.539062 L 112.734375 117.921875 L 129.449219 101.597656 C 132.167969 98.578125 133.207031 95.375 132.628906 91.804688 C 131.832031 86.871094 127.765625 83.042969 122.742188 82.496094 C 119.660156 82.164062 116.683594 83.035156 114.359375 84.964844 C 113.734375 85.484375 113.175781 86.066406 112.6875 86.695312 C 112.109375 85.976562 111.433594 85.320312 110.667969 84.738281 C 107.996094 82.707031 104.59375 81.902344 101.328125 82.527344 C 98.234375 83.125 95.457031 85.121094 93.710938 88.007812 Z M 93.710938 88.007812 " clip-rule="nonzero"/></clipPath><clipPath id="40510b6582"><path d="M 134.695312 117.785156 L 175.445312 117.785156 L 175.445312 153.527344 L 134.695312 153.527344 Z M 134.695312 117.785156 " clip-rule="nonzero"/></clipPath><clipPath id="c6992c92ab"><path d="M 136.308594 123.609375 C 133.011719 129.042969 135.335938 134.332031 138.253906 137.140625 L 155.332031 153.527344 L 172.050781 137.199219 C 174.765625 134.179688 175.808594 130.976562 175.230469 127.40625 C 174.429688 122.472656 170.363281 118.644531 165.339844 118.097656 C 162.261719 117.765625 159.285156 118.636719 156.960938 120.566406 C 156.335938 121.085938 155.777344 121.667969 155.289062 122.300781 C 154.710938 121.582031 154.035156 120.921875 153.265625 120.339844 C 150.597656 118.308594 147.195312 117.503906 143.929688 118.132812 C 140.835938 118.730469 138.058594 120.722656 136.308594 123.609375 Z M 136.308594 123.609375 " clip-rule="nonzero"/></clipPath><clipPath id="913b6cbe06"><path d="M 49.496094 117.785156 L 90.242188 117.785156 L 90.242188 153.527344 L 49.496094 153.527344 Z M 49.496094 117.785156 " clip-rule="nonzero"/></clipPath><clipPath id="ac7f761ac4"><path d="M 51.109375 123.609375 C 47.808594 129.042969 50.132812 134.332031 53.054688 137.140625 L 70.132812 153.527344 L 86.847656 137.199219 C 89.566406 134.179688 90.605469 130.976562 90.027344 127.40625 C 89.230469 122.472656 85.164062 118.644531 80.140625 118.097656 C 77.058594 117.765625 74.082031 118.636719 71.757812 120.566406 C 71.132812 121.085938 70.574219 121.667969 70.089844 122.300781 C 69.511719 121.582031 68.832031 120.921875 68.066406 120.339844 C 65.394531 118.308594 61.996094 117.503906 58.726562 118.132812 C 55.632812 118.730469 52.859375 120.722656 51.109375 123.609375 Z M 51.109375 123.609375 " clip-rule="nonzero"/></clipPath><clipPath id="08a8ac0eb9"><path d="M 134.632812 199.203125 L 175.382812 199.203125 L 175.382812 234.941406 L 134.632812 234.941406 Z M 134.632812 199.203125 " clip-rule="nonzero"/></clipPath><clipPath id="31689ccb94"><path d="M 173.769531 229.117188 C 177.070312 223.683594 174.746094 218.394531 171.824219 215.585938 L 154.746094 199.203125 L 138.027344 215.527344 C 135.3125 218.546875 134.269531 221.75 134.847656 225.320312 C 135.648438 230.253906 139.714844 234.082031 144.738281 234.628906 C 147.820312 234.960938 150.796875 234.089844 153.117188 232.160156 C 153.742188 231.640625 154.300781 231.058594 154.789062 230.429688 C 155.367188 231.144531 156.046875 231.804688 156.8125 232.386719 C 159.484375 234.417969 162.882812 235.222656 166.148438 234.59375 C 169.242188 233.996094 172.019531 232.003906 173.769531 229.117188 Z M 173.769531 229.117188 " clip-rule="nonzero"/></clipPath><clipPath id="1a5b9547ce"><path d="M 49.433594 199.203125 L 90.179688 199.203125 L 90.179688 234.941406 L 49.433594 234.941406 Z M 49.433594 199.203125 " clip-rule="nonzero"/></clipPath><clipPath id="17b7c8f35f"><path d="M 88.566406 229.117188 C 91.867188 223.683594 89.542969 218.394531 86.621094 215.585938 L 69.542969 199.203125 L 52.828125 215.527344 C 50.109375 218.546875 49.070312 221.75 49.648438 225.320312 C 50.445312 230.253906 54.511719 234.082031 59.535156 234.628906 C 62.617188 234.960938 65.59375 234.089844 67.917969 232.160156 C 68.542969 231.640625 69.101562 231.058594 69.589844 230.429688 C 70.167969 231.144531 70.84375 231.804688 71.609375 232.386719 C 74.28125 234.417969 77.683594 235.222656 80.949219 234.59375 C 84.042969 233.996094 86.820312 232.003906 88.566406 229.117188 Z M 88.566406 229.117188 " clip-rule="nonzero"/></clipPath><clipPath id="1fcc56fd45"><path d="M 47.25 261.671875 L 88 261.671875 L 88 297.414062 L 47.25 297.414062 Z M 47.25 261.671875 " clip-rule="nonzero"/></clipPath><clipPath id="067dd29a8e"><path d="M 86.386719 291.589844 C 89.683594 286.15625 87.359375 280.867188 84.441406 278.058594 L 67.363281 261.671875 L 50.644531 278 C 47.929688 281.019531 46.886719 284.222656 47.464844 287.792969 C 48.265625 292.726562 52.332031 296.554688 57.355469 297.101562 C 60.4375 297.433594 63.414062 296.5625 65.734375 294.632812 C 66.359375 294.113281 66.917969 293.53125 67.40625 292.898438 C 67.984375 293.617188 68.664062 294.277344 69.429688 294.859375 C 72.101562 296.890625 75.5 297.695312 78.765625 297.066406 C 81.859375 296.46875 84.636719 294.476562 86.386719 291.589844 Z M 86.386719 291.589844 " clip-rule="nonzero"/></clipPath><clipPath id="a994039beb"><path d="M 134.632812 261.671875 L 175.382812 261.671875 L 175.382812 297.414062 L 134.632812 297.414062 Z M 134.632812 261.671875 " clip-rule="nonzero"/></clipPath><clipPath id="3300ecdd4c"><path d="M 173.769531 291.589844 C 177.070312 286.15625 174.746094 280.867188 171.824219 278.058594 L 154.746094 261.671875 L 138.027344 278 C 135.3125 281.019531 134.269531 284.222656 134.847656 287.792969 C 135.648438 292.726562 139.714844 296.554688 144.738281 297.101562 C 147.820312 297.433594 150.796875 296.5625 153.117188 294.632812 C 153.742188 294.113281 154.300781 293.53125 154.789062 292.898438 C 155.367188 293.617188 156.046875 294.277344 156.8125 294.859375 C 159.484375 296.890625 162.882812 297.695312 166.148438 297.066406 C 169.242188 296.46875 172.019531 294.476562 173.769531 291.589844 Z M 173.769531 291.589844 " clip-rule="nonzero"/></clipPath><clipPath id="4bdf189a4c"><path d="M 181.441406 275.730469 L 207.027344 275.730469 L 207.027344 298.171875 L 181.441406 298.171875 Z M 181.441406 275.730469 " clip-rule="nonzero"/></clipPath><clipPath id="97270c0cc7"><path d="M 206.015625 294.515625 C 208.085938 291.101562 206.625 287.78125 204.792969 286.019531 L 194.070312 275.730469 L 183.570312 285.980469 C 181.867188 287.878906 181.210938 289.890625 181.574219 292.128906 C 182.078125 295.226562 184.628906 297.632812 187.785156 297.976562 C 189.71875 298.183594 191.589844 297.636719 193.046875 296.425781 C 193.441406 296.097656 193.789062 295.734375 194.097656 295.335938 C 194.460938 295.789062 194.886719 296.203125 195.367188 296.566406 C 197.042969 297.839844 199.179688 298.347656 201.230469 297.953125 C 203.171875 297.578125 204.914062 296.324219 206.015625 294.515625 Z M 206.015625 294.515625 " clip-rule="nonzero"/></clipPath></defs><g clip-path="url(#92afa02dc5)"><g clip-path="url(#7bf73997c1)"><path fill="#ffffff" d="M 9.960938 8.050781 L 214.917969 8.050781 L 214.917969 329.097656 L 9.960938 329.097656 Z M 9.960938 8.050781 " fill-opacity="1" fill-rule="nonzero"/></g></g><g clip-path="url(#b87a32c430)"><g clip-path="url(#6ea1af707f)"><path stroke-linecap="butt" transform="matrix(0.748891, 0, 0, 0.748891, 9.961128, 8.051028)" fill="none" stroke-linejoin="miter" d="M 13.999622 -0.000329615 L 259.67033 -0.000329615 C 267.405731 -0.000329615 273.670206 6.269362 273.670206 13.999547 L 273.670206 414.482599 C 273.670206 422.218001 267.405731 428.482476 259.67033 428.482476 L 13.999622 428.482476 C 6.269437 428.482476 -0.0002545 422.218001 -0.0002545 414.482599 L -0.0002545 13.999547 C -0.0002545 6.269362 6.269437 -0.000329615 13.999622 -0.000329615 Z M 13.999622 -0.000329615 " stroke="#000000" stroke-width="4" stroke-opacity="1" stroke-miterlimit="4"/></g></g><g clip-path="url(#cec5899134)"><g clip-path="url(#86de3796c5)"><path fill="#ff0000" d="M 49.496094 36.941406 L 90.242188 36.941406 L 90.242188 72.546875 L 49.496094 72.546875 Z M 49.496094 36.941406 " fill-opacity="1" fill-rule="nonzero"/></g></g><g clip-path="url(#24681c1b02)"><g clip-path="url(#2d6f5b0e47)"><path fill="#ff0000" d="M 14.90625 36.941406 L 40.492188 36.941406 L 40.492188 59.296875 L 14.90625 59.296875 Z M 14.90625 36.941406 " fill-opacity="1" fill-rule="nonzero"/></g></g><g fill="#ff0000" fill-opacity="1"><g transform="translate(21.573811, 32.643154)"><g><path d="M 5.265625 0.1875 C 4.078125 0.1875 3.140625 -0.0507812 2.453125 -0.53125 C 1.773438 -1.007812 1.316406 -1.679688 1.078125 -2.546875 L 2.984375 -3.40625 L 3.171875 -3.359375 C 3.503906 -2.398438 4.195312 -1.921875 5.25 -1.921875 C 6.070312 -1.921875 6.695312 -2.257812 7.125 -2.9375 C 7.550781 -3.625 7.765625 -4.644531 7.765625 -6 L 7.59375 -6.0625 C 7.300781 -5.519531 6.921875 -5.109375 6.453125 -4.828125 C 5.992188 -4.546875 5.398438 -4.40625 4.671875 -4.40625 C 3.921875 -4.40625 3.257812 -4.570312 2.6875 -4.90625 C 2.113281 -5.238281 1.664062 -5.710938 1.34375 -6.328125 C 1.03125 -6.941406 0.875 -7.664062 0.875 -8.5 C 0.875 -9.363281 1.054688 -10.117188 1.421875 -10.765625 C 1.796875 -11.410156 2.320312 -11.90625 3 -12.25 C 3.675781 -12.601562 4.460938 -12.78125 5.359375 -12.78125 C 6.921875 -12.78125 8.140625 -12.285156 9.015625 -11.296875 C 9.890625 -10.304688 10.328125 -8.71875 10.328125 -6.53125 C 10.328125 -5.03125 10.125 -3.78125 9.71875 -2.78125 C 9.3125 -1.78125 8.726562 -1.035156 7.96875 -0.546875 C 7.21875 -0.0546875 6.316406 0.1875 5.265625 0.1875 Z M 5.4375 -6.4375 C 6.082031 -6.4375 6.59375 -6.625 6.96875 -7 C 7.34375 -7.382812 7.53125 -7.898438 7.53125 -8.546875 C 7.53125 -9.191406 7.34375 -9.703125 6.96875 -10.078125 C 6.601562 -10.460938 6.09375 -10.65625 5.4375 -10.65625 C 4.789062 -10.65625 4.285156 -10.46875 3.921875 -10.09375 C 3.566406 -9.726562 3.390625 -9.210938 3.390625 -8.546875 C 3.390625 -7.878906 3.566406 -7.359375 3.921875 -6.984375 C 4.285156 -6.617188 4.789062 -6.4375 5.4375 -6.4375 Z M 5.4375 -6.4375 "/></g></g></g><g clip-path="url(#fbc46462d3)"><g clip-path="url(#acac4528d3)"><path fill="#ff0000" d="M 134.695312 36.941406 L 175.445312 36.941406 L 175.445312 72.546875 L 134.695312 72.546875 Z M 134.695312 36.941406 " fill-opacity="1" fill-rule="nonzero"/></g></g><g clip-path="url(#f64366815c)"><g clip-path="url(#af18303147)"><path fill="#ff0000" d="M 92.097656 82.320312 L 132.84375 82.320312 L 132.84375 117.921875 L 92.097656 117.921875 Z M 92.097656 82.320312 " fill-opacity="1" fill-rule="nonzero"/></g></g><g clip-path="url(#40510b6582)"><g clip-path="url(#c6992c92ab)"><path fill="#ff0000" d="M 134.695312 117.921875 L 175.445312 117.921875 L 175.445312 153.527344 L 134.695312 153.527344 Z M 134.695312 117.921875 " fill-opacity="1" fill-rule="nonzero"/></g></g><g clip-path="url(#913b6cbe06)"><g clip-path="url(#ac7f761ac4)"><path fill="#ff0000" d="M 49.496094 117.921875 L 90.242188 117.921875 L 90.242188 153.527344 L 49.496094 153.527344 Z M 49.496094 117.921875 " fill-opacity="1" fill-rule="nonzero"/></g></g><g clip-path="url(#08a8ac0eb9)"><g clip-path="url(#31689ccb94)"><path fill="#ff0000" d="M 175.382812 234.804688 L 134.636719 234.804688 L 134.636719 199.203125 L 175.382812 199.203125 Z M 175.382812 234.804688 " fill-opacity="1" fill-rule="nonzero"/></g></g><g clip-path="url(#1a5b9547ce)"><g clip-path="url(#17b7c8f35f)"><path fill="#ff0000" d="M 90.179688 234.804688 L 49.433594 234.804688 L 49.433594 199.203125 L 90.179688 199.203125 Z M 90.179688 234.804688 " fill-opacity="1" fill-rule="nonzero"/></g></g><g clip-path="url(#1fcc56fd45)"><g clip-path="url(#067dd29a8e)"><path fill="#ff0000" d="M 88 297.277344 L 47.25 297.277344 L 47.25 261.671875 L 88 261.671875 Z M 88 297.277344 " fill-opacity="1" fill-rule="nonzero"/></g></g><g clip-path="url(#a994039beb)"><g clip-path="url(#3300ecdd4c)"><path fill="#ff0000" d="M 175.382812 297.277344 L 134.636719 297.277344 L 134.636719 261.671875 L 175.382812 261.671875 Z M 175.382812 297.277344 " fill-opacity="1" fill-rule="nonzero"/></g></g><g clip-path="url(#4bdf189a4c)"><g clip-path="url(#97270c0cc7)"><path fill="#ff0000" d="M 207.027344 298.085938 L 181.441406 298.085938 L 181.441406 275.730469 L 207.027344 275.730469 Z M 207.027344 298.085938 " fill-opacity="1" fill-rule="nonzero"/></g></g><g fill="#ff0000" fill-opacity="1"><g transform="translate(200.357897, 302.384902)"><g><path d="M -5.265625 -0.1875 C -4.078125 -0.1875 -3.140625 0.0507812 -2.453125 0.53125 C -1.773438 1.007812 -1.316406 1.679688 -1.078125 2.546875 L -2.984375 3.40625 L -3.171875 3.359375 C -3.503906 2.398438 -4.195312 1.921875 -5.25 1.921875 C -6.070312 1.921875 -6.695312 2.257812 -7.125 2.9375 C -7.550781 3.625 -7.765625 4.644531 -7.765625 6 L -7.59375 6.0625 C -7.300781 5.519531 -6.921875 5.109375 -6.453125 4.828125 C -5.992188 4.546875 -5.398438 4.40625 -4.671875 4.40625 C -3.921875 4.40625 -3.257812 4.570312 -2.6875 4.90625 C -2.113281 5.238281 -1.664062 5.710938 -1.34375 6.328125 C -1.03125 6.941406 -0.875 7.664062 -0.875 8.5 C -0.875 9.363281 -1.054688 10.117188 -1.421875 10.765625 C -1.796875 11.410156 -2.320312 11.90625 -3 12.25 C -3.675781 12.601562 -4.460938 12.78125 -5.359375 12.78125 C -6.921875 12.78125 -8.140625 12.285156 -9.015625 11.296875 C -9.890625 10.304688 -10.328125 8.71875 -10.328125 6.53125 C -10.328125 5.03125 -10.125 3.78125 -9.71875 2.78125 C -9.3125 1.78125 -8.726562 1.035156 -7.96875 0.546875 C -7.21875 0.0546875 -6.316406 -0.1875 -5.265625 -0.1875 Z M -5.4375 6.4375 C -6.082031 6.4375 -6.59375 6.625 -6.96875 7 C -7.34375 7.382812 -7.53125 7.898438 -7.53125 8.546875 C -7.53125 9.191406 -7.34375 9.703125 -6.96875 10.078125 C -6.601562 10.460938 -6.09375 10.65625 -5.4375 10.65625 C -4.789062 10.65625 -4.285156 10.46875 -3.921875 10.09375 C -3.566406 9.726562 -3.390625 9.210938 -3.390625 8.546875 C -3.390625 7.878906 -3.566406 7.359375 -3.921875 6.984375 C -4.285156 6.617188 -4.789062 6.4375 -5.4375 6.4375 Z M -5.4375 6.4375 "/></g></g></g></svg>