<svg xmlns="http://www.w3.org/2000/svg" xmlns:xlink="http://www.w3.org/1999/xlink" width="300" zoomAndPan="magnify" viewBox="0 0 224.87999 337.499995" height="450" preserveAspectRatio="xMidYMid meet" version="1.0"><defs><g/><clipPath id="2df2c5b26e"><path d="M 9.960938 8.050781 L 214.917969 8.050781 L 214.917969 329 L 9.960938 329 Z M 9.960938 8.050781 " clip-rule="nonzero"/></clipPath><clipPath id="bbe3034bec"><path d="M 20.445312 8.050781 L 204.433594 8.050781 C 210.226562 8.050781 214.917969 12.746094 214.917969 18.535156 L 214.917969 318.464844 C 214.917969 324.253906 210.226562 328.949219 204.433594 328.949219 L 20.445312 328.949219 C 14.65625 328.949219 9.960938 324.253906 9.960938 318.464844 L 9.960938 18.535156 C 9.960938 12.746094 14.65625 8.050781 20.445312 8.050781 Z M 20.445312 8.050781 " clip-rule="nonzero"/></clipPath><clipPath id="090861b115"><path d="M 9.960938 8.050781 L 215 8.050781 L 215 328.574219 L 9.960938 328.574219 Z M 9.960938 8.050781 " clip-rule="nonzero"/></clipPath><clipPath id="b7925fd7c5"><path d="M 20.445312 8.050781 L 204.425781 8.050781 C 210.21875 8.050781 214.910156 12.746094 214.910156 18.535156 L 214.910156 318.453125 C 214.910156 324.246094 210.21875 328.9375 204.425781 328.9375 L 20.445312 328.9375 C 14.65625 328.9375 9.960938 324.246094 9.960938 318.453125 L 9.960938 18.535156 C 9.960938 12.746094 14.65625 8.050781 20.445312 8.050781 Z M 20.445312 8.050781 " clip-rule="nonzero"/></clipPath><clipPath id="af2b8abead"><path d="M 16.296875 36.941406 L 38.238281 36.941406 L 38.238281 58.882812 L 16.296875 58.882812 Z M 16.296875 36.941406 " clip-rule="nonzero"/></clipPath><clipPath id="0a160dfffe"><path d="M 27.269531 58.882812 L 16.296875 47.914062 L 27.269531 36.941406 L 38.238281 47.914062 Z M 27.269531 58.882812 " clip-rule="nonzero"/></clipPath><clipPath id="c60104aaf4"><path d="M 49.660156 43.703125 L 90.171875 43.703125 L 90.171875 84.210938 L 49.660156 84.210938 Z M 49.660156 43.703125 " clip-rule="nonzero"/></clipPath><clipPath id="e91e346b45"><path d="M 69.917969 84.210938 L 49.660156 63.957031 L 69.917969 43.703125 L 90.171875 63.957031 Z M 69.917969 84.210938 " clip-rule="nonzero"/></clipPath><clipPath id="1096873e13"><path d="M 134.683594 43.703125 L 175.195312 43.703125 L 175.195312 84.210938 L 134.683594 84.210938 Z M 134.683594 43.703125 " clip-rule="nonzero"/></clipPath><clipPath id="b0d63219c1"><path d="M 154.941406 84.210938 L 134.683594 63.957031 L 154.941406 43.703125 L 175.195312 63.957031 Z M 154.941406 84.210938 " clip-rule="nonzero"/></clipPath><clipPath id="f146e952dd"><path d="M 90.171875 148.234375 L 130.683594 148.234375 L 130.683594 188.742188 L 90.171875 188.742188 Z M 90.171875 148.234375 " clip-rule="nonzero"/></clipPath><clipPath id="89e55ed5b6"><path d="M 110.425781 188.742188 L 90.171875 168.488281 L 110.425781 148.234375 L 130.683594 168.488281 Z M 110.425781 188.742188 " clip-rule="nonzero"/></clipPath><clipPath id="28456fc212"><path d="M 49.660156 115.300781 L 90.171875 115.300781 L 90.171875 155.8125 L 49.660156 155.8125 Z M 49.660156 115.300781 " clip-rule="nonzero"/></clipPath><clipPath id="ccb680cdc9"><path d="M 69.917969 155.8125 L 49.660156 135.554688 L 69.917969 115.300781 L 90.171875 135.554688 Z M 69.917969 155.8125 " clip-rule="nonzero"/></clipPath><clipPath id="32f24db9d6"><path d="M 134.683594 115.300781 L 175.195312 115.300781 L 175.195312 155.8125 L 134.683594 155.8125 Z M 134.683594 115.300781 " clip-rule="nonzero"/></clipPath><clipPath id="716ac48e62"><path d="M 154.941406 155.8125 L 134.683594 135.554688 L 154.941406 115.300781 L 175.195312 135.554688 Z M 154.941406 155.8125 " clip-rule="nonzero"/></clipPath><clipPath id="130d77c781"><path d="M 47.660156 179.164062 L 88.171875 179.164062 L 88.171875 219.671875 L 47.660156 219.671875 Z M 47.660156 179.164062 " clip-rule="nonzero"/></clipPath><clipPath id="a0e91f1a5d"><path d="M 67.914062 219.671875 L 47.660156 199.417969 L 67.914062 179.164062 L 88.171875 199.417969 Z M 67.914062 219.671875 " clip-rule="nonzero"/></clipPath><clipPath id="a6040054d2"><path d="M 132.683594 179.164062 L 173.195312 179.164062 L 173.195312 219.671875 L 132.683594 219.671875 Z M 132.683594 179.164062 " clip-rule="nonzero"/></clipPath><clipPath id="a2d623d245"><path d="M 152.9375 219.671875 L 132.683594 199.417969 L 152.9375 179.164062 L 173.195312 199.417969 Z M 152.9375 219.671875 " clip-rule="nonzero"/></clipPath><clipPath id="d291c4a3c6"><path d="M 47.660156 250.761719 L 88.171875 250.761719 L 88.171875 291.273438 L 47.660156 291.273438 Z M 47.660156 250.761719 " clip-rule="nonzero"/></clipPath><clipPath id="ff0d62510c"><path d="M 67.914062 291.273438 L 47.660156 271.019531 L 67.914062 250.761719 L 88.171875 271.019531 Z M 67.914062 291.273438 " clip-rule="nonzero"/></clipPath><clipPath id="e007ae9bb0"><path d="M 132.683594 250.761719 L 173.195312 250.761719 L 173.195312 291.273438 L 132.683594 291.273438 Z M 132.683594 250.761719 " clip-rule="nonzero"/></clipPath><clipPath id="518d13d680"><path d="M 152.9375 291.273438 L 132.683594 271.019531 L 152.9375 250.761719 L 173.195312 271.019531 Z M 152.9375 291.273438 " clip-rule="nonzero"/></clipPath><clipPath id="eda5bd90f9"><path d="M 186.820312 279.847656 L 208.761719 279.847656 L 208.761719 301.789062 L 186.820312 301.789062 Z M 186.820312 279.847656 " clip-rule="nonzero"/></clipPath><clipPath id="84f8c16b24"><path d="M 197.789062 279.847656 L 208.761719 290.820312 L 197.789062 301.789062 L 186.820312 290.820312 Z M 197.789062 279.847656 " clip-rule="nonzero"/></clipPath></defs><g clip-path="url(#2df2c5b26e)"><g clip-path="url(#bbe3034bec)"><path fill="#ffffff" d="M 9.960938 8.050781 L 214.917969 8.050781 L 214.917969 329.097656 L 9.960938 329.097656 Z M 9.960938 8.050781 " fill-opacity="1" fill-rule="nonzero"/></g></g><g clip-path="url(#090861b115)"><g clip-path="url(#b7925fd7c5)"><path stroke-linecap="butt" transform="matrix(0.748891, 0, 0, 0.748891, 9.961128, 8.051028)" fill="none" stroke-linejoin="miter" d="M 13.999622 -0.000329615 L 259.67033 -0.000329615 C 267.405731 -0.000329615 273.670206 6.269362 273.670206 13.999547 L 273.670206 414.482599 C 273.670206 422.218001 267.405731 428.482476 259.67033 428.482476 L 13.999622 428.482476 C 6.269437 428.482476 -0.0002545 422.218001 -0.0002545 414.482599 L -0.0002545 13.999547 C -0.0002545 6.269362 6.269437 -0.000329615 13.999622 -0.000329615 Z M 13.999622 -0.000329615 " stroke="#000000" stroke-width="4" stroke-opacity="1" stroke-miterlimit="4"/></g></g><g fill="#ff0000" fill-opacity="1"><g transform="translate(21.573811, 32.643154)"><g><path d="M 5.265625 0.1875 C 4.078125 0.1875 3.140625 -0.0507812 2.453125 -0.53125 C 1.773438 -1.007812 1.316406 -1.679688 1.078125 -2.546875 L 2.984375 -3.40625 L 3.171875 -3.359375 C 3.503906 -2.398438 4.195312 -1.921875 5.25 -1.921875 C 6.070312 -1.921875 6.695312 -2.257812 7.125 -2.9375 C 7.550781 -3.625 7.765625 -4.644531 7.765625 -6 L 7.59375 -6.0625 C 7.300781 -5.519531 6.921875 -5.109375 6.453125 -4.828125 C 5.992188 -4.546875 5.398438 -4.40625 4.671875 -4.40625 C 3.921875 -4.40625 3.257812 -4.570312 2.6875 -4.90625 C 2.113281 -5.238281 1.664062 -5.710938 1.34375 -6.328125 C 1.03125 -6.941406 0.875 -7.664062 0.875 -8.5 C 0.875 -9.363281 1.054688 -10.117188 1.421875 -10.765625 C 1.796875 -11.410156 2.320312 -11.90625 3 -12.25 C 3.675781 -12.601562 4.460938 -12.78125 5.359375 -12.78125 C 6.921875 -12.78125 8.140625 -12.285156 9.015625 -11.296875 C 9.890625 -10.304688 10.328125 -8.71875 10.328125 -6.53125 C 10.328125 -5.03125 10.125 -3.78125 9.71875 -2.78125 C 9.3125 -1.78125 8.726562 -1.035156 7.96875 -0.546875 C 7.21875 -0.0546875 6.316406 0.1875 5.265625 0.1875 Z M 5.4375 -6.4375 C 6.082031 -6.4375 6.59375 -6.625 6.96875 -7 C 7.34375 -7.382812 7.53125 -7.898438 7.53125 -8.546875 C 7.53125 -9.191406 7.34375 -9.703125 6.96875 -10.078125 C 6.601562 -10.460938 6.09375 -10.65625 5.4375 -10.65625 C 4.789062 -10.65625 4.285156 -10.46875 3.921875 -10.09375 C 3.566406 -9.726562 3.390625 -9.210938 3.390625 -8.546875 C 3.390625 -7.878906 3.566406 -7.359375 3.921875 -6.984375 C 4.285156 -6.617188 4.789062 -6.4375 5.4375 -6.4375 Z M 5.4375 -6.4375 "/></g></g></g><g clip-path="url(#af2b8abead)"><g clip-path="url(#0a160dfffe)"><path fill="#ff0000" d="M 38.238281 58.882812 L 16.296875 58.882812 L 16.296875 36.941406 L 38.238281 36.941406 Z M 38.238281 58.882812 " fill-opacity="1" fill-rule="nonzero"/></g></g><g clip-path="url(#c60104aaf4)"><g clip-path="url(#e91e346b45)"><path fill="#ff0000" d="M 90.171875 84.210938 L 49.660156 84.210938 L 49.660156 43.703125 L 90.171875 43.703125 Z M 90.171875 84.210938 " fill-opacity="1" fill-rule="nonzero"/></g></g><g clip-path="url(#1096873e13)"><g clip-path="url(#b0d63219c1)"><path fill="#ff0000" d="M 175.195312 84.210938 L 134.683594 84.210938 L 134.683594 43.703125 L 175.195312 43.703125 Z M 175.195312 84.210938 " fill-opacity="1" fill-rule="nonzero"/></g></g><g clip-path="url(#f146e952dd)"><g clip-path="url(#89e55ed5b6)"><path fill="#ff0000" d="M 130.683594 188.742188 L 90.171875 188.742188 L 90.171875 148.234375 L 130.683594 148.234375 Z M 130.683594 188.742188 " fill-opacity="1" fill-rule="nonzero"/></g></g><g clip-path="url(#28456fc212)"><g clip-path="url(#ccb680cdc9)"><path fill="#ff0000" d="M 90.171875 155.8125 L 49.660156 155.8125 L 49.660156 115.300781 L 90.171875 115.300781 Z M 90.171875 155.8125 " fill-opacity="1" fill-rule="nonzero"/></g></g><g clip-path="url(#32f24db9d6)"><g clip-path="url(#716ac48e62)"><path fill="#ff0000" d="M 175.195312 155.8125 L 134.683594 155.8125 L 134.683594 115.300781 L 175.195312 115.300781 Z M 175.195312 155.8125 " fill-opacity="1" fill-rule="nonzero"/></g></g><g clip-path="url(#130d77c781)"><g clip-path="url(#a0e91f1a5d)"><path fill="#ff0000" d="M 88.171875 219.671875 L 47.660156 219.671875 L 47.660156 179.164062 L 88.171875 179.164062 Z M 88.171875 219.671875 " fill-opacity="1" fill-rule="nonzero"/></g></g><g clip-path="url(#a6040054d2)"><g clip-path="url(#a2d623d245)"><path fill="#ff0000" d="M 173.195312 219.671875 L 132.683594 219.671875 L 132.683594 179.164062 L 173.195312 179.164062 Z M 173.195312 219.671875 " fill-opacity="1" fill-rule="nonzero"/></g></g><g clip-path="url(#d291c4a3c6)"><g clip-path="url(#ff0d62510c)"><path fill="#ff0000" d="M 88.171875 291.273438 L 47.660156 291.273438 L 47.660156 250.761719 L 88.171875 250.761719 Z M 88.171875 291.273438 " fill-opacity="1" fill-rule="nonzero"/></g></g><g clip-path="url(#e007ae9bb0)"><g clip-path="url(#518d13d680)"><path fill="#ff0000" d="M 173.195312 291.273438 L 132.683594 291.273438 L 132.683594 250.761719 L 173.195312 250.761719 Z M 173.195312 291.273438 " fill-opacity="1" fill-rule="nonzero"/></g></g><g fill="#ff0000" fill-opacity="1"><g transform="translate(203.484573, 306.088047)"><g><path d="M -5.265625 -0.1875 C -4.078125 -0.1875 -3.140625 0.0507812 -2.453125 0.53125 C -1.773438 1.007812 -1.316406 1.679688 -1.078125 2.546875 L -2.984375 3.40625 L -3.171875 3.359375 C -3.503906 2.398438 -4.195312 1.921875 -5.25 1.921875 C -6.070312 1.921875 -6.695312 2.257812 -7.125 2.9375 C -7.550781 3.625 -7.765625 4.644531 -7.765625 6 L -7.59375 6.0625 C -7.300781 5.519531 -6.921875 5.109375 -6.453125 4.828125 C -5.992188 4.546875 -5.398438 4.40625 -4.671875 4.40625 C -3.921875 4.40625 -3.257812 4.570312 -2.6875 4.90625 C -2.113281 5.238281 -1.664062 5.710938 -1.34375 6.328125 C -1.03125 6.941406 -0.875 7.664062 -0.875 8.5 C -0.875 9.363281 -1.054688 10.117188 -1.421875 10.765625 C -1.796875 11.410156 -2.320312 11.90625 -3 12.25 C -3.675781 12.601562 -4.460938 12.78125 -5.359375 12.78125 C -6.921875 12.78125 -8.140625 12.285156 -9.015625 11.296875 C -9.890625 10.304688 -10.328125 8.71875 -10.328125 6.53125 C -10.328125 5.03125 -10.125 3.78125 -9.71875 2.78125 C -9.3125 1.78125 -8.726562 1.035156 -7.96875 0.546875 C -7.21875 0.0546875 -6.316406 -0.1875 -5.265625 -0.1875 Z M -5.4375 6.4375 C -6.082031 6.4375 -6.59375 6.625 -6.96875 7 C -7.34375 7.382812 -7.53125 7.898438 -7.53125 8.546875 C -7.53125 9.191406 -7.34375 9.703125 -6.96875 10.078125 C -6.601562 10.460938 -6.09375 10.65625 -5.4375 10.65625 C -4.789062 10.65625 -4.285156 10.46875 -3.921875 10.09375 C -3.566406 9.726562 -3.390625 9.210938 -3.390625 8.546875 C -3.390625 7.878906 -3.566406 7.359375 -3.921875 6.984375 C -4.285156 6.617188 -4.789062 6.4375 -5.4375 6.4375 Z M -5.4375 6.4375 "/></g></g></g><g clip-path="url(#eda5bd90f9)"><g clip-path="url(#84f8c16b24)"><path fill="#ff0000" d="M 186.820312 279.847656 L 208.761719 279.847656 L 208.761719 301.789062 L 186.820312 301.789062 Z M 186.820312 279.847656 " fill-opacity="1" fill-rule="nonzero"/></g></g></svg>