<svg xmlns="http://www.w3.org/2000/svg" xmlns:xlink="http://www.w3.org/1999/xlink" width="300" zoomAndPan="magnify" viewBox="0 0 224.87999 337.499995" height="450" preserveAspectRatio="xMidYMid meet" version="1.0"><defs><g/><clipPath id="39a7b67722"><path d="M 10.878906 8.050781 L 215.835938 8.050781 L 215.835938 329 L 10.878906 329 Z M 10.878906 8.050781 " clip-rule="nonzero"/></clipPath><clipPath id="3b33481a3b"><path d="M 21.363281 8.050781 L 205.351562 8.050781 C 211.140625 8.050781 215.835938 12.746094 215.835938 18.535156 L 215.835938 318.464844 C 215.835938 324.253906 211.140625 328.949219 205.351562 328.949219 L 21.363281 328.949219 C 15.574219 328.949219 10.878906 324.253906 10.878906 318.464844 L 10.878906 18.535156 C 10.878906 12.746094 15.574219 8.050781 21.363281 8.050781 Z M 21.363281 8.050781 " clip-rule="nonzero"/></clipPath><clipPath id="2bcf31c7d9"><path d="M 10.878906 8.050781 L 216 8.050781 L 216 328.574219 L 10.878906 328.574219 Z M 10.878906 8.050781 " clip-rule="nonzero"/></clipPath><clipPath id="f2bbc1728a"><path d="M 21.363281 8.050781 L 205.34375 8.050781 C 211.136719 8.050781 215.828125 12.746094 215.828125 18.535156 L 215.828125 318.453125 C 215.828125 324.246094 211.136719 328.9375 205.34375 328.9375 L 21.363281 328.9375 C 15.574219 328.9375 10.878906 324.246094 10.878906 318.453125 L 10.878906 18.535156 C 10.878906 12.746094 15.574219 8.050781 21.363281 8.050781 Z M 21.363281 8.050781 " clip-rule="nonzero"/></clipPath><clipPath id="6b62cfb371"><path d="M 29.734375 156 L 54 156 L 54 181 L 29.734375 181 Z M 29.734375 156 " clip-rule="nonzero"/></clipPath><clipPath id="88a66cd0df"><path d="M 168 153 L 195.242188 153 L 195.242188 181 L 168 181 Z M 168 153 " clip-rule="nonzero"/></clipPath><clipPath id="e545f37d62"><path d="M 22.574219 50.523438 L 52.769531 50.523438 L 52.769531 77.007812 L 22.574219 77.007812 Z M 22.574219 50.523438 " clip-rule="nonzero"/></clipPath><clipPath id="01d21cb2b1"><path d="M 23.769531 54.835938 C 21.324219 58.863281 23.046875 62.785156 25.210938 64.867188 L 37.867188 77.007812 L 50.253906 64.910156 C 52.265625 62.671875 53.039062 60.296875 52.609375 57.652344 C 52.015625 53.996094 49.003906 51.160156 45.28125 50.753906 C 42.996094 50.507812 40.792969 51.152344 39.070312 52.585938 C 38.609375 52.96875 38.195312 53.398438 37.832031 53.867188 C 37.40625 53.335938 36.902344 52.847656 36.335938 52.417969 C 34.355469 50.910156 31.835938 50.316406 29.414062 50.777344 C 27.121094 51.222656 25.066406 52.699219 23.769531 54.835938 Z M 23.769531 54.835938 " clip-rule="nonzero"/></clipPath><clipPath id="da81c82ce2"><path d="M 172.105469 260.671875 L 202.300781 260.671875 L 202.300781 287.15625 L 172.105469 287.15625 Z M 172.105469 260.671875 " clip-rule="nonzero"/></clipPath><clipPath id="e1c927209e"><path d="M 201.105469 282.839844 C 203.546875 278.8125 201.824219 274.890625 199.660156 272.8125 L 187.007812 260.671875 L 174.617188 272.769531 C 172.605469 275.007812 171.835938 277.378906 172.261719 280.023438 C 172.855469 283.679688 175.867188 286.519531 179.589844 286.921875 C 181.875 287.167969 184.078125 286.523438 185.800781 285.09375 C 186.265625 284.707031 186.679688 284.277344 187.039062 283.808594 C 187.46875 284.34375 187.96875 284.828125 188.539062 285.261719 C 190.515625 286.765625 193.035156 287.363281 195.457031 286.898438 C 197.75 286.457031 199.808594 284.976562 201.105469 282.839844 Z M 201.105469 282.839844 " clip-rule="nonzero"/></clipPath></defs><g clip-path="url(#39a7b67722)"><g clip-path="url(#3b33481a3b)"><path fill="#ffffff" d="M 10.878906 8.050781 L 215.835938 8.050781 L 215.835938 329.097656 L 10.878906 329.097656 Z M 10.878906 8.050781 " fill-opacity="1" fill-rule="nonzero"/></g></g><g clip-path="url(#2bcf31c7d9)"><g clip-path="url(#f2bbc1728a)"><path stroke-linecap="butt" transform="matrix(0.748891, 0, 0, 0.748891, 10.878703, 8.051028)" fill="none" stroke-linejoin="miter" d="M 14.000148 -0.000329615 L 259.670856 -0.000329615 C 267.406257 -0.000329615 273.670733 6.269362 273.670733 13.999547 L 273.670733 414.482599 C 273.670733 422.218001 267.406257 428.482476 259.670856 428.482476 L 14.000148 428.482476 C 6.269963 428.482476 0.000271734 422.218001 0.000271734 414.482599 L 0.000271734 13.999547 C 0.000271734 6.269362 6.269963 -0.000329615 14.000148 -0.000329615 Z M 14.000148 -0.000329615 " stroke="#000000" stroke-width="4" stroke-opacity="1" stroke-miterlimit="4"/></g></g><path fill="#a9e2ce" d="M 154.679688 214.667969 C 156.71875 221.375 158.628906 226.007812 158.628906 226.007812 C 158.628906 226.007812 156.386719 228.867188 151.167969 231.992188 Z M 154.679688 214.667969 " fill-opacity="1" fill-rule="nonzero"/><path fill="#a9e2ce" d="M 141.265625 222.28125 L 151.167969 232.007812 C 147.578125 234.15625 142.574219 236.441406 135.925781 238.015625 Z M 141.265625 222.28125 " fill-opacity="1" fill-rule="nonzero"/><path fill="#a9e2ce" d="M 125.929688 225.367188 L 135.925781 238.015625 C 130.878906 239.207031 124.875 239.992188 117.8125 239.992188 Z M 125.929688 225.367188 " fill-opacity="1" fill-rule="nonzero"/><path fill="#a9e2ce" d="M 110.859375 225.59375 L 117.8125 239.992188 C 111.300781 239.992188 105.679688 239.40625 100.875 238.472656 Z M 110.859375 225.59375 " fill-opacity="1" fill-rule="nonzero"/><path fill="#a9e2ce" d="M 95.5625 223.152344 L 100.863281 238.472656 C 93.386719 237.042969 87.902344 234.785156 84.085938 232.714844 Z M 95.5625 223.152344 " fill-opacity="1" fill-rule="nonzero"/><path fill="#a9e2ce" d="M 79.308594 214.683594 L 84.085938 232.714844 C 79.148438 230.015625 77.011719 227.613281 77.011719 227.613281 C 77.011719 227.613281 78.226562 222.335938 79.308594 214.683594 Z M 79.308594 214.683594 " fill-opacity="1" fill-rule="nonzero"/><path fill="#3a9674" d="M 154.679688 214.667969 L 151.167969 231.992188 L 151.167969 232.007812 L 141.265625 222.28125 L 135.925781 238.015625 L 125.929688 225.367188 C 147.242188 223.378906 154.679688 214.667969 154.679688 214.667969 Z M 154.679688 214.667969 " fill-opacity="1" fill-rule="nonzero"/><path fill="#3a9674" d="M 125.929688 225.367188 L 117.8125 239.992188 L 110.859375 225.59375 C 112.796875 225.703125 114.835938 225.769531 116.984375 225.769531 C 120.203125 225.769531 123.191406 225.621094 125.929688 225.367188 Z M 125.929688 225.367188 " fill-opacity="1" fill-rule="nonzero"/><path fill="#3a9674" d="M 103.226562 224.765625 C 105.5625 225.140625 108.109375 225.421875 110.859375 225.59375 L 100.875 238.472656 L 100.863281 238.472656 L 95.5625 223.152344 L 84.085938 232.714844 L 79.308594 214.683594 C 79.308594 214.683594 85.605469 222.042969 103.226562 224.765625 Z M 103.226562 224.765625 " fill-opacity="1" fill-rule="nonzero"/><path fill="#a39fa4" d="M 41.132812 169.859375 C 43.003906 171.179688 43.761719 173.304688 42.84375 174.601562 C 41.921875 175.882812 39.679688 175.867188 37.824219 174.546875 C 35.957031 173.222656 35.195312 171.113281 36.117188 169.816406 C 37.023438 168.523438 39.277344 168.550781 41.132812 169.859375 Z M 41.132812 169.859375 " fill-opacity="1" fill-rule="nonzero"/><path fill="#a39fa4" d="M 187.046875 161.109375 C 188.902344 162.417969 189.660156 164.542969 188.753906 165.839844 C 187.832031 167.132812 185.578125 167.105469 183.722656 165.785156 C 181.867188 164.476562 181.09375 162.351562 182.011719 161.054688 C 182.933594 159.761719 185.175781 159.789062 187.046875 161.109375 Z M 187.046875 161.109375 " fill-opacity="1" fill-rule="nonzero"/><path fill="#a39fa4" d="M 167.984375 111.757812 C 167.984375 112.304688 167.914062 112.832031 167.765625 113.335938 C 167.621094 113.84375 167.414062 114.289062 167.144531 114.675781 C 166.875 115.0625 166.566406 115.359375 166.214844 115.570312 C 165.863281 115.78125 165.496094 115.882812 165.117188 115.882812 C 164.734375 115.882812 164.371094 115.78125 164.019531 115.570312 C 163.667969 115.359375 163.355469 115.0625 163.085938 114.675781 C 162.816406 114.289062 162.609375 113.84375 162.464844 113.335938 C 162.320312 112.832031 162.246094 112.304688 162.246094 111.757812 C 162.246094 111.210938 162.320312 110.683594 162.464844 110.179688 C 162.609375 109.671875 162.816406 109.226562 163.085938 108.839844 C 163.355469 108.453125 163.667969 108.152344 164.019531 107.945312 C 164.371094 107.734375 164.734375 107.628906 165.117188 107.628906 C 165.496094 107.628906 165.863281 107.734375 166.214844 107.945312 C 166.566406 108.152344 166.875 108.453125 167.144531 108.839844 C 167.414062 109.226562 167.621094 109.671875 167.765625 110.179688 C 167.914062 110.683594 167.984375 111.210938 167.984375 111.757812 Z M 167.984375 111.757812 " fill-opacity="1" fill-rule="nonzero"/><g clip-path="url(#6b62cfb371)"><path fill="#f9b132" d="M 47.742188 158.613281 C 51.226562 160.710938 53.546875 164.515625 53.546875 168.855469 C 53.546875 175.441406 48.222656 180.785156 41.640625 180.785156 C 35.0625 180.785156 29.734375 175.441406 29.734375 168.855469 C 29.734375 162.285156 35.0625 156.941406 41.640625 156.941406 C 43.871094 156.941406 45.953125 157.558594 47.742188 158.613281 Z M 42.84375 174.601562 C 43.761719 173.304688 43.003906 171.179688 41.132812 169.859375 C 39.277344 168.550781 37.023438 168.523438 36.117188 169.816406 C 35.195312 171.113281 35.957031 173.222656 37.824219 174.546875 C 39.679688 175.867188 41.921875 175.882812 42.84375 174.601562 Z M 42.84375 174.601562 " fill-opacity="1" fill-rule="nonzero"/></g><g clip-path="url(#88a66cd0df)"><path fill="#f9b132" d="M 181.679688 153.28125 C 189.167969 153.28125 195.242188 159.359375 195.242188 166.851562 C 195.242188 174.347656 189.167969 180.421875 181.679688 180.421875 C 174.191406 180.421875 168.117188 174.347656 168.117188 166.851562 C 168.117188 165.449219 168.332031 164.101562 168.734375 162.832031 C 169.425781 160.550781 170.722656 158.53125 172.429688 156.941406 C 174.859375 154.671875 178.101562 153.28125 181.679688 153.28125 Z M 188.753906 165.839844 C 189.660156 164.542969 188.902344 162.417969 187.046875 161.109375 C 185.175781 159.789062 182.933594 159.761719 182.011719 161.054688 C 181.09375 162.351562 181.867188 164.476562 183.722656 165.785156 C 185.578125 167.105469 187.832031 167.132812 188.753906 165.839844 Z M 188.753906 165.839844 " fill-opacity="1" fill-rule="nonzero"/></g><path fill="#f9b132" d="M 146.390625 104.625 C 148.964844 100.699219 153.382812 98.121094 158.414062 98.121094 C 166.355469 98.121094 172.789062 104.542969 172.789062 112.492188 C 172.789062 120.425781 166.355469 126.863281 158.414062 126.863281 C 150.488281 126.863281 144.054688 120.425781 144.054688 112.492188 C 144.054688 109.59375 144.921875 106.882812 146.390625 104.625 Z M 167.984375 111.757812 C 167.984375 109.472656 166.703125 107.628906 165.117188 107.628906 C 163.527344 107.628906 162.246094 109.472656 162.246094 111.757812 C 162.246094 114.042969 163.527344 115.882812 165.117188 115.882812 C 166.703125 115.882812 167.984375 114.042969 167.984375 111.757812 Z M 167.984375 111.757812 " fill-opacity="1" fill-rule="nonzero"/><path fill="#f9b132" d="M 146.390625 104.625 C 146.097656 105.078125 145.816406 105.558594 145.574219 106.054688 C 144.601562 107.992188 144.054688 110.179688 144.054688 112.492188 C 144.054688 112.492188 134.671875 114.296875 127.503906 126.863281 C 120.324219 139.433594 124.820312 153.765625 124.820312 153.765625 C 124.261719 154.21875 123.699219 154.710938 123.152344 155.21875 C 121.871094 156.410156 120.671875 157.675781 119.546875 159.027344 C 116.71875 162.390625 114.382812 166.199219 112.433594 170.246094 C 112.433594 170.246094 107.417969 158.972656 97.246094 150.105469 C 97.246094 150.105469 97.246094 150.105469 97.246094 150.089844 C 97.179688 149.421875 94.789062 125.207031 110.257812 111.398438 C 125.957031 97.386719 146.390625 104.625 146.390625 104.625 Z M 146.390625 104.625 " fill-opacity="1" fill-rule="nonzero"/><path fill="#d74441" d="M 103.226562 224.765625 C 100.007812 224.273438 97.164062 223.617188 94.667969 222.882812 C 83.511719 219.597656 79.308594 214.683594 79.308594 214.683594 L 79.308594 214.667969 C 81.324219 200.550781 82.925781 178.328125 75.769531 166.105469 C 64.90625 147.566406 48.300781 158.25 47.742188 158.613281 C 46.417969 157.835938 44.953125 157.304688 43.375 157.0625 C 42.816406 156.984375 42.230469 156.941406 41.640625 156.941406 C 41.640625 156.941406 50.078125 135.425781 77.144531 140.101562 C 85.246094 141.488281 91.945312 145.46875 97.246094 150.089844 C 97.246094 150.105469 97.246094 150.105469 97.246094 150.105469 C 107.417969 158.972656 112.433594 170.246094 112.433594 170.246094 C 101.355469 193.273438 103.171875 224.003906 103.226562 224.765625 Z M 103.226562 224.765625 " fill-opacity="1" fill-rule="nonzero"/><path fill="#1ea6bc" d="M 172.429688 156.941406 C 172.308594 157.050781 172.191406 157.167969 172.082031 157.289062 C 170.546875 158.8125 169.375 160.710938 168.734375 162.832031 C 168.734375 162.832031 158.363281 158.199219 151.527344 175.132812 C 147.21875 185.804688 151.167969 203.238281 154.679688 214.667969 C 154.679688 214.667969 151.113281 218.851562 141.824219 222.070312 C 137.714844 223.511719 132.480469 224.765625 125.929688 225.367188 C 123.191406 225.621094 120.203125 225.769531 116.984375 225.769531 C 114.835938 225.769531 112.796875 225.703125 110.859375 225.59375 C 108.109375 225.421875 105.5625 225.140625 103.226562 224.765625 C 103.171875 224.003906 101.355469 193.273438 112.433594 170.246094 C 115.15625 164.582031 118.65625 159.386719 123.152344 155.21875 C 123.699219 154.710938 124.261719 154.21875 124.820312 153.765625 C 147.445312 134.957031 172.429688 156.941406 172.429688 156.941406 Z M 172.429688 156.941406 " fill-opacity="1" fill-rule="nonzero"/><path fill="#1498b7" d="M 172.082031 157.289062 C 170.546875 158.8125 169.375 160.710938 168.734375 162.832031 C 168.734375 162.832031 158.363281 158.199219 151.527344 175.132812 C 147.21875 185.804688 151.167969 203.238281 154.679688 214.667969 C 154.679688 214.667969 151.113281 218.851562 141.824219 222.070312 C 140.476562 216.03125 139.78125 209.488281 139.183594 203.785156 C 137.792969 190.574219 136.3125 176.578125 145.855469 166.386719 C 154.089844 157.597656 165.4375 157.089844 167.210938 157.035156 C 168.851562 156.984375 170.480469 157.078125 172.082031 157.289062 Z M 172.082031 157.289062 " fill-opacity="1" fill-rule="nonzero"/><path fill="#c7323d" d="M 95.136719 219.8125 C 95.003906 220.773438 94.855469 221.789062 94.667969 222.882812 C 83.511719 219.597656 79.308594 214.683594 79.308594 214.683594 L 79.308594 214.667969 C 81.324219 200.550781 82.925781 178.328125 75.769531 166.105469 C 64.90625 147.566406 48.300781 158.25 47.742188 158.613281 C 46.417969 157.835938 44.953125 157.304688 43.375 157.0625 C 44.390625 155.714844 45.605469 154.339844 47.085938 153.027344 C 48.714844 151.585938 56.296875 144.882812 65.773438 146.351562 C 73.394531 147.539062 77.878906 153.324219 81.789062 158.371094 C 83.445312 160.507812 87.476562 166.078125 91.132812 178.40625 C 93.535156 186.488281 97.660156 200.953125 95.136719 219.8125 Z M 95.136719 219.8125 " fill-opacity="1" fill-rule="nonzero"/><path fill="#ef9d26" d="M 145.574219 106.054688 C 144.601562 107.992188 144.054688 110.179688 144.054688 112.492188 C 144.054688 112.492188 134.671875 114.296875 127.503906 126.863281 C 120.324219 139.433594 124.820312 153.765625 124.820312 153.765625 C 124.261719 154.21875 123.699219 154.710938 123.152344 155.21875 C 121.871094 156.410156 120.671875 157.675781 119.546875 159.027344 C 117.828125 154.363281 116.785156 149.609375 116.492188 143.679688 C 116.199219 137.777344 115.277344 118.917969 128.503906 110.289062 C 132.910156 107.417969 139.609375 105.199219 145.574219 106.054688 Z M 145.574219 106.054688 " fill-opacity="1" fill-rule="nonzero"/><g clip-path="url(#e545f37d62)"><g clip-path="url(#01d21cb2b1)"><path fill="#ff0000" d="M 22.574219 50.625 L 52.769531 50.625 L 52.769531 77.007812 L 22.574219 77.007812 Z M 22.574219 50.625 " fill-opacity="1" fill-rule="nonzero"/></g></g><g fill="#ff0000" fill-opacity="1"><g transform="translate(30.738777, 40.043569)"><g><path d="M 6 0.25 C 4.539062 0.25 3.332031 -0.0234375 2.375 -0.578125 C 1.414062 -1.128906 0.71875 -1.867188 0.28125 -2.796875 L 2.1875 -5.109375 L 2.484375 -5.109375 C 2.796875 -4.359375 3.238281 -3.765625 3.8125 -3.328125 C 4.382812 -2.898438 5.050781 -2.6875 5.8125 -2.6875 C 6.65625 -2.6875 7.285156 -2.929688 7.703125 -3.421875 C 8.117188 -3.921875 8.328125 -4.734375 8.328125 -5.859375 L 8.328125 -17.109375 L 11.6875 -17.109375 L 11.6875 -5.796875 C 11.6875 -3.722656 11.21875 -2.195312 10.28125 -1.21875 C 9.34375 -0.238281 7.914062 0.25 6 0.25 Z M 6 0.25 "/></g></g></g><g clip-path="url(#da81c82ce2)"><g clip-path="url(#e1c927209e)"><path fill="#ff0000" d="M 202.300781 287.050781 L 172.105469 287.050781 L 172.105469 260.671875 L 202.300781 260.671875 Z M 202.300781 287.050781 " fill-opacity="1" fill-rule="nonzero"/></g></g><g fill="#ff0000" fill-opacity="1"><g transform="translate(194.133382, 297.633479)"><g><path d="M -6 -0.25 C -4.539062 -0.25 -3.332031 0.0234375 -2.375 0.578125 C -1.414062 1.128906 -0.71875 1.867188 -0.28125 2.796875 L -2.1875 5.109375 L -2.484375 5.109375 C -2.796875 4.359375 -3.238281 3.765625 -3.8125 3.328125 C -4.382812 2.898438 -5.050781 2.6875 -5.8125 2.6875 C -6.65625 2.6875 -7.285156 2.929688 -7.703125 3.421875 C -8.117188 3.921875 -8.328125 4.734375 -8.328125 5.859375 L -8.328125 17.109375 L -11.6875 17.109375 L -11.6875 5.796875 C -11.6875 3.722656 -11.21875 2.195312 -10.28125 1.21875 C -9.34375 0.238281 -7.914062 -0.25 -6 -0.25 Z M -6 -0.25 "/></g></g></g></svg>